<svg width="389" height="313" viewBox="0 0 389 313" fill="none" xmlns="http://www.w3.org/2000/svg">
<rect width="389" height="313" fill="white"/>
<path d="M217.014 37.256C216.193 37.256 215.414 37.1067 214.678 36.808C213.953 36.5093 213.307 36.0933 212.742 35.56C212.187 35.0267 211.75 34.3973 211.43 33.672C211.121 32.936 210.966 32.136 210.966 31.272C210.966 30.408 211.121 29.6133 211.43 28.888C211.75 28.152 212.187 27.5173 212.742 26.984C213.297 26.4507 213.937 26.0347 214.662 25.736C215.398 25.4373 216.182 25.288 217.014 25.288C217.931 25.288 218.758 25.448 219.494 25.768C220.23 26.088 220.859 26.5307 221.382 27.096L219.894 28.552C219.649 28.2853 219.382 28.0667 219.094 27.896C218.806 27.7147 218.491 27.576 218.15 27.48C217.809 27.384 217.425 27.336 216.998 27.336C216.475 27.336 215.979 27.432 215.51 27.624C215.051 27.8053 214.641 28.072 214.278 28.424C213.926 28.7653 213.649 29.176 213.446 29.656C213.243 30.136 213.142 30.6747 213.142 31.272C213.142 31.8693 213.243 32.408 213.446 32.888C213.649 33.368 213.926 33.784 214.278 34.136C214.641 34.4773 215.057 34.744 215.526 34.936C215.995 35.1173 216.497 35.208 217.03 35.208C217.563 35.208 218.038 35.1333 218.454 34.984C218.87 34.8347 219.222 34.632 219.51 34.376C219.809 34.12 220.043 33.8373 220.214 33.528C220.395 33.208 220.513 32.8827 220.566 32.552H216.966V30.712H222.582C222.614 30.8187 222.641 30.9787 222.662 31.192C222.683 31.4053 222.694 31.5813 222.694 31.72C222.694 32.5627 222.55 33.3253 222.262 34.008C221.985 34.6907 221.59 35.2773 221.078 35.768C220.577 36.248 219.979 36.616 219.286 36.872C218.593 37.128 217.835 37.256 217.014 37.256ZM227.685 37.256C226.831 37.256 226.074 37.0693 225.413 36.696C224.762 36.312 224.25 35.7947 223.877 35.144C223.514 34.4827 223.333 33.7413 223.333 32.92C223.333 32.0987 223.514 31.3627 223.877 30.712C224.25 30.0507 224.762 29.5333 225.413 29.16C226.074 28.776 226.831 28.584 227.685 28.584C228.538 28.584 229.29 28.776 229.941 29.16C230.591 29.544 231.098 30.0613 231.461 30.712C231.834 31.3627 232.021 32.0987 232.021 32.92C232.021 33.7413 231.834 34.4827 231.461 35.144C231.098 35.7947 230.591 36.312 229.941 36.696C229.29 37.0693 228.538 37.256 227.685 37.256ZM227.685 35.304C228.09 35.304 228.458 35.2133 228.789 35.032C229.13 34.84 229.402 34.568 229.605 34.216C229.818 33.8533 229.925 33.4213 229.925 32.92C229.925 32.4187 229.818 31.992 229.605 31.64C229.402 31.288 229.13 31.016 228.789 30.824C228.458 30.632 228.095 30.536 227.701 30.536C227.295 30.536 226.917 30.632 226.565 30.824C226.223 31.016 225.946 31.288 225.733 31.64C225.53 31.992 225.429 32.4187 225.429 32.92C225.429 33.4213 225.53 33.8533 225.733 34.216C225.946 34.568 226.223 34.84 226.565 35.032C226.917 35.2133 227.29 35.304 227.685 35.304ZM237.243 37.256C236.389 37.256 235.632 37.0693 234.971 36.696C234.32 36.312 233.808 35.7947 233.435 35.144C233.072 34.4827 232.891 33.7413 232.891 32.92C232.891 32.0987 233.072 31.3627 233.435 30.712C233.808 30.0507 234.32 29.5333 234.971 29.16C235.632 28.776 236.389 28.584 237.243 28.584C238.096 28.584 238.848 28.776 239.499 29.16C240.149 29.544 240.656 30.0613 241.019 30.712C241.392 31.3627 241.579 32.0987 241.579 32.92C241.579 33.7413 241.392 34.4827 241.019 35.144C240.656 35.7947 240.149 36.312 239.499 36.696C238.848 37.0693 238.096 37.256 237.243 37.256ZM237.243 35.304C237.648 35.304 238.016 35.2133 238.347 35.032C238.688 34.84 238.96 34.568 239.163 34.216C239.376 33.8533 239.483 33.4213 239.483 32.92C239.483 32.4187 239.376 31.992 239.163 31.64C238.96 31.288 238.688 31.016 238.347 30.824C238.016 30.632 237.653 30.536 237.259 30.536C236.853 30.536 236.475 30.632 236.123 30.824C235.781 31.016 235.504 31.288 235.291 31.64C235.088 31.992 234.987 32.4187 234.987 32.92C234.987 33.4213 235.088 33.8533 235.291 34.216C235.504 34.568 235.781 34.84 236.123 35.032C236.475 35.2133 236.848 35.304 237.243 35.304ZM246.657 40.712C245.921 40.712 245.281 40.5947 244.737 40.36C244.203 40.136 243.766 39.8427 243.425 39.48C243.083 39.1173 242.843 38.7387 242.705 38.344L244.673 37.544C244.843 37.9387 245.099 38.2533 245.441 38.488C245.793 38.7333 246.198 38.856 246.657 38.856C247.307 38.856 247.83 38.6533 248.225 38.248C248.619 37.8533 248.817 37.2773 248.817 36.52V35.88H248.689C248.433 36.2427 248.097 36.52 247.681 36.712C247.265 36.904 246.79 37 246.257 37C245.595 37 244.971 36.8293 244.385 36.488C243.809 36.1467 243.339 35.6613 242.977 35.032C242.625 34.4027 242.449 33.656 242.449 32.792C242.449 31.9173 242.625 31.1707 242.977 30.552C243.339 29.9227 243.809 29.4373 244.385 29.096C244.971 28.7547 245.595 28.584 246.257 28.584C246.79 28.584 247.265 28.68 247.681 28.872C248.097 29.0533 248.433 29.3307 248.689 29.704H248.817V28.84H250.833V36.44C250.833 37.3147 250.662 38.072 250.321 38.712C249.979 39.352 249.494 39.8427 248.865 40.184C248.246 40.536 247.51 40.712 246.657 40.712ZM246.689 35.096C247.062 35.096 247.409 35.0107 247.729 34.84C248.059 34.6587 248.321 34.3973 248.513 34.056C248.715 33.704 248.817 33.2827 248.817 32.792C248.817 32.28 248.715 31.8533 248.513 31.512C248.321 31.1707 248.059 30.9147 247.729 30.744C247.409 30.5733 247.062 30.488 246.689 30.488C246.315 30.488 245.963 30.5733 245.633 30.744C245.302 30.9147 245.035 31.1707 244.833 31.512C244.641 31.8533 244.545 32.28 244.545 32.792C244.545 33.2933 244.641 33.72 244.833 34.072C245.035 34.4133 245.302 34.6693 245.633 34.84C245.963 35.0107 246.315 35.096 246.689 35.096ZM252.611 37V25.544H254.707V37H252.611ZM260.227 37.256C259.406 37.256 258.67 37.0693 258.019 36.696C257.379 36.3227 256.873 35.8107 256.499 35.16C256.137 34.5093 255.955 33.768 255.955 32.936C255.955 32.1573 256.137 31.4373 256.499 30.776C256.862 30.1147 257.358 29.5867 257.987 29.192C258.617 28.7867 259.337 28.584 260.147 28.584C261.022 28.584 261.758 28.7707 262.355 29.144C262.953 29.5173 263.406 30.0187 263.715 30.648C264.025 31.2667 264.179 31.9547 264.179 32.712C264.179 32.8827 264.174 33.032 264.163 33.16C264.153 33.2773 264.142 33.3627 264.131 33.416H258.019C258.062 33.7253 258.147 33.9973 258.275 34.232C258.478 34.616 258.75 34.9093 259.091 35.112C259.443 35.304 259.833 35.4 260.259 35.4C260.761 35.4 261.182 35.2933 261.523 35.08C261.865 34.856 262.131 34.5787 262.323 34.248L264.019 35.08C263.635 35.752 263.134 36.2853 262.515 36.68C261.897 37.064 261.134 37.256 260.227 37.256ZM258.099 31.928H262.163C262.153 31.7467 262.099 31.56 262.003 31.368C261.907 31.176 261.774 31 261.603 30.84C261.433 30.68 261.225 30.552 260.979 30.456C260.745 30.3493 260.473 30.296 260.163 30.296C259.758 30.296 259.385 30.4027 259.043 30.616C258.713 30.8293 258.451 31.1227 258.259 31.496C258.195 31.6347 258.142 31.7787 258.099 31.928Z" fill="#3C4043"/>
<rect x="111" y="50" width="248" height="232" rx="18" fill="#E8F0FE"/>
<path d="M57.8882 81.25H57.1382V82.75H57.8882V81.25ZM122.888 82L115.388 77.6699V86.3301L122.888 82ZM57.8882 82.75H116.138V81.25H57.8882V82.75Z" fill="#3C4043"/>
<path d="M80.3882 98L87.8882 102.33V93.6699L80.3882 98ZM144.388 98.75H145.138V97.25H144.388V98.75ZM87.1382 98.75H144.388V97.25H87.1382V98.75Z" fill="#3C4043"/>
<rect x="123" y="61" width="145" height="100" rx="1" fill="#34A853"/>
<mask id="path-6-inside-1_763_6930" fill="white">
<rect x="123" y="171" width="145" height="100" rx="1"/>
</mask>
<rect x="123" y="171" width="145" height="100" rx="1" fill="white" stroke="#3C4043" stroke-width="3" mask="url(#path-6-inside-1_763_6930)"/>
<rect x="133" y="105" width="125" height="47" fill="#CEEAD6"/>
<path d="M161.056 89.224C160.337 89.224 159.656 89.0933 159.012 88.832C158.377 88.5707 157.813 88.2067 157.318 87.74C156.833 87.2733 156.45 86.7227 156.17 86.088C155.899 85.444 155.764 84.744 155.764 83.988C155.764 83.232 155.899 82.5367 156.17 81.902C156.45 81.258 156.833 80.7027 157.318 80.236C157.803 79.7693 158.363 79.4053 158.998 79.144C159.642 78.8827 160.328 78.752 161.056 78.752C161.859 78.752 162.582 78.892 163.226 79.172C163.87 79.452 164.421 79.8393 164.878 80.334L163.576 81.608C163.361 81.3747 163.128 81.1833 162.876 81.034C162.624 80.8753 162.349 80.754 162.05 80.67C161.751 80.586 161.415 80.544 161.042 80.544C160.585 80.544 160.151 80.628 159.74 80.796C159.339 80.9547 158.979 81.188 158.662 81.496C158.354 81.7947 158.111 82.154 157.934 82.574C157.757 82.994 157.668 83.4653 157.668 83.988C157.668 84.5107 157.757 84.982 157.934 85.402C158.111 85.822 158.354 86.186 158.662 86.494C158.979 86.7927 159.343 87.026 159.754 87.194C160.165 87.3527 160.603 87.432 161.07 87.432C161.537 87.432 161.952 87.3667 162.316 87.236C162.68 87.1053 162.988 86.928 163.24 86.704C163.501 86.48 163.707 86.2327 163.856 85.962C164.015 85.682 164.117 85.3973 164.164 85.108H161.014V83.498H165.928C165.956 83.5913 165.979 83.7313 165.998 83.918C166.017 84.1047 166.026 84.2587 166.026 84.38C166.026 85.1173 165.9 85.7847 165.648 86.382C165.405 86.9793 165.06 87.4927 164.612 87.922C164.173 88.342 163.651 88.664 163.044 88.888C162.437 89.112 161.775 89.224 161.056 89.224ZM170.293 89.224C169.546 89.224 168.884 89.0607 168.305 88.734C167.736 88.398 167.288 87.9453 166.961 87.376C166.644 86.7973 166.485 86.1487 166.485 85.43C166.485 84.7113 166.644 84.0673 166.961 83.498C167.288 82.9193 167.736 82.4667 168.305 82.14C168.884 81.804 169.546 81.636 170.293 81.636C171.04 81.636 171.698 81.804 172.267 82.14C172.836 82.476 173.28 82.9287 173.597 83.498C173.924 84.0673 174.087 84.7113 174.087 85.43C174.087 86.1487 173.924 86.7973 173.597 87.376C173.28 87.9453 172.836 88.398 172.267 88.734C171.698 89.0607 171.04 89.224 170.293 89.224ZM170.293 87.516C170.648 87.516 170.97 87.4367 171.259 87.278C171.558 87.11 171.796 86.872 171.973 86.564C172.16 86.2467 172.253 85.8687 172.253 85.43C172.253 84.9913 172.16 84.618 171.973 84.31C171.796 84.002 171.558 83.764 171.259 83.596C170.97 83.428 170.652 83.344 170.307 83.344C169.952 83.344 169.621 83.428 169.313 83.596C169.014 83.764 168.772 84.002 168.585 84.31C168.408 84.618 168.319 84.9913 168.319 85.43C168.319 85.8687 168.408 86.2467 168.585 86.564C168.772 86.872 169.014 87.11 169.313 87.278C169.621 87.4367 169.948 87.516 170.293 87.516ZM178.556 89.224C177.81 89.224 177.147 89.0607 176.568 88.734C175.999 88.398 175.551 87.9453 175.224 87.376C174.907 86.7973 174.748 86.1487 174.748 85.43C174.748 84.7113 174.907 84.0673 175.224 83.498C175.551 82.9193 175.999 82.4667 176.568 82.14C177.147 81.804 177.81 81.636 178.556 81.636C179.303 81.636 179.961 81.804 180.53 82.14C181.1 82.476 181.543 82.9287 181.86 83.498C182.187 84.0673 182.35 84.7113 182.35 85.43C182.35 86.1487 182.187 86.7973 181.86 87.376C181.543 87.9453 181.1 88.398 180.53 88.734C179.961 89.0607 179.303 89.224 178.556 89.224ZM178.556 87.516C178.911 87.516 179.233 87.4367 179.522 87.278C179.821 87.11 180.059 86.872 180.236 86.564C180.423 86.2467 180.516 85.8687 180.516 85.43C180.516 84.9913 180.423 84.618 180.236 84.31C180.059 84.002 179.821 83.764 179.522 83.596C179.233 83.428 178.916 83.344 178.57 83.344C178.216 83.344 177.884 83.428 177.576 83.596C177.278 83.764 177.035 84.002 176.848 84.31C176.671 84.618 176.582 84.9913 176.582 85.43C176.582 85.8687 176.671 86.2467 176.848 86.564C177.035 86.872 177.278 87.11 177.576 87.278C177.884 87.4367 178.211 87.516 178.556 87.516ZM186.694 92.248C186.05 92.248 185.49 92.1453 185.014 91.94C184.547 91.744 184.164 91.4873 183.866 91.17C183.567 90.8527 183.357 90.5213 183.236 90.176L184.958 89.476C185.107 89.8213 185.331 90.0967 185.63 90.302C185.938 90.5167 186.292 90.624 186.694 90.624C187.263 90.624 187.72 90.4467 188.066 90.092C188.411 89.7467 188.584 89.2427 188.584 88.58V88.02H188.472C188.248 88.3373 187.954 88.58 187.59 88.748C187.226 88.916 186.81 89 186.344 89C185.765 89 185.219 88.8507 184.706 88.552C184.202 88.2533 183.791 87.8287 183.474 87.278C183.166 86.7273 183.012 86.074 183.012 85.318C183.012 84.5527 183.166 83.8993 183.474 83.358C183.791 82.8073 184.202 82.3827 184.706 82.084C185.219 81.7853 185.765 81.636 186.344 81.636C186.81 81.636 187.226 81.72 187.59 81.888C187.954 82.0467 188.248 82.2893 188.472 82.616H188.584V81.86H190.348V88.51C190.348 89.2753 190.198 89.938 189.9 90.498C189.601 91.058 189.176 91.4873 188.626 91.786C188.084 92.094 187.44 92.248 186.694 92.248ZM186.722 87.334C187.048 87.334 187.352 87.2593 187.632 87.11C187.921 86.9513 188.15 86.7227 188.318 86.424C188.495 86.116 188.584 85.7473 188.584 85.318C188.584 84.87 188.495 84.4967 188.318 84.198C188.15 83.8993 187.921 83.6753 187.632 83.526C187.352 83.3767 187.048 83.302 186.722 83.302C186.395 83.302 186.087 83.3767 185.798 83.526C185.508 83.6753 185.275 83.8993 185.098 84.198C184.93 84.4967 184.846 84.87 184.846 85.318C184.846 85.7567 184.93 86.13 185.098 86.438C185.275 86.7367 185.508 86.9607 185.798 87.11C186.087 87.2593 186.395 87.334 186.722 87.334ZM191.804 89V78.976H193.638V89H191.804ZM198.368 89.224C197.649 89.224 197.005 89.0607 196.436 88.734C195.876 88.4073 195.433 87.9593 195.106 87.39C194.789 86.8207 194.63 86.172 194.63 85.444C194.63 84.7627 194.789 84.1327 195.106 83.554C195.423 82.9753 195.857 82.5133 196.408 82.168C196.959 81.8133 197.589 81.636 198.298 81.636C199.063 81.636 199.707 81.7993 200.23 82.126C200.753 82.4527 201.149 82.8913 201.42 83.442C201.691 83.9833 201.826 84.5853 201.826 85.248C201.826 85.3973 201.821 85.528 201.812 85.64C201.803 85.7427 201.793 85.8173 201.784 85.864H196.436C196.473 86.1347 196.548 86.3727 196.66 86.578C196.837 86.914 197.075 87.1707 197.374 87.348C197.682 87.516 198.023 87.6 198.396 87.6C198.835 87.6 199.203 87.5067 199.502 87.32C199.801 87.124 200.034 86.8813 200.202 86.592L201.686 87.32C201.35 87.908 200.911 88.3747 200.37 88.72C199.829 89.056 199.161 89.224 198.368 89.224ZM196.506 84.562H200.062C200.053 84.4033 200.006 84.24 199.922 84.072C199.838 83.904 199.721 83.75 199.572 83.61C199.423 83.47 199.241 83.358 199.026 83.274C198.821 83.1807 198.583 83.134 198.312 83.134C197.957 83.134 197.631 83.2273 197.332 83.414C197.043 83.6007 196.814 83.8573 196.646 84.184C196.59 84.3053 196.543 84.4313 196.506 84.562ZM210.545 89.224C209.807 89.224 209.117 89.0933 208.473 88.832C207.838 88.5613 207.283 88.188 206.807 87.712C206.331 87.236 205.957 86.6807 205.687 86.046C205.425 85.4113 205.295 84.7253 205.295 83.988C205.295 83.2507 205.425 82.5647 205.687 81.93C205.957 81.2953 206.331 80.74 206.807 80.264C207.283 79.788 207.838 79.4193 208.473 79.158C209.117 78.8873 209.807 78.752 210.545 78.752C211.077 78.752 211.567 78.8173 212.015 78.948C212.463 79.0693 212.873 79.2513 213.247 79.494C213.629 79.7367 213.979 80.0353 214.297 80.39L212.967 81.678C212.771 81.4447 212.551 81.244 212.309 81.076C212.075 80.908 211.814 80.7773 211.525 80.684C211.235 80.5907 210.913 80.544 210.559 80.544C209.933 80.544 209.364 80.6887 208.851 80.978C208.347 81.258 207.945 81.6547 207.647 82.168C207.348 82.6813 207.199 83.288 207.199 83.988C207.199 84.6787 207.348 85.2853 207.647 85.808C207.945 86.3213 208.347 86.7227 208.851 87.012C209.364 87.292 209.933 87.432 210.559 87.432C210.932 87.432 211.277 87.3807 211.595 87.278C211.912 87.1753 212.201 87.026 212.463 86.83C212.733 86.6247 212.981 86.3867 213.205 86.116L214.549 87.39C214.222 87.782 213.853 88.118 213.443 88.398C213.032 88.6687 212.584 88.874 212.099 89.014C211.613 89.154 211.095 89.224 210.545 89.224ZM215.56 89V78.976H217.394V81.51L217.282 82.756H217.394C217.599 82.4293 217.893 82.1633 218.276 81.958C218.668 81.7433 219.097 81.636 219.564 81.636C220.152 81.636 220.647 81.7573 221.048 82C221.449 82.2333 221.748 82.5693 221.944 83.008C222.149 83.4467 222.252 83.9647 222.252 84.562V89H220.418V84.786C220.418 84.4687 220.357 84.2073 220.236 84.002C220.124 83.7873 219.965 83.624 219.76 83.512C219.564 83.4 219.331 83.344 219.06 83.344C218.733 83.344 218.444 83.4373 218.192 83.624C217.94 83.8013 217.744 84.044 217.604 84.352C217.464 84.66 217.394 85.0007 217.394 85.374V89H215.56ZM225.747 89.224C225.243 89.224 224.795 89.126 224.403 88.93C224.021 88.7247 223.717 88.44 223.493 88.076C223.269 87.712 223.157 87.292 223.157 86.816C223.157 86.3213 223.283 85.8967 223.535 85.542C223.797 85.1873 224.142 84.912 224.571 84.716C225.01 84.52 225.495 84.422 226.027 84.422C226.317 84.422 226.578 84.4407 226.811 84.478C227.054 84.506 227.269 84.5433 227.455 84.59C227.642 84.6367 227.796 84.688 227.917 84.744V84.436C227.917 84.0533 227.773 83.7407 227.483 83.498C227.194 83.246 226.797 83.12 226.293 83.12C225.957 83.12 225.631 83.1993 225.313 83.358C225.005 83.5073 224.749 83.708 224.543 83.96L223.367 83.036C223.601 82.7373 223.871 82.4853 224.179 82.28C224.487 82.0653 224.828 81.9067 225.201 81.804C225.575 81.692 225.967 81.636 226.377 81.636C227.469 81.636 228.3 81.888 228.869 82.392C229.439 82.896 229.723 83.6333 229.723 84.604V89H227.917V88.272H227.805C227.675 88.44 227.511 88.5987 227.315 88.748C227.119 88.888 226.891 89 226.629 89.084C226.368 89.1773 226.074 89.224 225.747 89.224ZM226.181 87.796C226.555 87.796 226.867 87.7167 227.119 87.558C227.381 87.39 227.577 87.1753 227.707 86.914C227.847 86.6527 227.917 86.3773 227.917 86.088C227.712 85.9853 227.479 85.906 227.217 85.85C226.956 85.7847 226.69 85.752 226.419 85.752C225.878 85.752 225.505 85.8547 225.299 86.06C225.094 86.2653 224.991 86.5173 224.991 86.816C224.991 87.096 225.089 87.3293 225.285 87.516C225.491 87.7027 225.789 87.796 226.181 87.796ZM230.42 81.86H231.666V79.844H233.5V81.86H235.25V83.428H233.5V86.382C233.5 86.7087 233.57 86.9607 233.71 87.138C233.85 87.306 234.084 87.39 234.41 87.39C234.597 87.39 234.751 87.362 234.872 87.306C235.003 87.25 235.148 87.1753 235.306 87.082V88.874C235.11 88.9487 234.905 89.0047 234.69 89.042C234.485 89.0887 234.266 89.112 234.032 89.112C233.295 89.112 232.716 88.902 232.296 88.482C231.876 88.0527 231.666 87.4647 231.666 86.718V83.428H230.42V81.86Z" fill="white"/>
<path d="M183.71 123L187.194 113.692H189.209L192.706 123H190.769L189.989 120.777H186.427L185.647 123H183.71ZM189.417 119.165L188.598 116.825L188.26 115.707H188.156L187.818 116.825L186.999 119.165H189.417ZM193.416 125.808V116.37H195.015V117.176H195.119C195.231 117.003 195.379 116.838 195.561 116.682C195.751 116.526 195.977 116.4 196.237 116.305C196.497 116.21 196.787 116.162 197.108 116.162C197.714 116.162 198.256 116.314 198.733 116.617C199.218 116.912 199.599 117.323 199.877 117.852C200.163 118.381 200.306 118.992 200.306 119.685C200.306 120.378 200.163 120.989 199.877 121.518C199.599 122.047 199.218 122.463 198.733 122.766C198.256 123.061 197.714 123.208 197.108 123.208C196.631 123.208 196.219 123.108 195.873 122.909C195.535 122.701 195.283 122.467 195.119 122.207H195.015L195.119 123.143V125.808H193.416ZM196.809 121.635C197.129 121.635 197.424 121.557 197.693 121.401C197.97 121.236 198.191 121.007 198.356 120.712C198.529 120.417 198.616 120.075 198.616 119.685C198.616 119.286 198.529 118.944 198.356 118.658C198.191 118.372 197.97 118.151 197.693 117.995C197.424 117.83 197.129 117.748 196.809 117.748C196.497 117.748 196.202 117.83 195.925 117.995C195.656 118.151 195.435 118.376 195.262 118.671C195.097 118.957 195.015 119.295 195.015 119.685C195.015 120.075 195.097 120.417 195.262 120.712C195.435 120.998 195.656 121.223 195.925 121.388C196.202 121.553 196.497 121.635 196.809 121.635ZM201.114 125.808V116.37H202.713V117.176H202.817C202.93 117.003 203.077 116.838 203.259 116.682C203.45 116.526 203.675 116.4 203.935 116.305C204.195 116.21 204.486 116.162 204.806 116.162C205.413 116.162 205.955 116.314 206.431 116.617C206.917 116.912 207.298 117.323 207.575 117.852C207.861 118.381 208.004 118.992 208.004 119.685C208.004 120.378 207.861 120.989 207.575 121.518C207.298 122.047 206.917 122.463 206.431 122.766C205.955 123.061 205.413 123.208 204.806 123.208C204.33 123.208 203.918 123.108 203.571 122.909C203.233 122.701 202.982 122.467 202.817 122.207H202.713L202.817 123.143V125.808H201.114ZM204.507 121.635C204.828 121.635 205.123 121.557 205.391 121.401C205.669 121.236 205.89 121.007 206.054 120.712C206.228 120.417 206.314 120.075 206.314 119.685C206.314 119.286 206.228 118.944 206.054 118.658C205.89 118.372 205.669 118.151 205.391 117.995C205.123 117.83 204.828 117.748 204.507 117.748C204.195 117.748 203.901 117.83 203.623 117.995C203.355 118.151 203.134 118.376 202.96 118.671C202.796 118.957 202.713 119.295 202.713 119.685C202.713 120.075 202.796 120.417 202.96 120.712C203.134 120.998 203.355 121.223 203.623 121.388C203.901 121.553 204.195 121.635 204.507 121.635ZM177.3 137.208C176.728 137.208 176.238 137.126 175.831 136.961C175.432 136.796 175.107 136.58 174.856 136.311C174.604 136.042 174.418 135.748 174.297 135.427L175.818 134.764C175.965 135.076 176.164 135.314 176.416 135.479C176.667 135.635 176.962 135.713 177.3 135.713C177.577 135.713 177.828 135.67 178.054 135.583C178.279 135.488 178.392 135.319 178.392 135.076C178.392 134.903 178.331 134.768 178.21 134.673C178.097 134.569 177.954 134.491 177.781 134.439C177.607 134.378 177.43 134.331 177.248 134.296L176.468 134.127C176.147 134.058 175.844 133.936 175.558 133.763C175.272 133.581 175.038 133.356 174.856 133.087C174.682 132.81 174.596 132.493 174.596 132.138C174.596 131.739 174.708 131.393 174.934 131.098C175.168 130.803 175.48 130.574 175.87 130.409C176.268 130.244 176.706 130.162 177.183 130.162C177.625 130.162 178.023 130.214 178.379 130.318C178.734 130.422 179.042 130.582 179.302 130.799C179.562 131.007 179.77 131.276 179.926 131.605L178.47 132.242C178.331 131.982 178.149 131.8 177.924 131.696C177.707 131.592 177.473 131.54 177.222 131.54C176.927 131.54 176.693 131.596 176.52 131.709C176.346 131.822 176.26 131.956 176.26 132.112C176.26 132.277 176.346 132.42 176.52 132.541C176.693 132.662 176.901 132.753 177.144 132.814L178.119 133.048C178.777 133.204 179.271 133.455 179.601 133.802C179.939 134.149 180.108 134.565 180.108 135.05C180.108 135.483 179.982 135.865 179.731 136.194C179.479 136.515 179.141 136.766 178.717 136.948C178.292 137.121 177.82 137.208 177.3 137.208ZM184.187 137.208C183.519 137.208 182.921 137.056 182.393 136.753C181.873 136.45 181.461 136.034 181.158 135.505C180.863 134.976 180.716 134.374 180.716 133.698C180.716 133.065 180.863 132.48 181.158 131.943C181.452 131.406 181.855 130.977 182.367 130.656C182.878 130.327 183.463 130.162 184.122 130.162C184.832 130.162 185.43 130.314 185.916 130.617C186.401 130.92 186.769 131.328 187.021 131.839C187.272 132.342 187.398 132.901 187.398 133.516C187.398 133.655 187.393 133.776 187.385 133.88C187.376 133.975 187.367 134.045 187.359 134.088H182.393C182.427 134.339 182.497 134.56 182.601 134.751C182.765 135.063 182.986 135.301 183.264 135.466C183.55 135.622 183.866 135.7 184.213 135.7C184.62 135.7 184.962 135.613 185.24 135.44C185.517 135.258 185.734 135.033 185.89 134.764L187.268 135.44C186.956 135.986 186.548 136.419 186.046 136.74C185.543 137.052 184.923 137.208 184.187 137.208ZM182.458 132.879H185.76C185.751 132.732 185.708 132.58 185.63 132.424C185.552 132.268 185.443 132.125 185.305 131.995C185.166 131.865 184.997 131.761 184.798 131.683C184.607 131.596 184.386 131.553 184.135 131.553C183.805 131.553 183.502 131.64 183.225 131.813C182.956 131.986 182.744 132.225 182.588 132.528C182.536 132.641 182.492 132.758 182.458 132.879ZM188.385 137V130.37H189.984V131.254H190.088C190.2 131.046 190.348 130.864 190.53 130.708C190.72 130.543 190.941 130.413 191.193 130.318C191.444 130.223 191.713 130.175 191.999 130.175C192.172 130.175 192.328 130.188 192.467 130.214C192.605 130.24 192.727 130.275 192.831 130.318V132.021C192.649 131.952 192.467 131.895 192.285 131.852C192.111 131.8 191.925 131.774 191.726 131.774C191.388 131.774 191.093 131.861 190.842 132.034C190.599 132.199 190.413 132.428 190.283 132.723C190.153 133.009 190.088 133.334 190.088 133.698V137H188.385ZM195.878 137L193.07 130.37H195.007L196.684 134.686H196.788L198.491 130.37H200.402L197.568 137H195.878ZM201.105 137V130.37H202.808V137H201.105ZM201.963 129.642C201.66 129.642 201.4 129.534 201.183 129.317C200.966 129.1 200.858 128.84 200.858 128.537C200.858 128.234 200.966 127.978 201.183 127.77C201.4 127.553 201.66 127.445 201.963 127.445C202.266 127.445 202.522 127.553 202.73 127.77C202.947 127.978 203.055 128.234 203.055 128.537C203.055 128.84 202.947 129.1 202.73 129.317C202.522 129.534 202.266 129.642 201.963 129.642ZM207.313 137.208C206.637 137.208 206.034 137.061 205.506 136.766C204.986 136.463 204.574 136.047 204.271 135.518C203.976 134.981 203.829 134.37 203.829 133.685C203.829 133 203.976 132.394 204.271 131.865C204.574 131.336 204.986 130.92 205.506 130.617C206.034 130.314 206.637 130.162 207.313 130.162C208.049 130.162 208.682 130.318 209.211 130.63C209.739 130.942 210.121 131.393 210.355 131.982L208.795 132.632C208.656 132.329 208.461 132.108 208.21 131.969C207.958 131.822 207.659 131.748 207.313 131.748C206.975 131.748 206.671 131.83 206.403 131.995C206.134 132.151 205.922 132.372 205.766 132.658C205.61 132.944 205.532 133.286 205.532 133.685C205.532 134.084 205.61 134.43 205.766 134.725C205.922 135.011 206.134 135.236 206.403 135.401C206.671 135.557 206.975 135.635 207.313 135.635C207.694 135.635 208.01 135.553 208.262 135.388C208.513 135.215 208.717 134.981 208.873 134.686L210.394 135.362C210.134 135.917 209.739 136.363 209.211 136.701C208.682 137.039 208.049 137.208 207.313 137.208ZM214.363 137.208C213.696 137.208 213.098 137.056 212.569 136.753C212.049 136.45 211.638 136.034 211.334 135.505C211.04 134.976 210.892 134.374 210.892 133.698C210.892 133.065 211.04 132.48 211.334 131.943C211.629 131.406 212.032 130.977 212.543 130.656C213.055 130.327 213.64 130.162 214.298 130.162C215.009 130.162 215.607 130.314 216.092 130.617C216.578 130.92 216.946 131.328 217.197 131.839C217.449 132.342 217.574 132.901 217.574 133.516C217.574 133.655 217.57 133.776 217.561 133.88C217.553 133.975 217.544 134.045 217.535 134.088H212.569C212.604 134.339 212.673 134.56 212.777 134.751C212.942 135.063 213.163 135.301 213.44 135.466C213.726 135.622 214.043 135.7 214.389 135.7C214.797 135.7 215.139 135.613 215.416 135.44C215.694 135.258 215.91 135.033 216.066 134.764L217.444 135.44C217.132 135.986 216.725 136.419 216.222 136.74C215.72 137.052 215.1 137.208 214.363 137.208ZM212.634 132.879H215.936C215.928 132.732 215.884 132.58 215.806 132.424C215.728 132.268 215.62 132.125 215.481 131.995C215.343 131.865 215.174 131.761 214.974 131.683C214.784 131.596 214.563 131.553 214.311 131.553C213.982 131.553 213.679 131.64 213.401 131.813C213.133 131.986 212.92 132.225 212.764 132.528C212.712 132.641 212.669 132.758 212.634 132.879Z" fill="#3C4043"/>
<path d="M243.889 123.5L251.689 128.003L251.689 118.997L243.889 123.5ZM314.889 123.5H315.669V122.72H314.889V123.5ZM314.889 221.5V222.28H315.669V221.5H314.889ZM268.05 221.5L275.85 226.003V216.997L268.05 221.5ZM250.909 124.28L314.889 124.28V122.72L250.909 122.72V124.28ZM314.109 123.5V221.5H315.669V123.5H314.109ZM314.889 220.72H275.07V222.28H314.889V220.72Z" fill="#3C4043"/>
<rect x="281" y="145" width="68" height="42" rx="3" fill="#4285F4"/>
<path d="M206.54 195.261C206.54 194.446 206.467 193.662 206.331 192.909H195.5V197.363H201.689C201.417 198.795 200.602 200.008 199.379 200.823V203.719H203.111C205.285 201.712 206.54 198.764 206.54 195.261V195.261Z" fill="#4285F4"/>
<path d="M195.5 206.5C198.605 206.5 201.208 205.475 203.111 203.719L199.379 200.823C198.354 201.513 197.048 201.931 195.5 201.931C192.51 201.931 189.97 199.914 189.06 197.195H185.234V200.165C187.126 203.918 191.005 206.5 195.5 206.5Z" fill="#34A853"/>
<path d="M189.06 197.185C188.83 196.495 188.694 195.763 188.694 195C188.694 194.237 188.83 193.505 189.06 192.815V189.846H185.234C184.45 191.393 184 193.139 184 195C184 196.861 184.45 198.607 185.234 200.154L188.213 197.833L189.06 197.185Z" fill="#FBBC05"/>
<path d="M195.5 188.079C197.194 188.079 198.699 188.665 199.902 189.794L203.195 186.5C201.198 184.64 198.605 183.5 195.5 183.5C191.005 183.5 187.126 186.082 185.234 189.846L189.06 192.815C189.97 190.097 192.51 188.079 195.5 188.079Z" fill="#EA4335"/>
<path d="M140.017 226.224C139.298 226.224 138.617 226.093 137.973 225.832C137.338 225.571 136.774 225.207 136.279 224.74C135.794 224.273 135.411 223.723 135.131 223.088C134.86 222.444 134.725 221.744 134.725 220.988C134.725 220.232 134.86 219.537 135.131 218.902C135.411 218.258 135.794 217.703 136.279 217.236C136.764 216.769 137.324 216.405 137.959 216.144C138.603 215.883 139.289 215.752 140.017 215.752C140.82 215.752 141.543 215.892 142.187 216.172C142.831 216.452 143.382 216.839 143.839 217.334L142.537 218.608C142.322 218.375 142.089 218.183 141.837 218.034C141.585 217.875 141.31 217.754 141.011 217.67C140.712 217.586 140.376 217.544 140.003 217.544C139.546 217.544 139.112 217.628 138.701 217.796C138.3 217.955 137.94 218.188 137.623 218.496C137.315 218.795 137.072 219.154 136.895 219.574C136.718 219.994 136.629 220.465 136.629 220.988C136.629 221.511 136.718 221.982 136.895 222.402C137.072 222.822 137.315 223.186 137.623 223.494C137.94 223.793 138.304 224.026 138.715 224.194C139.126 224.353 139.564 224.432 140.031 224.432C140.498 224.432 140.913 224.367 141.277 224.236C141.641 224.105 141.949 223.928 142.201 223.704C142.462 223.48 142.668 223.233 142.817 222.962C142.976 222.682 143.078 222.397 143.125 222.108H139.975V220.498H144.889C144.917 220.591 144.94 220.731 144.959 220.918C144.978 221.105 144.987 221.259 144.987 221.38C144.987 222.117 144.861 222.785 144.609 223.382C144.366 223.979 144.021 224.493 143.573 224.922C143.134 225.342 142.612 225.664 142.005 225.888C141.398 226.112 140.736 226.224 140.017 226.224ZM149.354 226.224C148.607 226.224 147.945 226.061 147.366 225.734C146.797 225.398 146.349 224.945 146.022 224.376C145.705 223.797 145.546 223.149 145.546 222.43C145.546 221.711 145.705 221.067 146.022 220.498C146.349 219.919 146.797 219.467 147.366 219.14C147.945 218.804 148.607 218.636 149.354 218.636C150.101 218.636 150.759 218.804 151.328 219.14C151.897 219.476 152.341 219.929 152.658 220.498C152.985 221.067 153.148 221.711 153.148 222.43C153.148 223.149 152.985 223.797 152.658 224.376C152.341 224.945 151.897 225.398 151.328 225.734C150.759 226.061 150.101 226.224 149.354 226.224ZM149.354 224.516C149.709 224.516 150.031 224.437 150.32 224.278C150.619 224.11 150.857 223.872 151.034 223.564C151.221 223.247 151.314 222.869 151.314 222.43C151.314 221.991 151.221 221.618 151.034 221.31C150.857 221.002 150.619 220.764 150.32 220.596C150.031 220.428 149.713 220.344 149.368 220.344C149.013 220.344 148.682 220.428 148.374 220.596C148.075 220.764 147.833 221.002 147.646 221.31C147.469 221.618 147.38 221.991 147.38 222.43C147.38 222.869 147.469 223.247 147.646 223.564C147.833 223.872 148.075 224.11 148.374 224.278C148.682 224.437 149.009 224.516 149.354 224.516ZM157.717 226.224C156.971 226.224 156.308 226.061 155.729 225.734C155.16 225.398 154.712 224.945 154.385 224.376C154.068 223.797 153.909 223.149 153.909 222.43C153.909 221.711 154.068 221.067 154.385 220.498C154.712 219.919 155.16 219.467 155.729 219.14C156.308 218.804 156.971 218.636 157.717 218.636C158.464 218.636 159.122 218.804 159.691 219.14C160.261 219.476 160.704 219.929 161.021 220.498C161.348 221.067 161.511 221.711 161.511 222.43C161.511 223.149 161.348 223.797 161.021 224.376C160.704 224.945 160.261 225.398 159.691 225.734C159.122 226.061 158.464 226.224 157.717 226.224ZM157.717 224.516C158.072 224.516 158.394 224.437 158.683 224.278C158.982 224.11 159.22 223.872 159.397 223.564C159.584 223.247 159.677 222.869 159.677 222.43C159.677 221.991 159.584 221.618 159.397 221.31C159.22 221.002 158.982 220.764 158.683 220.596C158.394 220.428 158.077 220.344 157.731 220.344C157.377 220.344 157.045 220.428 156.737 220.596C156.439 220.764 156.196 221.002 156.009 221.31C155.832 221.618 155.743 221.991 155.743 222.43C155.743 222.869 155.832 223.247 156.009 223.564C156.196 223.872 156.439 224.11 156.737 224.278C157.045 224.437 157.372 224.516 157.717 224.516ZM165.955 229.248C165.311 229.248 164.751 229.145 164.275 228.94C163.808 228.744 163.425 228.487 163.127 228.17C162.828 227.853 162.618 227.521 162.497 227.176L164.219 226.476C164.368 226.821 164.592 227.097 164.891 227.302C165.199 227.517 165.553 227.624 165.955 227.624C166.524 227.624 166.981 227.447 167.327 227.092C167.672 226.747 167.845 226.243 167.845 225.58V225.02H167.733C167.509 225.337 167.215 225.58 166.851 225.748C166.487 225.916 166.071 226 165.605 226C165.026 226 164.48 225.851 163.967 225.552C163.463 225.253 163.052 224.829 162.735 224.278C162.427 223.727 162.273 223.074 162.273 222.318C162.273 221.553 162.427 220.899 162.735 220.358C163.052 219.807 163.463 219.383 163.967 219.084C164.48 218.785 165.026 218.636 165.605 218.636C166.071 218.636 166.487 218.72 166.851 218.888C167.215 219.047 167.509 219.289 167.733 219.616H167.845V218.86H169.609V225.51C169.609 226.275 169.459 226.938 169.161 227.498C168.862 228.058 168.437 228.487 167.887 228.786C167.345 229.094 166.701 229.248 165.955 229.248ZM165.983 224.334C166.309 224.334 166.613 224.259 166.893 224.11C167.182 223.951 167.411 223.723 167.579 223.424C167.756 223.116 167.845 222.747 167.845 222.318C167.845 221.87 167.756 221.497 167.579 221.198C167.411 220.899 167.182 220.675 166.893 220.526C166.613 220.377 166.309 220.302 165.983 220.302C165.656 220.302 165.348 220.377 165.059 220.526C164.769 220.675 164.536 220.899 164.359 221.198C164.191 221.497 164.107 221.87 164.107 222.318C164.107 222.757 164.191 223.13 164.359 223.438C164.536 223.737 164.769 223.961 165.059 224.11C165.348 224.259 165.656 224.334 165.983 224.334ZM171.165 226V215.976H172.999V226H171.165ZM177.829 226.224C177.11 226.224 176.466 226.061 175.897 225.734C175.337 225.407 174.894 224.959 174.567 224.39C174.25 223.821 174.091 223.172 174.091 222.444C174.091 221.763 174.25 221.133 174.567 220.554C174.884 219.975 175.318 219.513 175.869 219.168C176.42 218.813 177.05 218.636 177.759 218.636C178.524 218.636 179.168 218.799 179.691 219.126C180.214 219.453 180.61 219.891 180.881 220.442C181.152 220.983 181.287 221.585 181.287 222.248C181.287 222.397 181.282 222.528 181.273 222.64C181.264 222.743 181.254 222.817 181.245 222.864H175.897C175.934 223.135 176.009 223.373 176.121 223.578C176.298 223.914 176.536 224.171 176.835 224.348C177.143 224.516 177.484 224.6 177.857 224.6C178.296 224.6 178.664 224.507 178.963 224.32C179.262 224.124 179.495 223.881 179.663 223.592L181.147 224.32C180.811 224.908 180.372 225.375 179.831 225.72C179.29 226.056 178.622 226.224 177.829 226.224ZM175.967 221.562H179.523C179.514 221.403 179.467 221.24 179.383 221.072C179.299 220.904 179.182 220.75 179.033 220.61C178.884 220.47 178.702 220.358 178.487 220.274C178.282 220.181 178.044 220.134 177.773 220.134C177.418 220.134 177.092 220.227 176.793 220.414C176.504 220.601 176.275 220.857 176.107 221.184C176.051 221.305 176.004 221.431 175.967 221.562ZM186.922 226L184.262 215.976H186.362L187.734 221.604L187.902 222.654H188.014L188.238 221.604L190.002 215.976H191.864L193.586 221.604L193.81 222.626H193.922L194.09 221.604L195.448 215.976H197.548L194.958 226H192.928L191.22 219.952L190.996 218.874H190.884L190.66 219.952L188.868 226H186.922ZM201.047 226.224C200.301 226.224 199.638 226.061 199.059 225.734C198.49 225.398 198.042 224.945 197.715 224.376C197.398 223.797 197.239 223.149 197.239 222.43C197.239 221.711 197.398 221.067 197.715 220.498C198.042 219.919 198.49 219.467 199.059 219.14C199.638 218.804 200.301 218.636 201.047 218.636C201.794 218.636 202.452 218.804 203.021 219.14C203.591 219.476 204.034 219.929 204.351 220.498C204.678 221.067 204.841 221.711 204.841 222.43C204.841 223.149 204.678 223.797 204.351 224.376C204.034 224.945 203.591 225.398 203.021 225.734C202.452 226.061 201.794 226.224 201.047 226.224ZM201.047 224.516C201.402 224.516 201.724 224.437 202.013 224.278C202.312 224.11 202.55 223.872 202.727 223.564C202.914 223.247 203.007 222.869 203.007 222.43C203.007 221.991 202.914 221.618 202.727 221.31C202.55 221.002 202.312 220.764 202.013 220.596C201.724 220.428 201.407 220.344 201.061 220.344C200.707 220.344 200.375 220.428 200.067 220.596C199.769 220.764 199.526 221.002 199.339 221.31C199.162 221.618 199.073 221.991 199.073 222.43C199.073 222.869 199.162 223.247 199.339 223.564C199.526 223.872 199.769 224.11 200.067 224.278C200.375 224.437 200.702 224.516 201.047 224.516ZM205.858 226V218.86H207.58V219.812H207.692C207.813 219.588 207.972 219.392 208.168 219.224C208.373 219.047 208.611 218.907 208.882 218.804C209.153 218.701 209.442 218.65 209.75 218.65C209.937 218.65 210.105 218.664 210.254 218.692C210.403 218.72 210.534 218.757 210.646 218.804V220.638C210.45 220.563 210.254 220.503 210.058 220.456C209.871 220.4 209.671 220.372 209.456 220.372C209.092 220.372 208.775 220.465 208.504 220.652C208.243 220.829 208.042 221.077 207.902 221.394C207.762 221.702 207.692 222.052 207.692 222.444V226H205.858ZM211.651 226V215.976H213.485V221.492L216.145 218.86H218.399V218.972L215.697 221.618L218.525 225.888V226H216.355L214.395 222.878L213.485 223.76V226H211.651ZM221.8 226.224C221.184 226.224 220.657 226.135 220.218 225.958C219.789 225.781 219.439 225.547 219.168 225.258C218.898 224.969 218.697 224.651 218.566 224.306L220.204 223.592C220.363 223.928 220.578 224.185 220.848 224.362C221.119 224.53 221.436 224.614 221.8 224.614C222.099 224.614 222.37 224.567 222.612 224.474C222.855 224.371 222.976 224.189 222.976 223.928C222.976 223.741 222.911 223.597 222.78 223.494C222.659 223.382 222.505 223.298 222.318 223.242C222.132 223.177 221.94 223.125 221.744 223.088L220.904 222.906C220.559 222.831 220.232 222.701 219.924 222.514C219.616 222.318 219.364 222.075 219.168 221.786C218.982 221.487 218.888 221.147 218.888 220.764C218.888 220.335 219.01 219.961 219.252 219.644C219.504 219.327 219.84 219.079 220.26 218.902C220.69 218.725 221.161 218.636 221.674 218.636C222.15 218.636 222.58 218.692 222.962 218.804C223.345 218.916 223.676 219.089 223.956 219.322C224.236 219.546 224.46 219.835 224.628 220.19L223.06 220.876C222.911 220.596 222.715 220.4 222.472 220.288C222.239 220.176 221.987 220.12 221.716 220.12C221.399 220.12 221.147 220.181 220.96 220.302C220.774 220.423 220.68 220.568 220.68 220.736C220.68 220.913 220.774 221.067 220.96 221.198C221.147 221.329 221.371 221.427 221.632 221.492L222.682 221.744C223.392 221.912 223.924 222.183 224.278 222.556C224.642 222.929 224.824 223.377 224.824 223.9C224.824 224.367 224.689 224.777 224.418 225.132C224.148 225.477 223.784 225.748 223.326 225.944C222.869 226.131 222.36 226.224 221.8 226.224ZM225.778 229.024V218.86H227.5V219.728H227.612C227.734 219.541 227.892 219.364 228.088 219.196C228.294 219.028 228.536 218.893 228.816 218.79C229.096 218.687 229.409 218.636 229.754 218.636C230.408 218.636 230.991 218.799 231.504 219.126C232.027 219.443 232.438 219.887 232.736 220.456C233.044 221.025 233.198 221.683 233.198 222.43C233.198 223.177 233.044 223.835 232.736 224.404C232.438 224.973 232.027 225.421 231.504 225.748C230.991 226.065 230.408 226.224 229.754 226.224C229.241 226.224 228.798 226.117 228.424 225.902C228.06 225.678 227.79 225.426 227.612 225.146H227.5L227.612 226.154V229.024H225.778ZM229.432 224.53C229.778 224.53 230.095 224.446 230.384 224.278C230.683 224.101 230.921 223.853 231.098 223.536C231.285 223.219 231.378 222.85 231.378 222.43C231.378 222.001 231.285 221.632 231.098 221.324C230.921 221.016 230.683 220.778 230.384 220.61C230.095 220.433 229.778 220.344 229.432 220.344C229.096 220.344 228.779 220.433 228.48 220.61C228.191 220.778 227.953 221.021 227.766 221.338C227.589 221.646 227.5 222.01 227.5 222.43C227.5 222.85 227.589 223.219 227.766 223.536C227.953 223.844 228.191 224.087 228.48 224.264C228.779 224.441 229.096 224.53 229.432 224.53ZM236.546 226.224C236.042 226.224 235.594 226.126 235.202 225.93C234.819 225.725 234.516 225.44 234.292 225.076C234.068 224.712 233.956 224.292 233.956 223.816C233.956 223.321 234.082 222.897 234.334 222.542C234.595 222.187 234.94 221.912 235.37 221.716C235.808 221.52 236.294 221.422 236.826 221.422C237.115 221.422 237.376 221.441 237.61 221.478C237.852 221.506 238.067 221.543 238.254 221.59C238.44 221.637 238.594 221.688 238.716 221.744V221.436C238.716 221.053 238.571 220.741 238.282 220.498C237.992 220.246 237.596 220.12 237.092 220.12C236.756 220.12 236.429 220.199 236.112 220.358C235.804 220.507 235.547 220.708 235.342 220.96L234.166 220.036C234.399 219.737 234.67 219.485 234.978 219.28C235.286 219.065 235.626 218.907 236 218.804C236.373 218.692 236.765 218.636 237.176 218.636C238.268 218.636 239.098 218.888 239.668 219.392C240.237 219.896 240.522 220.633 240.522 221.604V226H238.716V225.272H238.604C238.473 225.44 238.31 225.599 238.114 225.748C237.918 225.888 237.689 226 237.428 226.084C237.166 226.177 236.872 226.224 236.546 226.224ZM236.98 224.796C237.353 224.796 237.666 224.717 237.918 224.558C238.179 224.39 238.375 224.175 238.506 223.914C238.646 223.653 238.716 223.377 238.716 223.088C238.51 222.985 238.277 222.906 238.016 222.85C237.754 222.785 237.488 222.752 237.218 222.752C236.676 222.752 236.303 222.855 236.098 223.06C235.892 223.265 235.79 223.517 235.79 223.816C235.79 224.096 235.888 224.329 236.084 224.516C236.289 224.703 236.588 224.796 236.98 224.796ZM245.251 226.224C244.523 226.224 243.874 226.065 243.305 225.748C242.745 225.421 242.302 224.973 241.975 224.404C241.658 223.825 241.499 223.167 241.499 222.43C241.499 221.693 241.658 221.039 241.975 220.47C242.302 219.901 242.745 219.453 243.305 219.126C243.874 218.799 244.523 218.636 245.251 218.636C246.044 218.636 246.726 218.804 247.295 219.14C247.864 219.476 248.275 219.961 248.527 220.596L246.847 221.296C246.698 220.969 246.488 220.731 246.217 220.582C245.946 220.423 245.624 220.344 245.251 220.344C244.887 220.344 244.56 220.433 244.271 220.61C243.982 220.778 243.753 221.016 243.585 221.324C243.417 221.632 243.333 222.001 243.333 222.43C243.333 222.859 243.417 223.233 243.585 223.55C243.753 223.858 243.982 224.101 244.271 224.278C244.56 224.446 244.887 224.53 245.251 224.53C245.662 224.53 246.002 224.441 246.273 224.264C246.544 224.077 246.763 223.825 246.931 223.508L248.569 224.236C248.289 224.833 247.864 225.314 247.295 225.678C246.726 226.042 246.044 226.224 245.251 226.224ZM252.944 226.224C252.225 226.224 251.581 226.061 251.012 225.734C250.452 225.407 250.009 224.959 249.682 224.39C249.365 223.821 249.206 223.172 249.206 222.444C249.206 221.763 249.365 221.133 249.682 220.554C249.999 219.975 250.433 219.513 250.984 219.168C251.535 218.813 252.165 218.636 252.874 218.636C253.639 218.636 254.283 218.799 254.806 219.126C255.329 219.453 255.725 219.891 255.996 220.442C256.267 220.983 256.402 221.585 256.402 222.248C256.402 222.397 256.397 222.528 256.388 222.64C256.379 222.743 256.369 222.817 256.36 222.864H251.012C251.049 223.135 251.124 223.373 251.236 223.578C251.413 223.914 251.651 224.171 251.95 224.348C252.258 224.516 252.599 224.6 252.972 224.6C253.411 224.6 253.779 224.507 254.078 224.32C254.377 224.124 254.61 223.881 254.778 223.592L256.262 224.32C255.926 224.908 255.487 225.375 254.946 225.72C254.405 226.056 253.737 226.224 252.944 226.224ZM251.082 221.562H254.638C254.629 221.403 254.582 221.24 254.498 221.072C254.414 220.904 254.297 220.75 254.148 220.61C253.999 220.47 253.817 220.358 253.602 220.274C253.397 220.181 253.159 220.134 252.888 220.134C252.533 220.134 252.207 220.227 251.908 220.414C251.619 220.601 251.39 220.857 251.222 221.184C251.166 221.305 251.119 221.431 251.082 221.562ZM186.3 241.224C185.796 241.224 185.348 241.126 184.956 240.93C184.573 240.725 184.27 240.44 184.046 240.076C183.822 239.712 183.71 239.292 183.71 238.816C183.71 238.321 183.836 237.897 184.088 237.542C184.349 237.187 184.694 236.912 185.124 236.716C185.562 236.52 186.048 236.422 186.58 236.422C186.869 236.422 187.13 236.441 187.364 236.478C187.606 236.506 187.821 236.543 188.008 236.59C188.194 236.637 188.348 236.688 188.47 236.744V236.436C188.47 236.053 188.325 235.741 188.036 235.498C187.746 235.246 187.35 235.12 186.846 235.12C186.51 235.12 186.183 235.199 185.866 235.358C185.558 235.507 185.301 235.708 185.096 235.96L183.92 235.036C184.153 234.737 184.424 234.485 184.732 234.28C185.04 234.065 185.38 233.907 185.754 233.804C186.127 233.692 186.519 233.636 186.93 233.636C188.022 233.636 188.852 233.888 189.422 234.392C189.991 234.896 190.276 235.633 190.276 236.604V241H188.47V240.272H188.358C188.227 240.44 188.064 240.599 187.868 240.748C187.672 240.888 187.443 241 187.182 241.084C186.92 241.177 186.626 241.224 186.3 241.224ZM186.734 239.796C187.107 239.796 187.42 239.717 187.672 239.558C187.933 239.39 188.129 239.175 188.26 238.914C188.4 238.653 188.47 238.377 188.47 238.088C188.264 237.985 188.031 237.906 187.77 237.85C187.508 237.785 187.242 237.752 186.972 237.752C186.43 237.752 186.057 237.855 185.852 238.06C185.646 238.265 185.544 238.517 185.544 238.816C185.544 239.096 185.642 239.329 185.838 239.516C186.043 239.703 186.342 239.796 186.734 239.796ZM191.713 241V233.86H193.435V234.756H193.547C193.762 234.411 194.065 234.14 194.457 233.944C194.849 233.739 195.274 233.636 195.731 233.636C196.609 233.636 197.267 233.902 197.705 234.434C198.144 234.966 198.363 235.675 198.363 236.562V241H196.529V236.786C196.529 236.319 196.408 235.965 196.165 235.722C195.932 235.47 195.61 235.344 195.199 235.344C194.863 235.344 194.569 235.437 194.317 235.624C194.075 235.801 193.883 236.044 193.743 236.352C193.613 236.651 193.547 236.987 193.547 237.36V241H191.713ZM202.91 241.224C202.257 241.224 201.669 241.065 201.146 240.748C200.624 240.421 200.208 239.973 199.9 239.404C199.602 238.835 199.452 238.177 199.452 237.43C199.452 236.683 199.602 236.025 199.9 235.456C200.208 234.887 200.624 234.443 201.146 234.126C201.669 233.799 202.257 233.636 202.91 233.636C203.256 233.636 203.568 233.687 203.848 233.79C204.128 233.893 204.371 234.028 204.576 234.196C204.782 234.364 204.94 234.541 205.052 234.728H205.164L205.052 233.72V230.976H206.872V241H205.164V240.146H205.052C204.94 240.333 204.782 240.51 204.576 240.678C204.371 240.837 204.128 240.967 203.848 241.07C203.568 241.173 203.256 241.224 202.91 241.224ZM203.218 239.53C203.564 239.53 203.881 239.441 204.17 239.264C204.469 239.087 204.707 238.844 204.884 238.536C205.071 238.219 205.164 237.85 205.164 237.43C205.164 237.01 205.071 236.646 204.884 236.338C204.707 236.021 204.469 235.778 204.17 235.61C203.881 235.433 203.564 235.344 203.218 235.344C202.882 235.344 202.565 235.433 202.266 235.61C201.977 235.778 201.739 236.016 201.552 236.324C201.375 236.632 201.286 237.001 201.286 237.43C201.286 237.85 201.375 238.219 201.552 238.536C201.739 238.853 201.977 239.101 202.266 239.278C202.565 239.446 202.882 239.53 203.218 239.53ZM148.69 256.224C147.971 256.224 147.29 256.093 146.646 255.832C146.011 255.571 145.447 255.207 144.952 254.74C144.467 254.273 144.084 253.723 143.804 253.088C143.533 252.444 143.398 251.744 143.398 250.988C143.398 250.232 143.533 249.537 143.804 248.902C144.084 248.258 144.467 247.703 144.952 247.236C145.437 246.769 145.997 246.405 146.632 246.144C147.276 245.883 147.962 245.752 148.69 245.752C149.493 245.752 150.216 245.892 150.86 246.172C151.504 246.452 152.055 246.839 152.512 247.334L151.21 248.608C150.995 248.375 150.762 248.183 150.51 248.034C150.258 247.875 149.983 247.754 149.684 247.67C149.385 247.586 149.049 247.544 148.676 247.544C148.219 247.544 147.785 247.628 147.374 247.796C146.973 247.955 146.613 248.188 146.296 248.496C145.988 248.795 145.745 249.154 145.568 249.574C145.391 249.994 145.302 250.465 145.302 250.988C145.302 251.511 145.391 251.982 145.568 252.402C145.745 252.822 145.988 253.186 146.296 253.494C146.613 253.793 146.977 254.026 147.388 254.194C147.799 254.353 148.237 254.432 148.704 254.432C149.171 254.432 149.586 254.367 149.95 254.236C150.314 254.105 150.622 253.928 150.874 253.704C151.135 253.48 151.341 253.233 151.49 252.962C151.649 252.682 151.751 252.397 151.798 252.108H148.648V250.498H153.562C153.59 250.591 153.613 250.731 153.632 250.918C153.651 251.105 153.66 251.259 153.66 251.38C153.66 252.117 153.534 252.785 153.282 253.382C153.039 253.979 152.694 254.493 152.246 254.922C151.807 255.342 151.285 255.664 150.678 255.888C150.071 256.112 149.409 256.224 148.69 256.224ZM158.027 256.224C157.28 256.224 156.618 256.061 156.039 255.734C155.47 255.398 155.022 254.945 154.695 254.376C154.378 253.797 154.219 253.149 154.219 252.43C154.219 251.711 154.378 251.067 154.695 250.498C155.022 249.919 155.47 249.467 156.039 249.14C156.618 248.804 157.28 248.636 158.027 248.636C158.774 248.636 159.432 248.804 160.001 249.14C160.57 249.476 161.014 249.929 161.331 250.498C161.658 251.067 161.821 251.711 161.821 252.43C161.821 253.149 161.658 253.797 161.331 254.376C161.014 254.945 160.57 255.398 160.001 255.734C159.432 256.061 158.774 256.224 158.027 256.224ZM158.027 254.516C158.382 254.516 158.704 254.437 158.993 254.278C159.292 254.11 159.53 253.872 159.707 253.564C159.894 253.247 159.987 252.869 159.987 252.43C159.987 251.991 159.894 251.618 159.707 251.31C159.53 251.002 159.292 250.764 158.993 250.596C158.704 250.428 158.386 250.344 158.041 250.344C157.686 250.344 157.355 250.428 157.047 250.596C156.748 250.764 156.506 251.002 156.319 251.31C156.142 251.618 156.053 251.991 156.053 252.43C156.053 252.869 156.142 253.247 156.319 253.564C156.506 253.872 156.748 254.11 157.047 254.278C157.355 254.437 157.682 254.516 158.027 254.516ZM166.39 256.224C165.643 256.224 164.981 256.061 164.402 255.734C163.833 255.398 163.385 254.945 163.058 254.376C162.741 253.797 162.582 253.149 162.582 252.43C162.582 251.711 162.741 251.067 163.058 250.498C163.385 249.919 163.833 249.467 164.402 249.14C164.981 248.804 165.643 248.636 166.39 248.636C167.137 248.636 167.795 248.804 168.364 249.14C168.933 249.476 169.377 249.929 169.694 250.498C170.021 251.067 170.184 251.711 170.184 252.43C170.184 253.149 170.021 253.797 169.694 254.376C169.377 254.945 168.933 255.398 168.364 255.734C167.795 256.061 167.137 256.224 166.39 256.224ZM166.39 254.516C166.745 254.516 167.067 254.437 167.356 254.278C167.655 254.11 167.893 253.872 168.07 253.564C168.257 253.247 168.35 252.869 168.35 252.43C168.35 251.991 168.257 251.618 168.07 251.31C167.893 251.002 167.655 250.764 167.356 250.596C167.067 250.428 166.749 250.344 166.404 250.344C166.049 250.344 165.718 250.428 165.41 250.596C165.111 250.764 164.869 251.002 164.682 251.31C164.505 251.618 164.416 251.991 164.416 252.43C164.416 252.869 164.505 253.247 164.682 253.564C164.869 253.872 165.111 254.11 165.41 254.278C165.718 254.437 166.045 254.516 166.39 254.516ZM174.627 259.248C173.983 259.248 173.423 259.145 172.947 258.94C172.481 258.744 172.098 258.487 171.799 258.17C171.501 257.853 171.291 257.521 171.169 257.176L172.891 256.476C173.041 256.821 173.265 257.097 173.563 257.302C173.871 257.517 174.226 257.624 174.627 257.624C175.197 257.624 175.654 257.447 175.999 257.092C176.345 256.747 176.517 256.243 176.517 255.58V255.02H176.405C176.181 255.337 175.887 255.58 175.523 255.748C175.159 255.916 174.744 256 174.277 256C173.699 256 173.153 255.851 172.639 255.552C172.135 255.253 171.725 254.829 171.407 254.278C171.099 253.727 170.945 253.074 170.945 252.318C170.945 251.553 171.099 250.899 171.407 250.358C171.725 249.807 172.135 249.383 172.639 249.084C173.153 248.785 173.699 248.636 174.277 248.636C174.744 248.636 175.159 248.72 175.523 248.888C175.887 249.047 176.181 249.289 176.405 249.616H176.517V248.86H178.281V255.51C178.281 256.275 178.132 256.938 177.833 257.498C177.535 258.058 177.11 258.487 176.559 258.786C176.018 259.094 175.374 259.248 174.627 259.248ZM174.655 254.334C174.982 254.334 175.285 254.259 175.565 254.11C175.855 253.951 176.083 253.723 176.251 253.424C176.429 253.116 176.517 252.747 176.517 252.318C176.517 251.87 176.429 251.497 176.251 251.198C176.083 250.899 175.855 250.675 175.565 250.526C175.285 250.377 174.982 250.302 174.655 250.302C174.329 250.302 174.021 250.377 173.731 250.526C173.442 250.675 173.209 250.899 173.031 251.198C172.863 251.497 172.779 251.87 172.779 252.318C172.779 252.757 172.863 253.13 173.031 253.438C173.209 253.737 173.442 253.961 173.731 254.11C174.021 254.259 174.329 254.334 174.655 254.334ZM179.838 256V245.976H181.672V256H179.838ZM186.502 256.224C185.783 256.224 185.139 256.061 184.57 255.734C184.01 255.407 183.566 254.959 183.24 254.39C182.922 253.821 182.764 253.172 182.764 252.444C182.764 251.763 182.922 251.133 183.24 250.554C183.557 249.975 183.991 249.513 184.542 249.168C185.092 248.813 185.722 248.636 186.432 248.636C187.197 248.636 187.841 248.799 188.364 249.126C188.886 249.453 189.283 249.891 189.554 250.442C189.824 250.983 189.96 251.585 189.96 252.248C189.96 252.397 189.955 252.528 189.946 252.64C189.936 252.743 189.927 252.817 189.918 252.864H184.57C184.607 253.135 184.682 253.373 184.794 253.578C184.971 253.914 185.209 254.171 185.508 254.348C185.816 254.516 186.156 254.6 186.53 254.6C186.968 254.6 187.337 254.507 187.636 254.32C187.934 254.124 188.168 253.881 188.336 253.592L189.82 254.32C189.484 254.908 189.045 255.375 188.504 255.72C187.962 256.056 187.295 256.224 186.502 256.224ZM184.64 251.562H188.196C188.186 251.403 188.14 251.24 188.056 251.072C187.972 250.904 187.855 250.75 187.706 250.61C187.556 250.47 187.374 250.358 187.16 250.274C186.954 250.181 186.716 250.134 186.446 250.134C186.091 250.134 185.764 250.227 185.466 250.414C185.176 250.601 184.948 250.857 184.78 251.184C184.724 251.305 184.677 251.431 184.64 251.562ZM196.87 256.224C196.254 256.224 195.726 256.135 195.288 255.958C194.858 255.781 194.508 255.547 194.238 255.258C193.967 254.969 193.766 254.651 193.636 254.306L195.274 253.592C195.432 253.928 195.647 254.185 195.918 254.362C196.188 254.53 196.506 254.614 196.87 254.614C197.168 254.614 197.439 254.567 197.682 254.474C197.924 254.371 198.046 254.189 198.046 253.928C198.046 253.741 197.98 253.597 197.85 253.494C197.728 253.382 197.574 253.298 197.388 253.242C197.201 253.177 197.01 253.125 196.814 253.088L195.974 252.906C195.628 252.831 195.302 252.701 194.994 252.514C194.686 252.318 194.434 252.075 194.238 251.786C194.051 251.487 193.958 251.147 193.958 250.764C193.958 250.335 194.079 249.961 194.322 249.644C194.574 249.327 194.91 249.079 195.33 248.902C195.759 248.725 196.23 248.636 196.744 248.636C197.22 248.636 197.649 248.692 198.032 248.804C198.414 248.916 198.746 249.089 199.026 249.322C199.306 249.546 199.53 249.835 199.698 250.19L198.13 250.876C197.98 250.596 197.784 250.4 197.542 250.288C197.308 250.176 197.056 250.12 196.786 250.12C196.468 250.12 196.216 250.181 196.03 250.302C195.843 250.423 195.75 250.568 195.75 250.736C195.75 250.913 195.843 251.067 196.03 251.198C196.216 251.329 196.44 251.427 196.702 251.492L197.752 251.744C198.461 251.912 198.993 252.183 199.348 252.556C199.712 252.929 199.894 253.377 199.894 253.9C199.894 254.367 199.758 254.777 199.488 255.132C199.217 255.477 198.853 255.748 198.396 255.944C197.938 256.131 197.43 256.224 196.87 256.224ZM204.387 256.224C203.668 256.224 203.024 256.061 202.455 255.734C201.895 255.407 201.451 254.959 201.125 254.39C200.807 253.821 200.649 253.172 200.649 252.444C200.649 251.763 200.807 251.133 201.125 250.554C201.442 249.975 201.876 249.513 202.427 249.168C202.977 248.813 203.607 248.636 204.317 248.636C205.082 248.636 205.726 248.799 206.249 249.126C206.771 249.453 207.168 249.891 207.439 250.442C207.709 250.983 207.845 251.585 207.845 252.248C207.845 252.397 207.84 252.528 207.831 252.64C207.821 252.743 207.812 252.817 207.803 252.864H202.455C202.492 253.135 202.567 253.373 202.679 253.578C202.856 253.914 203.094 254.171 203.393 254.348C203.701 254.516 204.041 254.6 204.415 254.6C204.853 254.6 205.222 254.507 205.521 254.32C205.819 254.124 206.053 253.881 206.221 253.592L207.705 254.32C207.369 254.908 206.93 255.375 206.389 255.72C205.847 256.056 205.18 256.224 204.387 256.224ZM202.525 251.562H206.081C206.071 251.403 206.025 251.24 205.941 251.072C205.857 250.904 205.74 250.75 205.591 250.61C205.441 250.47 205.259 250.358 205.045 250.274C204.839 250.181 204.601 250.134 204.331 250.134C203.976 250.134 203.649 250.227 203.351 250.414C203.061 250.601 202.833 250.857 202.665 251.184C202.609 251.305 202.562 251.431 202.525 251.562ZM209.007 256V248.86H210.729V249.812H210.841C210.963 249.588 211.121 249.392 211.317 249.224C211.523 249.047 211.761 248.907 212.031 248.804C212.302 248.701 212.591 248.65 212.899 248.65C213.086 248.65 213.254 248.664 213.403 248.692C213.553 248.72 213.683 248.757 213.795 248.804V250.638C213.599 250.563 213.403 250.503 213.207 250.456C213.021 250.4 212.82 250.372 212.605 250.372C212.241 250.372 211.924 250.465 211.653 250.652C211.392 250.829 211.191 251.077 211.051 251.394C210.911 251.702 210.841 252.052 210.841 252.444V256H209.007ZM217.177 256L214.153 248.86H216.239L218.045 253.508H218.157L219.991 248.86H222.049L218.997 256H217.177ZM222.906 256V248.86H224.74V256H222.906ZM223.83 248.076C223.504 248.076 223.224 247.959 222.99 247.726C222.757 247.493 222.64 247.213 222.64 246.886C222.64 246.559 222.757 246.284 222.99 246.06C223.224 245.827 223.504 245.71 223.83 245.71C224.157 245.71 224.432 245.827 224.656 246.06C224.89 246.284 225.006 246.559 225.006 246.886C225.006 247.213 224.89 247.493 224.656 247.726C224.432 247.959 224.157 248.076 223.83 248.076ZM229.692 256.224C228.964 256.224 228.315 256.065 227.746 255.748C227.186 255.421 226.742 254.973 226.416 254.404C226.098 253.825 225.94 253.167 225.94 252.43C225.94 251.693 226.098 251.039 226.416 250.47C226.742 249.901 227.186 249.453 227.746 249.126C228.315 248.799 228.964 248.636 229.692 248.636C230.485 248.636 231.166 248.804 231.736 249.14C232.305 249.476 232.716 249.961 232.968 250.596L231.288 251.296C231.138 250.969 230.928 250.731 230.658 250.582C230.387 250.423 230.065 250.344 229.692 250.344C229.328 250.344 229.001 250.433 228.712 250.61C228.422 250.778 228.194 251.016 228.026 251.324C227.858 251.632 227.774 252.001 227.774 252.43C227.774 252.859 227.858 253.233 228.026 253.55C228.194 253.858 228.422 254.101 228.712 254.278C229.001 254.446 229.328 254.53 229.692 254.53C230.102 254.53 230.443 254.441 230.714 254.264C230.984 254.077 231.204 253.825 231.372 253.508L233.01 254.236C232.73 254.833 232.305 255.314 231.736 255.678C231.166 256.042 230.485 256.224 229.692 256.224ZM237.385 256.224C236.666 256.224 236.022 256.061 235.453 255.734C234.893 255.407 234.449 254.959 234.123 254.39C233.805 253.821 233.647 253.172 233.647 252.444C233.647 251.763 233.805 251.133 234.123 250.554C234.44 249.975 234.874 249.513 235.425 249.168C235.975 248.813 236.605 248.636 237.315 248.636C238.08 248.636 238.724 248.799 239.247 249.126C239.769 249.453 240.166 249.891 240.437 250.442C240.707 250.983 240.843 251.585 240.843 252.248C240.843 252.397 240.838 252.528 240.829 252.64C240.819 252.743 240.81 252.817 240.801 252.864H235.453C235.49 253.135 235.565 253.373 235.677 253.578C235.854 253.914 236.092 254.171 236.391 254.348C236.699 254.516 237.039 254.6 237.413 254.6C237.851 254.6 238.22 254.507 238.519 254.32C238.817 254.124 239.051 253.881 239.219 253.592L240.703 254.32C240.367 254.908 239.928 255.375 239.387 255.72C238.845 256.056 238.178 256.224 237.385 256.224ZM235.523 251.562H239.079C239.069 251.403 239.023 251.24 238.939 251.072C238.855 250.904 238.738 250.75 238.589 250.61C238.439 250.47 238.257 250.358 238.043 250.274C237.837 250.181 237.599 250.134 237.329 250.134C236.974 250.134 236.647 250.227 236.349 250.414C236.059 250.601 235.831 250.857 235.663 251.184C235.607 251.305 235.56 251.431 235.523 251.562ZM244.79 256.224C244.174 256.224 243.646 256.135 243.208 255.958C242.778 255.781 242.428 255.547 242.158 255.258C241.887 254.969 241.686 254.651 241.556 254.306L243.194 253.592C243.352 253.928 243.567 254.185 243.838 254.362C244.108 254.53 244.426 254.614 244.79 254.614C245.088 254.614 245.359 254.567 245.602 254.474C245.844 254.371 245.966 254.189 245.966 253.928C245.966 253.741 245.9 253.597 245.77 253.494C245.648 253.382 245.494 253.298 245.308 253.242C245.121 253.177 244.93 253.125 244.734 253.088L243.894 252.906C243.548 252.831 243.222 252.701 242.914 252.514C242.606 252.318 242.354 252.075 242.158 251.786C241.971 251.487 241.878 251.147 241.878 250.764C241.878 250.335 241.999 249.961 242.242 249.644C242.494 249.327 242.83 249.079 243.25 248.902C243.679 248.725 244.15 248.636 244.664 248.636C245.14 248.636 245.569 248.692 245.952 248.804C246.334 248.916 246.666 249.089 246.946 249.322C247.226 249.546 247.45 249.835 247.618 250.19L246.05 250.876C245.9 250.596 245.704 250.4 245.462 250.288C245.228 250.176 244.976 250.12 244.706 250.12C244.388 250.12 244.136 250.181 243.95 250.302C243.763 250.423 243.67 250.568 243.67 250.736C243.67 250.913 243.763 251.067 243.95 251.198C244.136 251.329 244.36 251.427 244.622 251.492L245.672 251.744C246.381 251.912 246.913 252.183 247.268 252.556C247.632 252.929 247.814 253.377 247.814 253.9C247.814 254.367 247.678 254.777 247.408 255.132C247.137 255.477 246.773 255.748 246.316 255.944C245.858 256.131 245.35 256.224 244.79 256.224Z" fill="#3C4043"/>
<path d="M299.623 162L303.107 152.692H305.122L308.619 162H306.682L305.902 159.777H302.34L301.56 162H299.623ZM305.33 158.165L304.511 155.825L304.173 154.707H304.069L303.731 155.825L302.912 158.165H305.33ZM309.328 164.808V155.37H310.927V156.176H311.031C311.144 156.003 311.291 155.838 311.473 155.682C311.664 155.526 311.889 155.4 312.149 155.305C312.409 155.21 312.7 155.162 313.02 155.162C313.627 155.162 314.169 155.314 314.645 155.617C315.131 155.912 315.512 156.323 315.789 156.852C316.075 157.381 316.218 157.992 316.218 158.685C316.218 159.378 316.075 159.989 315.789 160.518C315.512 161.047 315.131 161.463 314.645 161.766C314.169 162.061 313.627 162.208 313.02 162.208C312.544 162.208 312.132 162.108 311.785 161.909C311.447 161.701 311.196 161.467 311.031 161.207H310.927L311.031 162.143V164.808H309.328ZM312.721 160.635C313.042 160.635 313.337 160.557 313.605 160.401C313.883 160.236 314.104 160.007 314.268 159.712C314.442 159.417 314.528 159.075 314.528 158.685C314.528 158.286 314.442 157.944 314.268 157.658C314.104 157.372 313.883 157.151 313.605 156.995C313.337 156.83 313.042 156.748 312.721 156.748C312.409 156.748 312.115 156.83 311.837 156.995C311.569 157.151 311.348 157.376 311.174 157.671C311.01 157.957 310.927 158.295 310.927 158.685C310.927 159.075 311.01 159.417 311.174 159.712C311.348 159.998 311.569 160.223 311.837 160.388C312.115 160.553 312.409 160.635 312.721 160.635ZM317.027 164.808V155.37H318.626V156.176H318.73C318.842 156.003 318.99 155.838 319.172 155.682C319.362 155.526 319.588 155.4 319.848 155.305C320.108 155.21 320.398 155.162 320.719 155.162C321.325 155.162 321.867 155.314 322.344 155.617C322.829 155.912 323.21 156.323 323.488 156.852C323.774 157.381 323.917 157.992 323.917 158.685C323.917 159.378 323.774 159.989 323.488 160.518C323.21 161.047 322.829 161.463 322.344 161.766C321.867 162.061 321.325 162.208 320.719 162.208C320.242 162.208 319.83 162.108 319.484 161.909C319.146 161.701 318.894 161.467 318.73 161.207H318.626L318.73 162.143V164.808H317.027ZM320.42 160.635C320.74 160.635 321.035 160.557 321.304 160.401C321.581 160.236 321.802 160.007 321.967 159.712C322.14 159.417 322.227 159.075 322.227 158.685C322.227 158.286 322.14 157.944 321.967 157.658C321.802 157.372 321.581 157.151 321.304 156.995C321.035 156.83 320.74 156.748 320.42 156.748C320.108 156.748 319.813 156.83 319.536 156.995C319.267 157.151 319.046 157.376 318.873 157.671C318.708 157.957 318.626 158.295 318.626 158.685C318.626 159.075 318.708 159.417 318.873 159.712C319.046 159.998 319.267 160.223 319.536 160.388C319.813 160.553 320.108 160.635 320.42 160.635ZM327.363 162.208C326.791 162.208 326.301 162.126 325.894 161.961C325.495 161.796 325.17 161.58 324.919 161.311C324.667 161.042 324.481 160.748 324.36 160.427L325.881 159.764C326.028 160.076 326.227 160.314 326.479 160.479C326.73 160.635 327.025 160.713 327.363 160.713C327.64 160.713 327.891 160.67 328.117 160.583C328.342 160.488 328.455 160.319 328.455 160.076C328.455 159.903 328.394 159.768 328.273 159.673C328.16 159.569 328.017 159.491 327.844 159.439C327.67 159.378 327.493 159.331 327.311 159.296L326.531 159.127C326.21 159.058 325.907 158.936 325.621 158.763C325.335 158.581 325.101 158.356 324.919 158.087C324.745 157.81 324.659 157.493 324.659 157.138C324.659 156.739 324.771 156.393 324.997 156.098C325.231 155.803 325.543 155.574 325.933 155.409C326.331 155.244 326.769 155.162 327.246 155.162C327.688 155.162 328.086 155.214 328.442 155.318C328.797 155.422 329.105 155.582 329.365 155.799C329.625 156.007 329.833 156.276 329.989 156.605L328.533 157.242C328.394 156.982 328.212 156.8 327.987 156.696C327.77 156.592 327.536 156.54 327.285 156.54C326.99 156.54 326.756 156.596 326.583 156.709C326.409 156.822 326.323 156.956 326.323 157.112C326.323 157.277 326.409 157.42 326.583 157.541C326.756 157.662 326.964 157.753 327.207 157.814L328.182 158.048C328.84 158.204 329.334 158.455 329.664 158.802C330.002 159.149 330.171 159.565 330.171 160.05C330.171 160.483 330.045 160.865 329.794 161.194C329.542 161.515 329.204 161.766 328.78 161.948C328.355 162.121 327.883 162.208 327.363 162.208ZM300.936 176.208C300.407 176.208 299.909 176.108 299.441 175.909C298.981 175.71 298.578 175.415 298.232 175.025C297.894 174.626 297.638 174.141 297.465 173.569L299.116 172.919C299.237 173.378 299.449 173.764 299.753 174.076C300.056 174.388 300.455 174.544 300.949 174.544C301.191 174.544 301.421 174.505 301.638 174.427C301.854 174.34 302.028 174.215 302.158 174.05C302.296 173.885 302.366 173.682 302.366 173.439C302.366 173.205 302.309 173.006 302.197 172.841C302.084 172.668 301.893 172.507 301.625 172.36C301.365 172.204 301.009 172.044 300.559 171.879L299.987 171.671C299.735 171.576 299.48 171.459 299.22 171.32C298.968 171.173 298.734 170.995 298.518 170.787C298.31 170.57 298.141 170.323 298.011 170.046C297.881 169.769 297.816 169.452 297.816 169.097C297.816 168.612 297.941 168.174 298.193 167.784C298.444 167.385 298.795 167.069 299.246 166.835C299.696 166.601 300.221 166.484 300.819 166.484C301.443 166.484 301.958 166.592 302.366 166.809C302.773 167.017 303.089 167.273 303.315 167.576C303.549 167.879 303.713 168.174 303.809 168.46L302.262 169.11C302.21 168.937 302.123 168.772 302.002 168.616C301.88 168.46 301.724 168.334 301.534 168.239C301.343 168.144 301.113 168.096 300.845 168.096C300.593 168.096 300.368 168.139 300.169 168.226C299.969 168.304 299.813 168.417 299.701 168.564C299.588 168.703 299.532 168.867 299.532 169.058C299.532 169.335 299.649 169.574 299.883 169.773C300.125 169.972 300.511 170.159 301.04 170.332L301.625 170.527C301.954 170.64 302.266 170.774 302.561 170.93C302.864 171.077 303.133 171.264 303.367 171.489C303.601 171.714 303.783 171.983 303.913 172.295C304.051 172.607 304.121 172.98 304.121 173.413C304.121 173.89 304.025 174.306 303.835 174.661C303.644 175.016 303.393 175.307 303.081 175.532C302.769 175.757 302.422 175.926 302.041 176.039C301.668 176.152 301.3 176.208 300.936 176.208ZM308.344 176.208C307.668 176.208 307.065 176.061 306.537 175.766C306.017 175.463 305.605 175.047 305.302 174.518C305.007 173.981 304.86 173.37 304.86 172.685C304.86 172 305.007 171.394 305.302 170.865C305.605 170.336 306.017 169.92 306.537 169.617C307.065 169.314 307.668 169.162 308.344 169.162C309.08 169.162 309.713 169.318 310.242 169.63C310.77 169.942 311.152 170.393 311.386 170.982L309.826 171.632C309.687 171.329 309.492 171.108 309.241 170.969C308.989 170.822 308.69 170.748 308.344 170.748C308.006 170.748 307.702 170.83 307.434 170.995C307.165 171.151 306.953 171.372 306.797 171.658C306.641 171.944 306.563 172.286 306.563 172.685C306.563 173.084 306.641 173.43 306.797 173.725C306.953 174.011 307.165 174.236 307.434 174.401C307.702 174.557 308.006 174.635 308.344 174.635C308.725 174.635 309.041 174.553 309.293 174.388C309.544 174.215 309.748 173.981 309.904 173.686L311.425 174.362C311.165 174.917 310.77 175.363 310.242 175.701C309.713 176.039 309.08 176.208 308.344 176.208ZM312.287 176V169.37H313.886V170.254H313.99C314.103 170.046 314.25 169.864 314.432 169.708C314.623 169.543 314.844 169.413 315.095 169.318C315.347 169.223 315.615 169.175 315.901 169.175C316.075 169.175 316.231 169.188 316.369 169.214C316.508 169.24 316.629 169.275 316.733 169.318V171.021C316.551 170.952 316.369 170.895 316.187 170.852C316.014 170.8 315.828 170.774 315.628 170.774C315.29 170.774 314.996 170.861 314.744 171.034C314.502 171.199 314.315 171.428 314.185 171.723C314.055 172.009 313.99 172.334 313.99 172.698V176H312.287ZM317.614 176V169.37H319.317V176H317.614ZM318.472 168.642C318.169 168.642 317.909 168.534 317.692 168.317C317.476 168.1 317.367 167.84 317.367 167.537C317.367 167.234 317.476 166.978 317.692 166.77C317.909 166.553 318.169 166.445 318.472 166.445C318.776 166.445 319.031 166.553 319.239 166.77C319.456 166.978 319.564 167.234 319.564 167.537C319.564 167.84 319.456 168.1 319.239 168.317C319.031 168.534 318.776 168.642 318.472 168.642ZM320.713 178.808V169.37H322.312V170.176H322.416C322.529 170.003 322.676 169.838 322.858 169.682C323.049 169.526 323.274 169.4 323.534 169.305C323.794 169.21 324.085 169.162 324.405 169.162C325.012 169.162 325.554 169.314 326.03 169.617C326.516 169.912 326.897 170.323 327.174 170.852C327.46 171.381 327.603 171.992 327.603 172.685C327.603 173.378 327.46 173.989 327.174 174.518C326.897 175.047 326.516 175.463 326.03 175.766C325.554 176.061 325.012 176.208 324.405 176.208C323.929 176.208 323.517 176.108 323.17 175.909C322.832 175.701 322.581 175.467 322.416 175.207H322.312L322.416 176.143V178.808H320.713ZM324.106 174.635C324.427 174.635 324.722 174.557 324.99 174.401C325.268 174.236 325.489 174.007 325.653 173.712C325.827 173.417 325.913 173.075 325.913 172.685C325.913 172.286 325.827 171.944 325.653 171.658C325.489 171.372 325.268 171.151 324.99 170.995C324.722 170.83 324.427 170.748 324.106 170.748C323.794 170.748 323.5 170.83 323.222 170.995C322.954 171.151 322.733 171.376 322.559 171.671C322.395 171.957 322.312 172.295 322.312 172.685C322.312 173.075 322.395 173.417 322.559 173.712C322.733 173.998 322.954 174.223 323.222 174.388C323.5 174.553 323.794 174.635 324.106 174.635ZM327.869 169.37H329.026V167.498H330.729V169.37H332.354V170.826H330.729V173.569C330.729 173.872 330.794 174.106 330.924 174.271C331.054 174.427 331.271 174.505 331.574 174.505C331.747 174.505 331.89 174.479 332.003 174.427C332.124 174.375 332.259 174.306 332.406 174.219V175.883C332.224 175.952 332.033 176.004 331.834 176.039C331.643 176.082 331.44 176.104 331.223 176.104C330.538 176.104 330.001 175.909 329.611 175.519C329.221 175.12 329.026 174.574 329.026 173.881V170.826H327.869V169.37Z" fill="white"/>
<path d="M46.2086 132.224C45.4246 132.224 44.7386 132.056 44.1506 131.72C43.5719 131.384 43.1193 130.903 42.7926 130.278C42.4753 129.643 42.3166 128.887 42.3166 128.01V121.976H44.1926V128.122C44.1926 128.561 44.2673 128.957 44.4166 129.312C44.5659 129.657 44.7899 129.933 45.0886 130.138C45.3966 130.334 45.7699 130.432 46.2086 130.432C46.6566 130.432 47.0299 130.334 47.3286 130.138C47.6273 129.933 47.8513 129.657 48.0006 129.312C48.1499 128.957 48.2246 128.561 48.2246 128.122V121.976H50.1006V128.01C50.1006 128.841 49.9419 129.573 49.6246 130.208C49.3073 130.843 48.8593 131.337 48.2806 131.692C47.7019 132.047 47.0113 132.224 46.2086 132.224ZM54.4333 132.224C53.8173 132.224 53.29 132.135 52.8513 131.958C52.422 131.781 52.072 131.547 51.8013 131.258C51.5306 130.969 51.33 130.651 51.1993 130.306L52.8373 129.592C52.996 129.928 53.2106 130.185 53.4813 130.362C53.752 130.53 54.0693 130.614 54.4333 130.614C54.732 130.614 55.0026 130.567 55.2453 130.474C55.488 130.371 55.6093 130.189 55.6093 129.928C55.6093 129.741 55.544 129.597 55.4133 129.494C55.292 129.382 55.138 129.298 54.9513 129.242C54.7646 129.177 54.5733 129.125 54.3773 129.088L53.5373 128.906C53.192 128.831 52.8653 128.701 52.5573 128.514C52.2493 128.318 51.9973 128.075 51.8013 127.786C51.6146 127.487 51.5213 127.147 51.5213 126.764C51.5213 126.335 51.6426 125.961 51.8853 125.644C52.1373 125.327 52.4733 125.079 52.8933 124.902C53.3226 124.725 53.794 124.636 54.3073 124.636C54.7833 124.636 55.2126 124.692 55.5953 124.804C55.978 124.916 56.3093 125.089 56.5893 125.322C56.8693 125.546 57.0933 125.835 57.2613 126.19L55.6933 126.876C55.544 126.596 55.348 126.4 55.1053 126.288C54.872 126.176 54.62 126.12 54.3493 126.12C54.032 126.12 53.78 126.181 53.5933 126.302C53.4066 126.423 53.3133 126.568 53.3133 126.736C53.3133 126.913 53.4066 127.067 53.5933 127.198C53.78 127.329 54.004 127.427 54.2653 127.492L55.3153 127.744C56.0246 127.912 56.5566 128.183 56.9113 128.556C57.2753 128.929 57.4573 129.377 57.4573 129.9C57.4573 130.367 57.322 130.777 57.0513 131.132C56.7806 131.477 56.4166 131.748 55.9593 131.944C55.502 132.131 54.9933 132.224 54.4333 132.224ZM61.95 132.224C61.2313 132.224 60.5873 132.061 60.018 131.734C59.458 131.407 59.0147 130.959 58.688 130.39C58.3707 129.821 58.212 129.172 58.212 128.444C58.212 127.763 58.3707 127.133 58.688 126.554C59.0053 125.975 59.4393 125.513 59.99 125.168C60.5407 124.813 61.1707 124.636 61.88 124.636C62.6453 124.636 63.2893 124.799 63.812 125.126C64.3347 125.453 64.7313 125.891 65.002 126.442C65.2727 126.983 65.408 127.585 65.408 128.248C65.408 128.397 65.4033 128.528 65.394 128.64C65.3847 128.743 65.3753 128.817 65.366 128.864H60.018C60.0553 129.135 60.13 129.373 60.242 129.578C60.4193 129.914 60.6573 130.171 60.956 130.348C61.264 130.516 61.6047 130.6 61.978 130.6C62.4167 130.6 62.7853 130.507 63.084 130.32C63.3827 130.124 63.616 129.881 63.784 129.592L65.268 130.32C64.932 130.908 64.4933 131.375 63.952 131.72C63.4107 132.056 62.7433 132.224 61.95 132.224ZM60.088 127.562H63.644C63.6347 127.403 63.588 127.24 63.504 127.072C63.42 126.904 63.3033 126.75 63.154 126.61C63.0047 126.47 62.8227 126.358 62.608 126.274C62.4027 126.181 62.1647 126.134 61.894 126.134C61.5393 126.134 61.2127 126.227 60.914 126.414C60.6247 126.601 60.396 126.857 60.228 127.184C60.172 127.305 60.1253 127.431 60.088 127.562ZM66.5708 132V124.86H68.2928V125.812H68.4048C68.5261 125.588 68.6848 125.392 68.8808 125.224C69.0861 125.047 69.3241 124.907 69.5948 124.804C69.8655 124.701 70.1548 124.65 70.4628 124.65C70.6495 124.65 70.8175 124.664 70.9668 124.692C71.1161 124.72 71.2468 124.757 71.3588 124.804V126.638C71.1628 126.563 70.9668 126.503 70.7708 126.456C70.5841 126.4 70.3835 126.372 70.1688 126.372C69.8048 126.372 69.4875 126.465 69.2168 126.652C68.9555 126.829 68.7548 127.077 68.6148 127.394C68.4748 127.702 68.4048 128.052 68.4048 128.444V132H66.5708Z" fill="#3C4043"/>
<mask id="mask0_763_6930" style="mask-type:alpha" maskUnits="userSpaceOnUse" x="29" y="59" width="54" height="55">
<circle cx="26.893" cy="26.893" r="26.893" transform="matrix(-1 0 0 1 82.9146 59.5)" fill="#4285F4"/>
</mask>
<g mask="url(#mask0_763_6930)">
<circle cx="32.3939" cy="32.3939" r="32.3939" transform="matrix(-1 0 0 1 87.1929 55.2216)" fill="#4285F4"/>
<path fill-rule="evenodd" clip-rule="evenodd" d="M64.2581 87.584C57.971 94.4309 42.7668 109.248 36.2027 112.635C37.0736 107.786 27.1878 107.34 25.4517 102.721C24.0546 99.0048 30.3618 90.6613 33.2792 89.8429C39.821 88.0075 36.6787 80.8075 44.2335 79.3254C50.0176 78.1919 48.3047 69.8905 57.9472 69.8905C67.2043 69.8905 70.7467 80.5185 64.2581 87.584Z" fill="#3C4043"/>
<path fill-rule="evenodd" clip-rule="evenodd" d="M75.5142 101.608L67.0335 92.1495C67.0335 92.1495 61.1086 90.8789 60.6416 84.5728H55.1239C55.1239 84.5728 53.8347 91.0834 50.8244 92.3765L45.6639 107.032" fill="#FD8060"/>
<path d="M75.5142 101.608L67.0335 92.1495C67.0335 92.1495 61.1086 90.8789 60.6416 84.5728H55.1239C55.1239 84.5728 54.6412 92.436 47.9216 92.436L43.5268 105.072" stroke="#3C4043" stroke-width="0.519481" stroke-linecap="round" stroke-linejoin="round"/>
<path fill-rule="evenodd" clip-rule="evenodd" d="M72.6143 110.079L71.1171 96.3386C71.1171 96.3386 60.8293 101.233 46.7995 96.3386V110.079" fill="#3C4043"/>
<path d="M72.6143 110.079L71.1171 96.3386C71.1171 96.3386 60.8293 101.233 46.7995 96.3386V110.079" stroke="#3C4043" stroke-width="0.519481" stroke-linecap="round" stroke-linejoin="round"/>
<path fill-rule="evenodd" clip-rule="evenodd" d="M64.1551 91.0834C63.5414 93.4264 60.8787 98.5937 57.8976 103.962C54.8758 98.9676 52.2383 94.2042 51.669 91.9455C51.669 91.9455 30.612 99.1538 30.612 120.394L48.3131 120.395C48.2235 120.543 48.1761 120.621 48.1761 120.621L87.7397 120.234C87.7397 98.8656 64.1551 91.0834 64.1551 91.0834Z" fill="#D2E3FC"/>
<path d="M68.3799 101.066L63.7255 90.6524" stroke="#3C4043" stroke-linecap="round" stroke-linejoin="round"/>
<path fill-rule="evenodd" clip-rule="evenodd" d="M53.9168 87.385C53.9168 87.385 59.2258 91.7136 64.2593 90.8961C64.2593 90.8961 61.6235 89.0904 61.1099 86.3616L53.9168 87.385Z" fill="#3C4043"/>
<path fill-rule="evenodd" clip-rule="evenodd" d="M53.9168 87.385C53.9168 87.385 59.2258 91.7136 64.2593 90.8961C64.2593 90.8961 61.6235 89.0904 61.1099 86.3616L53.9168 87.385Z" stroke="#3C4043" stroke-width="0.519481" stroke-linecap="round" stroke-linejoin="round"/>
<path fill-rule="evenodd" clip-rule="evenodd" d="M52.5854 85.1516C52.5854 85.1516 49.6853 83.4448 49.6853 81.2328C49.6853 79.0203 52.2583 80.8852 52.2583 80.8852L52.5854 85.1516Z" fill="#FD8060"/>
<path fill-rule="evenodd" clip-rule="evenodd" d="M52.5854 85.1516C52.5854 85.1516 49.6853 83.4448 49.6853 81.2328C49.6853 79.0203 52.2583 80.8852 52.2583 80.8852L52.5854 85.1516Z" stroke="#3C4043" stroke-width="0.519481" stroke-linecap="round" stroke-linejoin="round"/>
<path fill-rule="evenodd" clip-rule="evenodd" d="M63.2239 85.1516C63.2239 85.1516 66.124 83.4448 66.124 81.2328C66.124 79.0203 63.5511 80.8852 63.5511 80.8852L63.2239 85.1516Z" fill="#FD8060"/>
<path fill-rule="evenodd" clip-rule="evenodd" d="M63.2239 85.1516C63.2239 85.1516 66.124 83.4448 66.124 81.2328C66.124 79.0203 63.5511 80.8852 63.5511 80.8852L63.2239 85.1516Z" stroke="#3C4043" stroke-width="0.519481" stroke-linecap="round" stroke-linejoin="round"/>
<path fill-rule="evenodd" clip-rule="evenodd" d="M57.8847 88.9026C54.2593 88.9026 52.1239 85.3732 51.1535 81.1379C50.1826 76.903 51.8003 70.8319 58.1441 70.8319C64.229 70.8319 65.6193 76.5539 64.7467 81.4202C63.836 86.4899 61.9757 88.8307 57.8847 88.9026Z" fill="#FD8060"/>
<path fill-rule="evenodd" clip-rule="evenodd" d="M57.8847 88.9026C54.2593 88.9026 52.1239 85.3732 51.1535 81.1379C50.1826 76.903 51.8003 70.8319 58.1441 70.8319C64.229 70.8319 65.6193 76.5539 64.7467 81.4202C63.836 86.4899 61.9757 88.8307 57.8847 88.9026Z" stroke="#3C4043" stroke-linecap="round" stroke-linejoin="round"/>
<path fill-rule="evenodd" clip-rule="evenodd" d="M65.229 75.9385C59.6115 75.9385 56.6987 80.284 50.8538 80.284C50.8538 80.284 48.0524 69.8919 57.9472 69.8919C63.9142 69.8903 65.229 75.9385 65.229 75.9385Z" fill="#3C4043"/>
<path fill-rule="evenodd" clip-rule="evenodd" d="M65.229 75.9385C59.6115 75.9385 56.6987 80.284 50.8538 80.284C50.8538 80.284 48.0524 69.8919 57.9472 69.8919C63.9142 69.8903 65.229 75.9385 65.229 75.9385Z" stroke="#3C4043" stroke-width="0.519481" stroke-linecap="round" stroke-linejoin="round"/>
<path d="M48.7808 92.4376L47.5181 102.738" stroke="#3C4043" stroke-width="0.779221" stroke-linecap="round" stroke-linejoin="round"/>
<path d="M63.7222 90.8578C63.7222 90.8578 87.8044 98.2936 87.8044 120.168" stroke="#3C4043" stroke-linecap="round" stroke-linejoin="round"/>
</g>
</svg>
