<?xml version="1.0" encoding="utf-8"?>
<!-- Generator: Adobe Illustrator 19.2.1, SVG Export Plug-In . SVG Version: 6.00 Build 0)  -->
<svg version="1.1" id="layer" xmlns="http://www.w3.org/2000/svg" xmlns:xlink="http://www.w3.org/1999/xlink" x="0px" y="0px"
	 viewBox="0 0 652 652" style="enable-background:new 0 0 652 652;" xml:space="preserve">
<style type="text/css">
	.st0{fill:#DF378C;}
	.st1{fill:#EC80AF;}
	.st2{fill:#FFEBBC;}
	.st3{fill:#CDE4B9;}
	.st4{fill:#BD4E97;}
	.st5{fill:#5956A2;}
	.st6{fill:#FFFFFF;}
	.st7{fill:#040000;}
	.st8{fill:#CBD900;}
	.st9{fill:#D50061;}
	.st10{fill:#69C3C6;}
	.st11{fill:#A6348D;}
	.st12{fill:#F2C800;}
	.st13{fill:#56B558;}
	.st14{fill:#5E80C0;}
</style>
<g>
	<path class="st0" d="M582.3,193.7C503.6,114.9,398.8,71.5,287.4,71.5C176,71.5,71.2,114.9-7.5,193.7
		C-69.7,255.9-109.9,334.2-124,419.3h32.8c13.8-76.4,50.4-146.7,106.5-202.8C88,143.8,184.6,103.8,287.4,103.8
		c102.8,0,199.4,40,272.1,112.7c56.1,56.1,92.7,126.4,106.5,202.8h32.8C684.7,334.2,644.6,255.9,582.3,193.7"/>
	<path class="st1" d="M287.4,103.8c-102.8,0-199.4,40-272.1,112.7c-56.1,56.1-92.7,126.4-106.5,202.8h32.9
		c13.4-67.7,46.5-130,96.5-179.9c66.6-66.6,155.1-103.2,249.2-103.2c94.1,0,182.6,36.7,249.2,103.2c49.9,49.9,83,112.2,96.5,179.9
		H666c-13.8-76.4-50.4-146.7-106.5-202.8C486.8,143.8,390.2,103.8,287.4,103.8"/>
	<path class="st2" d="M287.4,136.2c-94.1,0-182.7,36.7-249.2,103.2c-49.9,49.9-83,112.2-96.5,179.9h33
		c13-59.1,42.5-113.3,86.3-157.1c60.5-60.5,140.9-93.8,226.4-93.8c85.5,0,165.9,33.3,226.3,93.8c43.8,43.8,73.3,98,86.3,157.1h33.1
		c-13.4-67.7-46.5-130-96.5-179.9C470.1,172.8,381.5,136.2,287.4,136.2"/>
	<path class="st3" d="M287.4,168.5c-85.5,0-165.9,33.3-226.4,93.8c-43.8,43.8-73.3,98-86.3,157.1H8c12.4-50.4,38.3-96.6,75.9-134.2
		c54.3-54.4,126.6-84.3,203.5-84.3c76.9,0,149.1,29.9,203.5,84.3c37.6,37.6,63.5,83.8,75.9,134.2H600
		c-13-59.1-42.5-113.3-86.3-157.1C453.3,201.8,372.9,168.5,287.4,168.5"/>
	<path class="st4" d="M287.4,200.8c-76.9,0-149.1,29.9-203.5,84.3C46.3,322.7,20.4,368.9,8,419.3h33.5
		c30.2-107.4,128.9-186.2,245.9-186.2s215.7,78.8,245.9,186.2h33.5c-12.4-50.4-38.3-96.6-75.9-134.2
		C436.5,230.8,364.3,200.8,287.4,200.8"/>
	<path class="st5" d="M287.4,233.2c-117.1,0-215.7,78.8-245.9,186.2h33.8c29.2-89.2,113.2-153.8,212.1-153.8
		c98.9,0,182.9,64.6,212.1,153.8h33.8C503.1,311.9,404.5,233.2,287.4,233.2"/>
	<path class="st6" d="M260.2,254.7c-1.4-0.4-2.7-0.5-3.9-0.5c-0.7,0-1.4,0.1-2,0.2c-0.6,2-0.8,4-0.8,6c0,1.4,0.1,2.8,0.4,4.1
		c0.7,3.5,3.1,7,3.9,9.7c0.1,0.2,0.1,0.4,0.1,0.5c0,0.6-0.3,1.3-1.1,1.6c-0.2,0-0.3,0.1-0.5,0.1c-0.8,0-1.3-0.5-1.5-1
		c-0.5-1-1.5-2.5-2.7-3c-0.5-0.2-1.1-0.3-1.7-0.3c-1.1,0-2.3,0.4-3.5,1.3c-0.7,0.5-1.7,2.2-1.7,4.3c0,0.5,0.1,1,0.2,1.5
		c0.6,2.9,3.2,6.4,8,7.6c1.1,0.3,2.2,0.4,3.2,0.4c3.4,0,6.6-1.4,8.9-4.1c1.8-2.1,2.5-4.3,2.5-6.7c0-5.7-4-12.1-4-18.1
		c0-0.8,0.1-1.7,0.3-2.5C263.1,255.4,261.7,255.1,260.2,254.7"/>
	<path class="st6" d="M245.1,254.7c1.2,0,2.4-0.3,3.3-0.5c1.6-0.4,4.2-1.9,8-1.9c1.3,0,2.7,0.2,4.3,0.6c3.4,0.9,6.2,1.4,8.5,1.4
		c3.5,0,5.9-1,8.5-3.5c0.4-0.4,0.7-0.8,1-1.1c0.3-0.5,0.6-1,0.9-1.4c0.3-0.7,0.4-1.3,0.4-1.9c0-0.9-0.3-1.6-0.8-2.2
		c-0.9-1.1-1.9-1.4-3.1-1.4c-1.1,0-2.4,0.4-3.7,0.9c-1.5,0.6-3.3,0.8-5,0.8c-1.3,0-2.5-0.1-3.5-0.3c-4.7-0.7-7.8-2.1-11.6-2.1
		c-1.6,0-3.4,0.2-5.6,0.9c-4.4,1.4-6.7,4.4-6.7,6.9c0,0.5,0.1,1.1,0.3,1.6C241.4,254.2,243.2,254.7,245.1,254.7"/>
	<path class="st7" d="M244.9,256.5h0.2c1.5,0,2.9-0.3,3.7-0.6c1.1-0.3,2.3-0.8,3.6-1.2c-0.4,1.9-0.7,3.8-0.7,5.6
		c0,1.5,0.2,3,0.5,4.4c0.7,3,2.2,5.8,3.2,8c-0.6-0.8-1.5-1.7-2.6-2.2c-0.7-0.3-1.6-0.5-2.4-0.5c-1.5,0-3.2,0.6-4.6,1.7
		c-1.2,1-2.3,3-2.3,5.6c0,0.6,0.1,1.2,0.2,1.9c0.8,3.6,3.8,7.6,9.3,9c1.2,0.3,2.5,0.5,3.7,0.5h0c3.9,0,7.6-1.7,10.2-4.7
		c2.1-2.5,2.9-5.2,2.9-7.9c0-6.4-4.1-12.8-4-18.1c0-0.8,0.1-1.5,0.3-2.2c1.1,0.1,2.1,0.2,3,0.2c3.1,0,5.7-0.9,8.1-2.6
		c-0.3,1.3-0.5,2.7-0.5,4c0,0.3,0,0.5,0,0.8c0.2,3.9,1.6,7.4,2.2,12.3c0.1,0.7,0.1,1.4,0.1,2.1c0,2.6-0.5,5.1-1.1,6.9
		c-0.3,1.1-0.5,2.1-0.5,3c0,2.6,1.4,4.7,4,5.7c0.7,0.3,1.5,0.4,2.2,0.4h0c2.7,0,5.3-1.9,6.4-5.2c0.7-2.1,1.1-4.7,1.1-7.5
		c0-0.9,0-1.8-0.1-2.7c0.6-0.4,1.2-0.6,1.6-0.6c0.5,0,0.8,0.2,1.1,0.4c0.9,0.8,1,2.6,1,4.7v0.5c0,2.7,0,5.9,2.7,8.2
		c1.6,1.4,3.7,2.1,5.7,2.1h0c2.9,0,5.9-1.3,8.3-3.7c2.4,2.7,5.8,4.3,9.6,4.3h0.1c6.5,0,9.7-2.2,12.1-4.5c1.4-1.4,2.3-3.1,2.3-4.8
		c0-1.5-0.7-3-2.1-4.2c-1-0.8-2.1-1.2-3.2-1.2c-1.8,0-3.4,1-4.6,2.1c-1.2,1.2-3.2,2.1-4.9,2.2c-0.1,0-0.2,0-0.3,0
		c-0.5,0-1-0.1-1.3-0.4h0.3c5.4,0,10-4.3,10-9.2c0-1.1-0.2-2.1-0.7-3.1c-1.6-3.4-4.8-4.9-8.1-4.9c-2.9,0-6,1.2-8.3,3.4
		c-2.6,2.5-4.2,6.2-4.2,10.4c0,0.5,0,0.9,0.1,1.4c-0.3,0.1-0.5,0.1-0.7,0.1c-0.5,0-0.7-0.2-1-0.7c-0.3-0.5-0.5-1.3-0.6-1.9
		c-0.3-2.1-0.7-7-5.3-9.2c-1.3-0.6-2.7-1-4.2-1c-0.3,0-0.6,0-0.9,0c1.9-2.7,2.8-5.8,2.8-8.8c0-5.3-2.8-10.5-7.8-11.5
		c-0.8-0.2-1.6-0.2-2.4-0.2c-2.6,0-4.8,1-6.6,2.5c-0.1-1-0.5-2-1.1-2.8c-1.2-1.5-2.9-2.1-4.5-2.1c-1.5,0-3,0.5-4.3,1
		c-1.2,0.5-2.8,0.7-4.3,0.7c-1.2,0-2.3-0.1-3.3-0.3c-4.4-0.6-7.6-2.1-11.8-2.1c-1.8,0-3.8,0.3-6.1,1c-4.9,1.6-7.9,5-7.9,8.6
		c0,0.8,0.1,1.5,0.4,2.3C240,255.5,242.7,256.5,244.9,256.5 M240.1,250c0-2.5,2.3-5.6,6.7-6.9c2.2-0.7,4-0.9,5.6-0.9
		c3.8,0,6.9,1.4,11.6,2.1c1,0.2,2.3,0.3,3.5,0.3c1.7,0,3.4-0.2,5-0.8c1.2-0.5,2.5-0.9,3.7-0.9c1.2,0,2.2,0.4,3.1,1.5
		c0.5,0.6,0.8,1.3,0.8,2.2c0,0.6-0.1,1.2-0.4,1.9c-0.3,0.5-0.6,0.9-0.9,1.4c-0.3,0.4-0.6,0.7-1,1.1c-2.6,2.5-5.1,3.5-8.5,3.5
		c-2.3,0-5-0.5-8.4-1.4c-1.6-0.4-3-0.6-4.3-0.6c-3.8,0-6.4,1.4-8,1.9c-0.8,0.2-2,0.5-3.3,0.5c-1.9,0-3.7-0.6-4.7-3.1
		C240.2,251.1,240.1,250.6,240.1,250 M292.5,264.9c-0.9,0.4-1.7,0.9-2.6,1.6c-0.2-1-0.5-2-0.7-2.9c-0.2,0-0.3,0.1-0.5,0.1
		c-0.7,0-1.3-0.3-1.9-0.9l1.4,6.8l0.1,0l0.7,5.9l0.4-0.4c0,0.3,0.1,0.7,0.1,1c0,2.7-0.4,5.1-1,7c-1,2.8-2.9,4-4.7,4
		c-0.5,0-1.1-0.1-1.6-0.3c-2-0.9-2.9-2.2-2.9-4.1c0-0.7,0.1-1.6,0.4-2.4c0.7-2,1.2-4.7,1.2-7.5c0-0.8,0-1.6-0.1-2.3
		c-0.6-5.2-2-8.7-2.2-12.2c0-0.2,0-0.4,0-0.7c0-2.7,0.9-5.9,2.6-8.3c1.7-2.4,4.1-4,7.2-4c0.6,0,1.3,0.1,2,0.2c3.9,0.8,6.4,5,6.4,9.8
		C296.6,258.7,295.3,262.3,292.5,264.9 M300,266.6c3.6,1.6,3.9,5.5,4.3,7.8c0.1,0.8,0.3,1.7,0.8,2.6c0.4,0.8,1.4,1.6,2.6,1.6
		c0.3,0,0.6,0,0.9-0.1c0.2,0.9,0.4,1.8,0.7,2.7c0.3,0.9,0.8,1.7,1.2,2.5c-2.2,2.2-4.9,3.4-7.3,3.4c-1.7,0-3.3-0.5-4.6-1.7
		c-2-1.7-2.1-4.2-2.1-6.9v-0.5c0-2.1,0-4.4-1.5-6c-0.6-0.6-1.4-0.9-2.3-0.9h0c-0.8,0-1.5,0.2-2.3,0.7l-0.4-3
		c2.3-2.1,4.5-2.9,6.5-2.9C297.7,265.8,298.8,266.1,300,266.6 M320.7,263.3c2.7,0,5.1,1.2,6.5,3.9c0.4,0.8,0.5,1.6,0.5,2.4
		c0,3.6-3.8,7.4-8.3,7.4c-0.4,0-0.9,0-1.3-0.1l0-0.2c-0.1-0.5-0.1-0.9-0.1-1.3c0-0.4,0-0.7,0.1-1.1c-0.9-0.3-1.6-0.8-2.1-1.5
		l-0.5,5.2l0.7,0.2c0.2,0.1,0.4,0.1,0.5,0.2c0.7,1.6,2.1,2.6,3.8,2.5c0.2,0,0.3,0,0.5,0c2.1-0.2,4.3-1.2,5.9-2.7
		c1-1,2.3-1.7,3.4-1.6c0.7,0,1.4,0.2,2.1,0.8c1,0.9,1.4,1.8,1.4,2.8c0,1.1-0.6,2.4-1.7,3.5c-2.3,2.2-4.8,4-11,4
		c-4.6,0-8.7-2.6-10.2-7c-0.6-1.8-0.9-3.6-0.9-5.2c0-3.8,1.5-7,3.7-9.1C315.6,264.3,318.3,263.3,320.7,263.3 M268,276.2
		c0,2.4-0.6,4.6-2.5,6.7c-2.3,2.7-5.4,4.1-8.9,4.1c-1,0-2.1-0.1-3.2-0.4c-4.9-1.2-7.4-4.7-8-7.6c-0.1-0.5-0.2-1-0.2-1.5
		c0-2.1,1-3.7,1.7-4.3c1.2-0.9,2.4-1.3,3.5-1.3c0.6,0,1.2,0.1,1.7,0.3c1.2,0.5,2.3,2,2.7,3c0.3,0.5,0.8,1,1.5,1c0.1,0,0.3,0,0.5-0.1
		c0.8-0.3,1.1-0.9,1.1-1.6c0-0.2,0-0.3-0.1-0.5c-0.9-2.7-3.2-6.2-3.9-9.7c-0.3-1.3-0.4-2.7-0.4-4.1c0-2,0.3-4,0.8-6
		c0.6-0.1,1.3-0.2,2-0.2c1.1,0,2.4,0.1,3.9,0.5c1.5,0.4,2.8,0.7,4.1,0.9c-0.2,0.8-0.3,1.7-0.3,2.5
		C264.1,264.1,268.1,270.5,268,276.2"/>
	<path class="st6" d="M290.3,245.4c-0.7-0.1-1.4-0.2-2-0.2c-3.2,0-5.5,1.6-7.2,4c-1.7,2.4-2.6,5.5-2.6,8.3c0,0.2,0,0.4,0,0.7
		c0.2,3.5,1.6,7,2.2,12.2c0.1,0.8,0.1,1.6,0.1,2.3c0,2.8-0.5,5.5-1.2,7.5c-0.3,0.9-0.4,1.7-0.4,2.5c0,1.9,0.9,3.2,2.9,4.1
		c0.5,0.2,1,0.3,1.6,0.3c1.9,0,3.8-1.2,4.7-4c0.6-1.9,1-4.3,1-7c0-0.3,0-0.7-0.1-1l-0.4,0.4l-0.7-5.9l-0.1,0l-1.4-6.8
		c0.5,0.6,1.2,0.9,1.9,0.9c0.2,0,0.4,0,0.5-0.1c0.2,0.9,0.4,1.9,0.7,2.9c0.9-0.7,1.7-1.2,2.6-1.6c2.8-2.6,4.1-6.2,4.1-9.7
		C296.6,250.4,294.2,246.2,290.3,245.4"/>
	<path class="st6" d="M290,268.7l0.4,3c0.8-0.5,1.6-0.7,2.3-0.7h0c0.9,0,1.7,0.4,2.3,0.9c1.6,1.6,1.5,3.9,1.5,6v0.5
		c0,2.7,0.1,5.2,2.1,6.9c1.3,1.1,2.9,1.7,4.6,1.7c2.4,0,5.1-1.1,7.3-3.4c-0.5-0.8-0.9-1.6-1.3-2.5c-0.3-0.9-0.5-1.8-0.7-2.7
		c-0.3,0.1-0.6,0.1-0.9,0.1c-1.2,0-2.2-0.8-2.6-1.6c-0.5-0.8-0.7-1.8-0.8-2.6c-0.3-2.3-0.7-6.2-4.3-7.8c-1.1-0.5-2.3-0.8-3.4-0.8
		C294.5,265.8,292.3,266.6,290,268.7"/>
	<path class="st6" d="M310.9,280.6c1.5,4.4,5.6,7,10.2,7c6.2,0,8.8-1.8,11-4c1.2-1.1,1.7-2.4,1.7-3.5c0-1-0.4-1.9-1.4-2.8
		c-0.7-0.6-1.4-0.8-2.1-0.8c-1.1,0-2.4,0.7-3.4,1.6c-1.6,1.5-3.8,2.5-6,2.7c-0.2,0-0.3,0-0.5,0c-1.7,0-3.1-1-3.7-2.5
		c-0.2,0-0.4-0.1-0.5-0.2l-0.7-0.2l0.5-5.2c0.4,0.7,1.2,1.2,2.1,1.5c0,0.3-0.1,0.7-0.1,1.1c0,0.4,0,0.8,0.1,1.3l0,0.2
		c0.4,0.1,0.9,0.1,1.3,0.1c4.5,0,8.2-3.8,8.3-7.4c0-0.8-0.2-1.6-0.5-2.4c-1.3-2.7-3.7-3.9-6.4-3.9c-2.5,0-5.1,1-7.1,2.9
		c-2.2,2.1-3.7,5.3-3.7,9.1C310,277,310.3,278.7,310.9,280.6"/>
	<path class="st6" d="M139.3,336.1l0.4,0.7l-0.6,0.5c-1.8,1.3-3,4.3-3,7.3c0,3.4,1.4,6.6,4.4,7.7c0.8,0.3,1.6,0.4,2.2,0.4
		c4.2,0.1,7-5.4,7.3-9.5l0.2-2.9l1.4,2.5c0.6,1.1,2,1.6,3.7,1.6c1.8,0,3.9-0.7,5-1.6l1.6-1.3l-0.1,2c0,0.2,0,0.3,0,0.5
		c0,1.9,0.6,4.1,1.7,5.7c1.1,1.6,2.7,2.7,4.8,2.7c0.8,0,1.6-0.1,2.6-0.5c3-1.1,4.3-4,4.3-7.3c0-2.6-0.9-5.3-2.4-7l-0.4-0.5l0.3-0.5
		c0.4-0.8,0.7-1.9,0.7-3c0-2.1-0.9-4.2-2.9-5.3l-0.7-0.4l0.3-0.7c0.4-1.1,0.7-2.2,0.7-3.3c0-3.4-2-6.5-4.9-7.3l-0.7-0.2l0-0.7
		c0-0.3,0-0.7,0-1c0-6.3-2.5-10.7-7.5-11.5c-0.5-0.1-1-0.1-1.4-0.1c-4.4,0-7.2,3.6-8.1,7.4l-0.2,0.7h-0.7h0c-0.8,0-1.7,0.6-2.5,1.8
		c-0.8,1.1-1.3,2.7-1.3,4.2c0,0.9,0.2,1.9,0.6,2.7l0.5,1l-1.1,0.3c-3.4,0.8-5.9,4.9-5.9,9.3C137.8,332.3,138.3,334.3,139.3,336.1
		 M151.3,332.4c0,0,0.9-1,1.8-2.8c0.9-1.8,1.9-4.2,1.9-6.9l1.8,0c0.5,5.7,1.7,7.4,3.8,10l2.8,3.3l-3.9-2c-1.1-0.6-2.4-0.8-3.6-0.8
		c-1.2,0-2.5,0.3-3.6,0.7l-3.2,1.2L151.3,332.4z"/>
	<path class="st7" d="M140,353.9c1,0.3,1.9,0.5,2.8,0.5h0c5.1-0.1,7.9-5.1,8.8-9.3c1.1,0.7,2.5,1,3.8,1c1.6,0,3.3-0.4,4.7-1.1
		c0.4,4.2,3.1,9,8.3,9.1c1,0,2.1-0.2,3.2-0.6c3.9-1.4,5.5-5.2,5.5-8.9c0-2.8-0.9-5.6-2.5-7.7c0.4-1,0.6-2.1,0.6-3.2
		c0-2.4-0.9-4.9-3.1-6.5c0.4-1.1,0.5-2.2,0.5-3.3c0-3.8-2-7.5-5.5-8.8c0-0.1,0-0.3,0-0.4c0.1-6.7-2.9-12.3-9-13.3
		c-0.6-0.1-1.1-0.1-1.7-0.1c-5.2,0-8.6,4.1-9.7,8.2c-2.9,0.6-4.8,4.2-4.8,7.7c0,0.9,0.1,1.7,0.4,2.6c-3.9,1.6-6.2,6.1-6.2,10.7
		c0,2,0.4,4,1.4,6c-2.1,1.9-3.1,5.1-3.1,8.2C134.3,348.4,136,352.5,140,353.9 M143.7,321l1.1-0.3l-0.5-1c-0.4-0.8-0.6-1.7-0.6-2.7
		c0-1.5,0.5-3.1,1.3-4.2c0.7-1.1,1.7-1.8,2.5-1.8h0h0.7l0.2-0.7c0.8-3.8,3.7-7.4,8.1-7.4c0.5,0,0.9,0,1.4,0.1
		c5,0.8,7.5,5.2,7.5,11.5c0,0.3,0,0.7,0,1l0,0.7l0.7,0.2c2.9,0.8,4.9,3.9,4.9,7.3c0,1.1-0.2,2.3-0.7,3.4l-0.3,0.7l0.7,0.4
		c2,1.1,2.9,3.2,2.9,5.3c0,1.1-0.2,2.1-0.7,3l-0.3,0.5l0.4,0.5c1.5,1.7,2.4,4.4,2.4,7c0,3.3-1.4,6.2-4.3,7.3c-1,0.3-1.8,0.5-2.6,0.5
		c-2.1,0-3.7-1.1-4.8-2.7c-1.1-1.6-1.7-3.8-1.7-5.7c0-0.2,0-0.3,0-0.5l0.1-2l-1.6,1.3c-1.1,0.9-3.2,1.7-5,1.6
		c-1.7,0-3.1-0.6-3.7-1.6l-1.4-2.5l-0.2,2.9c-0.3,4.1-3,9.7-7.3,9.5c-0.7,0-1.4-0.1-2.2-0.4c-3-1.1-4.4-4.3-4.4-7.7c0-3,1.2-6,3-7.3
		l0.6-0.5l-0.4-0.7c-1-1.8-1.5-3.8-1.5-5.7C137.8,325.9,140.3,321.8,143.7,321"/>
	<path class="st7" d="M155.9,333.1c1.2,0,2.5,0.3,3.6,0.8l3.9,2l-2.8-3.3c-2.1-2.6-3.3-4.3-3.8-10l-1.8,0c-0.1,2.7-1,5.2-1.9,6.9
		c-0.9,1.8-1.8,2.8-1.8,2.8L149,335l3.2-1.2C153.4,333.3,154.7,333.1,155.9,333.1 M155.8,327.7c0.4,1.5,1,2.7,1.7,3.8
		c-0.5-0.1-1.1-0.1-1.6-0.1c-0.6,0-1.3,0.1-1.9,0.2C154.6,330.5,155.3,329.2,155.8,327.7"/>
	<path class="st6" d="M277,344.6c0-2.6-0.9-5.3-2.4-7l-0.4-0.5l0.3-0.5c0.4-0.8,0.7-1.9,0.7-3c0-2.1-0.9-4.2-2.9-5.3l-0.7-0.4
		l0.3-0.7c0.4-1.1,0.6-2.2,0.6-3.4c0-3.4-1.9-6.5-4.9-7.3l-0.7-0.2l0-0.7c0-0.3,0-0.7,0-1c0-6.3-2.5-10.7-7.5-11.5
		c-0.5-0.1-1-0.1-1.4-0.1c-4.4,0-7.2,3.6-8.1,7.4l-0.2,0.7h-0.7h0c-0.8,0-1.7,0.6-2.5,1.8c-0.8,1.1-1.3,2.7-1.3,4.2
		c0,0.9,0.2,1.9,0.6,2.7l0.5,1l-1.1,0.3c-3.4,0.8-5.9,4.9-5.9,9.3c0,1.9,0.5,3.9,1.5,5.7l0.4,0.7l-0.6,0.5c-1.8,1.3-3,4.3-3,7.3
		c0,3.4,1.4,6.6,4.4,7.7c0.8,0.3,1.5,0.4,2.2,0.4c4.2,0.1,7-5.4,7.3-9.5l0.2-2.9l1.4,2.5c0.6,1.1,2,1.6,3.7,1.6c1.8,0,3.9-0.7,5-1.6
		l1.6-1.3l-0.1,2.1c0,0.2,0,0.3,0,0.5c0,1.9,0.6,4.1,1.7,5.7c1.1,1.6,2.7,2.7,4.8,2.7c0.8,0,1.6-0.2,2.6-0.5
		C275.6,350.7,277,347.8,277,344.6 M261.2,333.9c-1.1-0.6-2.4-0.8-3.6-0.8c-1.2,0-2.5,0.3-3.6,0.7l-3.2,1.2l2.2-2.6
		c0,0,0.9-1,1.8-2.8c0.9-1.8,1.9-4.2,1.9-6.9l1.8,0c0.5,5.7,1.7,7.4,3.8,10l2.8,3.3L261.2,333.9z"/>
	<path class="st7" d="M276.2,336.9c0.4-1,0.6-2.1,0.6-3.2c0-2.4-0.9-4.9-3.1-6.5c0.4-1.1,0.5-2.2,0.5-3.3c0-3.8-2-7.5-5.5-8.8
		c0-0.1,0-0.3,0-0.4c0.1-6.7-2.9-12.3-9-13.2c-0.6-0.1-1.1-0.1-1.7-0.1c-5.2,0-8.6,4.1-9.7,8.2c-2.9,0.7-4.8,4.2-4.8,7.7
		c0,0.9,0.1,1.7,0.4,2.6c-3.9,1.6-6.2,6.1-6.2,10.7c0,2,0.4,4,1.4,6c-2.1,1.9-3.1,5.1-3.1,8.2c0,3.8,1.6,7.9,5.6,9.4
		c1,0.3,1.9,0.5,2.8,0.5c5.1-0.1,7.9-5.1,8.8-9.3c1.1,0.7,2.5,1,3.8,1c1.6,0,3.3-0.4,4.7-1.1c0.4,4.2,3.1,9,8.3,9.1
		c1,0,2.1-0.2,3.2-0.6c3.9-1.4,5.5-5.2,5.5-8.9C278.7,341.8,277.9,338.9,276.2,336.9 M265.2,349.6c-1.1-1.6-1.8-3.8-1.7-5.7
		c0-0.2,0-0.3,0-0.5l0.1-2.1l-1.6,1.3c-1.1,0.9-3.2,1.7-5,1.6c-1.7,0-3.1-0.6-3.7-1.6l-1.4-2.5l-0.2,2.9c-0.3,4.1-3,9.7-7.3,9.5
		c-0.7,0-1.4-0.1-2.2-0.4c-3-1.1-4.4-4.3-4.5-7.7c0-3,1.2-6,3-7.3l0.6-0.5l-0.4-0.7c-1-1.8-1.5-3.8-1.5-5.7c0-4.5,2.5-8.5,5.9-9.3
		l1.1-0.3l-0.5-1c-0.4-0.8-0.6-1.7-0.6-2.7c0-1.5,0.5-3.1,1.3-4.2c0.8-1.1,1.7-1.8,2.5-1.8h0h0.7l0.1-0.7c0.9-3.8,3.7-7.4,8.1-7.4
		c0.5,0,0.9,0,1.4,0.1c5,0.8,7.5,5.2,7.5,11.5c0,0.3,0,0.7,0,1l0,0.7l0.7,0.2c2.9,0.8,4.9,3.9,4.9,7.3c0,1.1-0.2,2.3-0.6,3.3
		l-0.3,0.7l0.7,0.4c2,1.1,2.9,3.2,2.9,5.3c0,1.1-0.3,2.1-0.7,3l-0.3,0.5l0.4,0.5c1.5,1.7,2.5,4.4,2.4,7c0,3.3-1.4,6.2-4.3,7.3
		c-0.9,0.3-1.8,0.5-2.6,0.5C268,352.3,266.4,351.3,265.2,349.6"/>
	<path class="st7" d="M258.5,322.6l-1.8,0.1c-0.1,2.7-1,5.2-1.9,6.9c-0.9,1.8-1.8,2.8-1.8,2.8l-2.2,2.6l3.2-1.2
		c1.1-0.4,2.4-0.7,3.6-0.7c1.2,0,2.5,0.3,3.6,0.8l3.9,2l-2.8-3.3C260.2,330,259,328.3,258.5,322.6 M255.7,331.5
		c0.6-1,1.3-2.3,1.8-3.8c0.4,1.5,1,2.7,1.7,3.8c-0.5-0.1-1.1-0.1-1.6-0.1C257,331.3,256.3,331.4,255.7,331.5"/>
	<path class="st6" d="M183.5,338.4l0.5,0.7l-0.6,0.5c-1.5,1.3-2.3,3.4-2.3,5.5c0,3.5,2,6.9,6.1,7.4c0.3,0,0.7,0.1,1,0.1
		c3.6,0,5.8-2.7,5.9-7.1c0-1.5-0.3-3.2-0.9-5L193,340l0.4-0.4c1.6-1.7,2.5-2.6,2.5-5.4l1.8-0.1c0,0,0.1,0.9,0.5,2
		c0.4,1.1,1.2,2.2,2.5,2.7l0.9,0.3l-0.4,0.9c-0.5,1.1-0.8,2.5-0.8,3.9c0,4.3,2.2,8.6,6.9,8.6c4.4,0,6-4,6.1-8.3
		c0-1.6-0.3-3.2-0.7-4.4l-0.3-0.9l0.9-0.3c0,0,0.1,0,0.4-0.2c0.2-0.1,0.6-0.3,0.9-0.6c0.7-0.6,1.5-1.6,1.8-3.3l1.7,0.2h0.1
		c0,0.3,0.1,2.9,1.8,4.4l0.5,0.4l-0.3,0.6c-0.6,1.4-1,2.9-1,4.4c0.1,4.2,2.3,7.8,6.6,7.9c0.2,0,0.4,0,0.6,0c3.7-0.3,5.4-3.5,5.4-7.4
		c0-2-0.5-4-1.4-5.5l-0.2-0.4l0.2-0.4c0.6-1.2,0.9-2.6,0.9-4c0-1.7-0.5-3.4-1.7-4.8l-0.4-0.5l0.3-0.5c0.7-1.2,1.2-3.2,1.2-5.2
		c0-2.9-1-5.9-3.2-7.2l-0.6-0.3l0.2-0.6c0.3-1.3,0.5-2.5,0.5-3.6c0-5.8-4.2-8.9-7.6-9.2c-0.2,0-0.3,0-0.5,0c-4,0-8.1,3.1-8.2,9.9
		c0,0.2,0,0.4,0,0.6l0,0.7l-0.7,0.2c-1.5,0.4-2.3,1.6-2.8,2.8c-0.5,1.2-0.5,2.4-0.5,2.4l-0.3,6.8l-1.5-6.6c-0.5-2.3-2.8-5.1-4-5.3
		l-0.8-0.2l0.1-0.8c0.1-0.7,0.2-1.4,0.2-2.1c0-4.3-2.1-8.3-6.6-8.4h-0.2c-4.7,0-8,3.2-8,7.8c0,0.9,0.1,1.9,0.4,2.9l0.2,0.7l-0.7,0.3
		c-1.9,1-3.1,3.5-3.1,6c0,1.6,0.5,3.2,1.4,4.3l0.6,0.7l-0.8,0.6c-1.7,1.3-2.6,3.6-2.6,6.2C181.7,334.5,182.4,336.9,183.5,338.4"/>
	<path class="st7" d="M186.9,354.3c0.4,0,0.8,0.1,1.2,0.1h0c2.3,0,4.3-0.9,5.6-2.5c1.3-1.6,2-3.8,2-6.4c0-1.6-0.3-3.2-0.8-5
		c0.7-0.8,1.4-1.6,1.9-2.7c0.5,0.9,1.2,1.7,2.2,2.3c-0.4,1.2-0.6,2.5-0.6,3.8c0,4.8,2.7,10.4,8.7,10.4c2.9,0,4.9-1.4,6.1-3.3
		c1.2-1.9,1.7-4.4,1.7-6.7c0-1.5-0.2-3-0.6-4.2c0.7-0.4,1.6-1,2.3-2.1c0.3,0.7,0.7,1.5,1.3,2.2c-0.6,1.5-0.9,3.1-0.9,4.6
		c0,4.8,2.8,9.6,8.3,9.6c0.2,0,0.5,0,0.7,0c4.9-0.4,7.1-4.9,7.1-9.1c0-2.1-0.5-4.2-1.4-6c0.6-1.3,0.9-2.8,0.9-4.4
		c0-1.9-0.5-3.8-1.7-5.4c0.8-1.5,1.2-3.5,1.2-5.5c0-3.1-1-6.5-3.5-8.4c0.3-1.2,0.4-2.3,0.4-3.4c0-6.8-5-10.7-9.3-11
		c-0.2,0-0.4,0-0.6,0c-2.5,0-5,1-6.8,3c-1.9,2-3.1,4.9-3.1,8.7c-1.8,0.8-2.8,2.3-3.3,3.6c-0.9-1.6-2.1-2.9-3.4-3.5
		c0.1-0.6,0.1-1.1,0.1-1.7c0.1-4.8-2.5-10-8.3-10.2h-0.2c-5.6,0-9.8,4-9.8,9.6c0,0.9,0.1,1.8,0.3,2.8c-2.3,1.6-3.4,4.4-3.4,7.2
		c0,1.7,0.4,3.3,1.3,4.7c-1.9,1.8-2.6,4.4-2.6,7c0,2.3,0.6,4.7,1.7,6.5c-1.6,1.7-2.4,4-2.4,6.4C179.3,349.3,181.9,353.6,186.9,354.3
		 M184.3,326.1l0.8-0.6l-0.6-0.7c-0.9-1.1-1.4-2.7-1.4-4.3c0-2.5,1.2-5,3.1-6l0.7-0.3l-0.2-0.7c-0.3-1-0.4-2-0.4-2.9
		c0-4.6,3.3-7.8,8-7.8l0.2,0c4.5,0.1,6.5,4.1,6.6,8.4c0,0.7-0.1,1.4-0.2,2.1l-0.1,0.8l0.8,0.2c1.3,0.2,3.6,3,4,5.3l1.5,6.6l0.3-6.8
		c0,0,0.1-1.1,0.5-2.3c0.5-1.2,1.3-2.4,2.8-2.8l0.7-0.2l0-0.7c0-0.2,0-0.4,0-0.5c0-6.9,4.2-9.9,8.2-9.9c0.2,0,0.3,0,0.5,0
		c3.4,0.2,7.6,3.3,7.6,9.2c0,1.1-0.1,2.3-0.5,3.6l-0.2,0.6l0.6,0.3c2.2,1.3,3.2,4.3,3.2,7.2c0,2-0.5,4-1.2,5.2l-0.3,0.5l0.4,0.5
		c1.2,1.4,1.7,3.1,1.7,4.8c0,1.4-0.4,2.8-0.9,4l-0.2,0.4l0.2,0.4c0.9,1.6,1.4,3.6,1.4,5.6c0,3.8-1.8,7.1-5.4,7.4c-0.2,0-0.4,0-0.6,0
		c-4.3,0-6.5-3.6-6.6-7.9c0-1.5,0.3-3.1,0.9-4.4l0.3-0.6l-0.5-0.4c-1.7-1.5-1.8-4-1.8-4.4H218l-1.7-0.2c-0.3,1.7-1.1,2.7-1.8,3.3
		c-0.4,0.3-0.7,0.5-0.9,0.6c-0.2,0.1-0.4,0.1-0.4,0.2l-0.9,0.3l0.3,0.9c0.4,1.2,0.7,2.8,0.7,4.4c0,4.3-1.6,8.3-6,8.3
		c-4.7,0-6.9-4.3-6.9-8.6c0-1.4,0.3-2.8,0.8-3.9l0.4-0.9l-0.9-0.3c-1.3-0.5-2-1.6-2.5-2.7c-0.4-1.1-0.5-2-0.5-2l-1.8,0.1
		c0,2.8-0.9,3.7-2.5,5.4L193,340l0.2,0.5c0.6,1.8,0.9,3.5,0.9,4.9c-0.1,4.5-2.3,7.1-5.9,7.1c-0.3,0-0.7,0-1-0.1
		c-4.1-0.5-6.1-3.9-6.1-7.4c0-2.1,0.8-4.2,2.3-5.6l0.6-0.5l-0.5-0.7c-1.1-1.5-1.8-3.9-1.8-6.1C181.7,329.7,182.6,327.3,184.3,326.1"
		/>
	<path class="st6" d="M282.8,344.9c0,0.4,0,0.9,0.1,1.3c0.7,5.1,3.7,6.6,6.9,6.7c2.6,0,5.1-1.3,5.9-2.8l0.9-1.6l0.7,1.7
		c0.7,1.7,2.5,2.5,4.4,2.5c2,0,3.8-1,4.1-2.6l0.6-2.6l1.1,2.4c0.6,1.6,3,2.9,5.5,2.9c3-0.1,6-1.7,6.6-6.8c0.1-0.6,0.1-1.2,0.1-1.7
		c0-6.4-4.4-9.1-8.9-9.2c-1.5,0-3.1,0.3-4.3,1l-0.9-1.5c1.2-0.7,2.1-2.8,2.1-5c0-1.1-0.2-2.1-0.6-3l-0.6-1.3l1.4,0.1
		c0.1,0,0.2,0,0.3,0c2.4,0,4.4-2.2,4.4-4.7c0-0.4-0.1-0.9-0.2-1.3l-0.3-1.2l1.2,0.1h0.1c0.8,0,2.2-0.6,3.4-1.9c1.1-1.3,2-3.1,2-5.5
		c0-0.6-0.1-1.3-0.2-2c-0.8-4.2-3.7-5.9-6.4-5.9c-1.8,0-3.6,0.8-4.6,2.1l-0.9,1.1l-0.6-1.3c-0.6-1.2-2.1-1.9-3.9-1.9
		c-1.7,0-3.4,0.7-4.2,1.8l-0.5,0.7l-0.7-0.5c-1.7-1.2-3.5-1.7-5.1-1.7c-3.4,0-6.1,2.3-6.6,7.1c0,0.3,0,0.6,0,0.9
		c0,4.6,3.5,7.5,6.6,7.5c0.9,0,1.7-0.2,2.5-0.7l5.3-3.2l-4.2,4.6c-1.1,1.2-1.7,2.7-1.7,4.4c0,0.7,0.1,1.6,0.3,2.4l0.3,1l-1.1,0.1
		c-3.2,0.2-5.1,3.5-5.1,6.7c0,0.6,0.1,1.3,0.2,1.8l0.2,0.9l-0.9,0.2C285.4,337.4,282.7,340.7,282.8,344.9"/>
	<path class="st7" d="M281,344.9c0,0.5,0,1,0.1,1.5c0.7,5.8,4.7,8.2,8.5,8.2h0.1c2.6,0,5.1-1,6.6-2.6c1.3,1.6,3.3,2.3,5.3,2.3
		c2,0,4-0.8,5.1-2.4c1.4,1.6,3.8,2.5,6.2,2.5c3.7,0.1,7.8-2.5,8.4-8.4c0.1-0.7,0.1-1.3,0.1-1.9c0-3.7-1.3-6.5-3.4-8.3
		c-2-1.8-4.7-2.7-7.3-2.7c-0.7,0-1.5,0.1-2.2,0.2c0.5-1.2,0.8-2.6,0.8-4c0-0.9-0.1-1.7-0.3-2.5c3.1-0.5,5.3-3.3,5.3-6.4
		c0-0.2,0-0.5,0-0.8c2.9-0.6,6.2-3.9,6.2-9.1c0-0.7-0.1-1.5-0.2-2.3c-0.9-5-4.6-7.4-8.1-7.4c-1.9,0-3.8,0.7-5.2,2
		c-1.2-1.3-3-1.8-4.7-1.8c-1.8,0-3.7,0.6-5,1.8c-1.8-1.1-3.7-1.6-5.5-1.6c-4.3,0-7.9,3.2-8.4,8.7c0,0.4,0,0.7,0,1.1
		c0,5.5,4.2,9.2,8.4,9.2c0.3,0,0.5,0,0.8,0c-0.5,1-0.7,2.2-0.7,3.4c0,0.6,0.1,1.2,0.2,1.9c-3.9,0.9-5.8,4.8-5.8,8.3
		c0,0.5,0,1,0.1,1.4C283.4,336.7,281,340.4,281,344.9 M287.6,336.9l0.9-0.2l-0.2-0.9c-0.2-0.6-0.2-1.2-0.2-1.8
		c0-3.3,1.9-6.5,5.1-6.7l1.1-0.1l-0.3-1c-0.2-0.9-0.3-1.7-0.3-2.4c0-1.8,0.6-3.2,1.7-4.4l4.2-4.6l-5.3,3.2c-0.8,0.5-1.6,0.7-2.5,0.7
		c-3.1,0-6.6-2.9-6.6-7.5c0-0.3,0-0.6,0-0.9c0.5-4.9,3.3-7.1,6.6-7.1c1.6,0,3.4,0.5,5.1,1.7l0.7,0.5l0.5-0.7
		c0.8-1.1,2.5-1.8,4.2-1.8c1.7,0,3.3,0.7,3.9,1.9l0.6,1.3l0.9-1.1c1-1.4,2.8-2.1,4.6-2.1c2.7,0,5.6,1.7,6.4,5.9
		c0.1,0.7,0.2,1.4,0.2,2c0,2.4-0.9,4.2-2,5.5c-1.1,1.3-2.6,1.9-3.4,1.9h-0.1l-1.2-0.1l0.3,1.2c0.1,0.4,0.2,0.9,0.2,1.3
		c0,2.5-2,4.7-4.4,4.7c-0.1,0-0.2,0-0.3,0l-1.4-0.1l0.6,1.3c0.4,0.9,0.6,1.9,0.6,3c0,2.2-0.9,4.4-2.1,5l0.9,1.5c1.3-0.6,2.8-1,4.3-1
		c4.5,0.1,8.9,2.7,8.9,9.2c0,0.6,0,1.1-0.1,1.7c-0.7,5.1-3.6,6.7-6.6,6.8c-2.5,0-4.9-1.3-5.5-2.9l-1.1-2.4l-0.6,2.6
		c-0.4,1.6-2.1,2.6-4.1,2.6c-1.9,0-3.7-0.9-4.4-2.5l-0.7-1.7l-0.9,1.6c-0.8,1.5-3.3,2.9-5.9,2.8c-3.1-0.1-6.2-1.6-6.9-6.7
		c-0.1-0.4-0.1-0.9-0.1-1.3C282.7,340.7,285.4,337.4,287.6,336.9"/>
	<path class="st6" d="M334.4,303c-5.7,0-8.5,4.8-8.5,9.9c0,2.7,0.8,5.4,2.3,7.3l0.5,0.6l-0.5,0.6c-1.3,1.4-2.1,4-2.1,6.5
		c0,2.7,0.8,5.3,2.4,6.6l0.6,0.5l-0.4,0.7c-1.3,2-2.3,5.2-2.3,8.2c0.1,4.7,1.9,8.7,7.5,8.8c2.2,0,3.8-1.1,5.1-2.9
		c1.2-1.8,1.9-4.4,1.9-7.1c0-2.6-0.6-5.2-1.9-7.6l-0.3-0.5l0.4-0.5c1.3-1.5,2.2-3.7,2.2-6.2c0-2-0.6-4.2-2-6.3l-0.4-0.6l0.5-0.5
		c1.2-1.3,2.2-4.5,2.2-7.8C341.4,307.6,339.5,303,334.4,303"/>
	<path class="st7" d="M324.1,312.9c0,2.8,0.8,5.6,2.3,7.8c-1.4,1.9-2,4.5-2,7.2c0,2.7,0.7,5.5,2.4,7.4c-1.4,2.3-2.2,5.5-2.2,8.6
		c0,2.6,0.6,5.2,2.1,7.2c1.5,2,3.9,3.3,7.2,3.3h0.1c5.7-0.1,8.8-5.8,8.8-11.8c0-2.7-0.6-5.4-1.8-7.9c1.4-1.8,2.2-4.2,2.2-6.8
		c0-2.2-0.6-4.5-2-6.7c1.4-2,2.2-5.2,2.2-8.5c0-2.7-0.6-5.5-1.9-7.7c-1.4-2.2-3.8-3.8-7-3.8C327.5,301.2,324.1,307.2,324.1,312.9
		 M339.3,320.5l-0.5,0.5l0.4,0.6c1.5,2.1,2,4.3,2,6.3c0,2.4-0.9,4.6-2.2,6.2l-0.4,0.5l0.3,0.5c1.3,2.3,1.9,5,1.9,7.6
		c0,2.7-0.7,5.3-1.9,7.1c-1.2,1.8-2.9,2.9-5.1,2.9c-5.6,0-7.5-4-7.5-8.8c0-3.1,0.9-6.3,2.3-8.2l0.4-0.7l-0.6-0.5
		c-1.5-1.3-2.4-3.9-2.4-6.6c0-2.5,0.8-5.1,2.1-6.5l0.5-0.6l-0.5-0.6c-1.5-1.9-2.4-4.6-2.3-7.3c0.1-5.2,2.8-9.9,8.5-9.9
		c5.2,0,7.1,4.7,7.1,9.7C341.5,316,340.5,319.2,339.3,320.5"/>
	<path class="st6" d="M362.1,344.3c0-1.5-0.3-3-0.8-4.3l-0.2-0.5l0.3-0.4c0.8-0.9,1.1-2.2,1.1-3.7c0-1.1-0.2-2.4-0.6-3.6l-1.8-5.4
		l3.4,4.6c0.6,0.8,1.1,0.9,1.6,0.9c0.3,0,0.7-0.1,0.9-0.2c0.3-0.1,0.4-0.2,0.4-0.2l1.7-1.2l-0.3,2c-0.1,0.5-0.1,1.1-0.1,1.6
		c0,4.6,2.5,8.5,6.3,8.5l0.9,0v0.9c0,4.7,2.3,9.2,6.9,9.2c0.8,0,1.6-0.1,2.5-0.4c3.6-1,5.7-4.6,5.7-8.7c0-2.7-0.9-5.6-2.9-7.9
		l-0.5-0.6l0.5-0.6c1.5-1.6,2.2-4.1,2.1-6.6c0-2.9-1-5.7-2.3-6.5l-0.8-0.5l0.6-0.7c1.6-2.1,2.4-4.9,2.4-7.5c0-5.2-2.9-9.7-7.8-9.7
		c-5.1,0-7.9,4.4-7.9,9.5c0,2.4,0.7,4.9,2,6.9l0.4,0.6l-0.4,0.5c-0.3,0.4-0.6,1.2-0.8,2c-0.2,0.7-0.2,1.3-0.2,1.3l-0.2,3l-1.4-2.6
		c-0.4-0.8-1.3-1.3-2.1-1.6c-0.8-0.3-1.5-0.3-1.5-0.3l-0.9-0.1l0.1-0.9c0-0.2,0-0.5,0-0.7c0-1.8-0.6-3.5-1.6-4.8
		c-1-1.3-2.2-2.1-3.4-2.1l-0.2,0l-1.1,0.1l0.1-1.1c0-0.3,0-0.6,0-0.9c0-5.4-3.6-8.8-7.3-8.8c-1.1,0-2.3,0.3-3.4,1
		c-2.8,1.7-4.4,5.1-4.4,8.7c0,3,1.1,6,3.3,8.4l0.7,0.7l-0.8,0.6c-2,1.6-3,4.2-3,6.9c0,2.7,1,5.6,2.7,7.3l0.5,0.6l-0.5,0.6
		c-1.7,2.1-2.6,4.7-2.6,7c0,4,2.3,7.3,6.7,7.8c0.3,0,0.6,0,0.9,0C359.8,352.4,362.1,348.6,362.1,344.3"/>
	<path class="st7" d="M363.1,339.8c0.9-1.3,1.2-2.8,1.2-4.4c0-0.6,0-1.2-0.1-1.8c0.3,0.1,0.6,0.1,0.9,0.1c0.3,0,0.6,0,0.8-0.1
		c0,0.1,0,0.2,0,0.4c0,4.8,2.6,9.6,7.2,10.2c0.3,4.9,2.9,10.1,8.6,10.1c0.9,0,1.9-0.1,3-0.4c4.6-1.3,7.1-5.7,7-10.4
		c0-2.9-0.9-5.9-2.9-8.5c1.5-2,2.1-4.7,2.1-7.2c0-2.9-0.8-5.7-2.3-7.4c1.5-2.4,2.3-5.2,2.3-7.9c0-5.7-3.4-11.5-9.6-11.5
		c-6.4,0-9.7,5.6-9.7,11.3c0,2.5,0.7,5.1,2,7.4c-0.3,0.6-0.6,1.3-0.7,1.9c-1-0.7-2.1-1-2.8-1.2v0c0-4-2.5-8.1-6.1-8.6v-0.1
		c0-6.1-4.2-10.6-9-10.6c-1.5,0-3,0.4-4.4,1.3c-3.4,2.1-5.2,6.1-5.2,10.2c0,3.1,1,6.3,3.2,8.9c-2,2-2.9,4.9-2.9,7.7
		c0,2.9,0.9,5.8,2.6,7.9c-1.7,2.3-2.5,5-2.5,7.5c0,4.7,3,9,8.3,9.6c0.4,0,0.7,0.1,1.1,0.1c5.8,0,8.6-5,8.6-9.9
		C363.9,342.7,363.6,341.2,363.1,339.8 M354.3,352.3c-4.4-0.5-6.7-3.8-6.7-7.8c0-2.3,0.8-4.8,2.6-7l0.5-0.6l-0.5-0.6
		c-1.7-1.7-2.7-4.5-2.7-7.3c0-2.8,1-5.4,3-7l0.8-0.6l-0.7-0.7c-2.3-2.4-3.3-5.4-3.3-8.4c0-3.6,1.5-6.9,4.4-8.7c1.1-0.7,2.3-1,3.4-1
		c3.7,0,7.3,3.5,7.3,8.8c0,0.3,0,0.6,0,0.9l-0.1,1.1l1.1-0.1l0.2,0c1.2,0,2.5,0.8,3.4,2.1c1,1.3,1.6,3.1,1.6,4.8c0,0.2,0,0.5,0,0.7
		l-0.1,0.9l0.9,0.1c0,0,0.7,0.1,1.5,0.3c0.8,0.3,1.7,0.8,2.1,1.6l1.4,2.6l0.2-3c0,0,0-0.6,0.2-1.3c0.1-0.7,0.4-1.6,0.8-2l0.4-0.5
		l-0.4-0.6c-1.4-2-2-4.5-2-6.9c0-5,2.8-9.5,7.9-9.5c4.9,0,7.8,4.6,7.8,9.7c0,2.7-0.8,5.4-2.4,7.5l-0.6,0.7l0.8,0.5
		c1.2,0.8,2.3,3.6,2.3,6.5c0,2.5-0.7,5-2.1,6.6l-0.5,0.6l0.5,0.6c2,2.3,2.9,5.2,2.9,7.9c0,4.1-2.1,7.7-5.8,8.7
		c-0.9,0.3-1.8,0.4-2.5,0.4c-4.6,0-6.9-4.5-6.9-9.2v-0.9l-0.9,0c-3.8-0.1-6.3-4-6.3-8.5c0-0.5,0-1.1,0.1-1.6l0.3-2l-1.7,1.1
		c0,0-0.1,0.1-0.4,0.2c-0.3,0.1-0.6,0.2-0.9,0.2c-0.5,0-1-0.1-1.6-0.9l-3.4-4.6l1.8,5.4c0.4,1.2,0.6,2.4,0.6,3.6
		c0,1.4-0.4,2.7-1.1,3.7l-0.3,0.4l0.2,0.5c0.5,1.4,0.8,2.9,0.8,4.3c0,4.3-2.3,8.1-6.9,8.1C354.9,352.4,354.6,352.4,354.3,352.3"/>
	<path class="st6" d="M399.8,337l1,0.2l-0.3,0.9c-0.5,1.2-0.7,2.4-0.7,3.5c0,4.4,3.4,7.4,7.1,7.4c1.4,0,2.9-0.4,4.3-1.4l1-0.7
		l0.4,1.1c1.1,3.3,4.3,4.9,7.6,4.9c4.2,0,8.2-2.5,8.3-7.3l0-1.2l1.1,0.3c0.5,0.2,1.1,0.2,1.5,0.2c1.7,0,3-0.9,4-2.2
		c1-1.4,1.5-3.3,1.5-5.1c0-0.9-0.1-1.7-0.4-2.5l-0.1-0.4l0.2-0.3c1.1-1.7,1.5-3.2,1.5-4.7c0-3.8-3.1-6.7-5.9-6.7
		c-1.4,0-2.7,0.6-3.8,2.3l-0.7,1.1l-0.7-1.1c-0.9-1.3-2.8-2.3-4.6-2.3c-1.7,0-3.2,0.7-4.3,2.7c-0.7,1.2-1,2.6-1,4.1
		c0,3.4,1.8,6.5,4.9,7l5.6,0.8l-5.6,0.9c-1.1,0.2-1.9,0.9-2.4,1.6c-0.5,0.7-0.7,1.3-0.7,1.3l-0.9,3l-0.8-3.1c-0.9-3.4-2.7-4.5-5-4.5
		c-0.6,0-1.2,0.1-1.9,0.3l-2.2,0.6l1.2-1.9c0.9-1.4,1.3-3,1.3-4.7c0-2.4-0.9-4.8-2.4-6.5l-1.6-1.8l2.4,0.4c0.3,0,0.5,0.1,0.7,0.1
		c3.1,0.1,5.7-3.2,5.8-6.3l0.1-1.6l1.3,0.9c1,0.7,1.8,0.9,2.5,0.9c0.9,0,1.6-0.4,2.2-0.7c0.5-0.4,0.8-0.7,0.8-0.7l1.1-1.4l0.5,1.7
		c0.7,2.4,3.1,3.9,5.8,3.9c3.1,0,6.2-1.8,7-6.4c0.1-0.6,0.2-1.2,0.2-1.8c0-4.7-3.5-7.2-7.8-7.3c-1.2,0-2.5,0.2-3.8,0.7l-0.6,0.2
		l-0.4-0.5c-0.7-1-3.2-2.1-5.6-2.1c-2.2,0-4.3,0.8-5.7,3l-0.5,0.8l-0.8-0.5c-1.5-0.9-2.9-1.3-4.2-1.3c-4.2,0-7.4,4.3-7.4,8.9
		c0,0.9,0.1,1.7,0.4,2.6l0.2,0.7l-0.7,0.3c-4.3,1.9-6.2,6-6.2,10.2C393.7,331.9,396.1,336.2,399.8,337"/>
	<path class="st7" d="M398.5,338.5c-0.3,1.1-0.5,2.2-0.5,3.2c0,5.4,4.2,9.1,8.8,9.1c1.5,0,3-0.4,4.4-1.2c1.7,3.5,5.3,5.1,8.9,5.1
		h0.1c4.5,0,9.3-2.8,9.9-8c0.3,0,0.7,0.1,1,0.1c4.7-0.1,7.2-4.9,7.2-9.2c0-0.9-0.1-1.8-0.3-2.6c1.1-1.8,1.6-3.6,1.6-5.3
		c0-4.8-3.7-8.5-7.7-8.5c-0.1,0-0.2,0-0.3,0c3-0.8,5.8-3.3,6.6-7.6c0.1-0.7,0.2-1.4,0.2-2.1c0-5.7-4.5-9.1-9.5-9.1
		c-1.3,0-2.6,0.2-3.9,0.6c-1.4-1.4-3.9-2.3-6.5-2.3c-2.4,0-5,0.8-6.7,3.1c-1.5-0.8-3-1.1-4.4-1.1c-5.5,0-9.2,5.3-9.2,10.7
		c0,0.8,0.1,1.6,0.2,2.3c-4.6,2.3-6.6,7-6.6,11.5C391.9,332.1,394.2,336.9,398.5,338.5 M399.9,317l0.7-0.3l-0.2-0.7
		c-0.3-0.9-0.4-1.7-0.4-2.6c0-4.6,3.3-8.9,7.4-8.9c1.3,0,2.7,0.4,4.2,1.3l0.8,0.5l0.5-0.8c1.3-2.2,3.4-2.9,5.7-3
		c2.4,0,4.9,1.1,5.6,2.1l0.4,0.5l0.6-0.2c1.3-0.5,2.6-0.7,3.8-0.7c4.3,0,7.7,2.6,7.8,7.3c0,0.6,0,1.2-0.2,1.8c-0.8,4.6-4,6.4-7,6.4
		c-2.7,0-5.2-1.5-5.8-3.9l-0.5-1.7l-1.1,1.4c0,0-0.3,0.3-0.8,0.7c-0.5,0.4-1.3,0.7-2.2,0.7c-0.7,0-1.5-0.2-2.5-0.9l-1.3-0.9
		l-0.1,1.6c-0.1,3.1-2.7,6.4-5.8,6.3c-0.2,0-0.5,0-0.7-0.1l-2.4-0.4l1.6,1.8c1.5,1.7,2.4,4.1,2.4,6.5c0,1.6-0.4,3.2-1.3,4.7
		l-1.2,1.9l2.2-0.6c0.6-0.2,1.3-0.3,1.9-0.3c2.3,0,4.1,1.2,5,4.5l0.8,3.1l0.9-3c0,0,0.2-0.6,0.7-1.3c0.5-0.7,1.3-1.4,2.4-1.6
		l5.6-0.9l-5.6-0.8c-3.1-0.4-4.9-3.6-4.9-7c0-1.4,0.3-2.9,1-4.1c1.1-2,2.7-2.7,4.3-2.7c1.8,0,3.7,1,4.6,2.3l0.7,1.1l0.7-1.1
		c1.1-1.7,2.5-2.3,3.8-2.3c2.8,0,5.9,2.9,5.9,6.7c0,1.4-0.4,3-1.5,4.7l-0.2,0.3l0.1,0.4c0.2,0.8,0.4,1.6,0.4,2.5
		c0,1.8-0.5,3.8-1.5,5.1c-1,1.4-2.3,2.2-3.9,2.2c-0.5,0-1-0.1-1.5-0.2l-1.1-0.3l0,1.2c-0.1,4.8-4.1,7.3-8.3,7.3
		c-3.4,0-6.5-1.6-7.6-4.9l-0.4-1.1l-1,0.7c-1.4,1-2.8,1.4-4.3,1.4c-3.7,0-7.1-2.9-7.1-7.4c0-1.1,0.2-2.2,0.7-3.5l0.3-0.9l-1-0.2
		c-3.8-0.8-6.2-5.1-6.2-9.8C393.7,323,395.6,318.9,399.9,317 M427.4,323.3c-1.4-1.3-3.3-2.2-5.3-2.2c-2.2,0-4.5,1.1-5.9,3.6
		c-0.8,1.5-1.2,3.2-1.2,4.9c0,3.2,1.4,6.4,4.2,8c-0.5,0.4-0.9,0.8-1.2,1.2c-1.3-2.6-3.5-3.9-5.9-3.9h-0.1c-0.2,0-0.3,0-0.5,0
		c0.5-1.3,0.8-2.6,0.8-4c0-2.2-0.7-4.4-1.8-6.2c3.4-0.5,5.9-3.4,6.6-6.6c0.8,0.4,1.6,0.5,2.3,0.5c1.5,0,2.6-0.6,3.3-1.2
		c1.3,2.5,4.2,3.9,7,3.9c0.3,0,0.5,0,0.8,0C429.2,321.8,428.2,322.4,427.4,323.3"/>
	<path class="st6" d="M183.7,383.6l0.6-0.5c1.5-1.3,2.4-3.7,2.4-6c0-3.5-1.7-6.7-5.2-7.1c-0.3,0-0.6-0.1-0.9-0.1
		c-3.7,0-6.7,3.1-6.8,7.8c0,1.2,0.2,2.4,0.6,3.7l0.2,0.8l-0.7,0.3c-1.7,0.8-2.9,2.8-2.9,5.4l-1.8,0c0,0,0-1-0.4-2.2
		c-0.4-1.2-1.2-2.5-2.7-3.1l-0.8-0.4l0.4-0.8c0.4-1,0.7-2.3,0.7-3.6c0-4-2.1-7.9-6.4-8c-4.1,0-5.5,3.7-5.6,7.6c0,1.5,0.3,3,0.7,4.1
		l0.3,0.8l-0.8,0.3c0,0-0.1,0-0.3,0.2c-0.2,0.2-0.6,0.4-0.9,0.8c-0.7,0.7-1.4,1.8-1.5,3.6l-1.8,0c0,0-0.1-1.2-0.5-2.6
		c-0.4-1.4-1.1-2.8-2.2-3.2l-0.7-0.3l0.2-0.7c0.3-1,0.5-2.1,0.5-3.2c-0.1-4-2.1-7.3-6.4-7.3c-0.2,0-0.4,0-0.6,0
		c-3.4,0.2-5.8,3.3-5.8,7c0,2,0.7,4.2,2.4,6.2l0.4,0.4l-0.3,0.5c-0.4,0.8-0.7,2-0.7,3.3c0,2.2,0.8,4.5,2.4,5.6l0.7,0.5l-0.5,0.7
		c-0.4,0.6-0.6,1.6-0.6,2.8c0,2.4,1.1,5.3,2.9,6.2l0.6,0.3l-0.2,0.7c-0.3,1.2-0.4,2.3-0.4,3.3c0,5.4,3.9,8.3,7,8.5
		c0.2,0,0.3,0,0.5,0c3.7,0,7.5-2.8,7.5-9.2c0-0.2,0-0.3,0-0.5l0-0.7l0.7-0.2c1.4-0.4,2.1-1.5,2.5-2.6c0.4-1.1,0.5-2.2,0.5-2.2
		l0.3-6.7l1.5,6.6c0.4,2.1,2.6,4.7,3.7,4.9l0.8,0.2l-0.1,0.8c-0.1,0.6-0.2,1.3-0.2,1.9c0,4,1.9,7.7,6.1,7.7h0.2
		c4.7-0.1,7.1-3,7.2-7.9c0-0.5,0-1.1-0.1-1.6l-0.1-0.8l0.7-0.2c1.6-0.3,3.1-2.9,3.1-5.7c0-1.4-0.4-2.8-1.3-4l-0.7-0.9l1.1-0.4
		c1.8-0.7,3.1-3.4,3.1-6.2c0-1.5-0.4-3-1.1-4L183.7,383.6z"/>
	<path class="st7" d="M181.8,368.1c-0.4,0-0.7-0.1-1.1-0.1c-4.8,0-8.5,4.1-8.5,9.5c0,1.1,0.2,2.4,0.5,3.6c-1.1,0.7-1.9,1.7-2.4,2.8
		c-0.5-1-1.3-2-2.5-2.7c0.4-1.1,0.5-2.3,0.5-3.6c0-4.5-2.5-9.7-8.1-9.7c-2.7,0-4.7,1.3-5.8,3.1c-1.1,1.8-1.6,4.1-1.6,6.3
		c0,1.4,0.2,2.8,0.5,4c-0.6,0.4-1.4,1.1-2.1,2.1c-0.4-1.3-1.1-2.6-2.3-3.4c0.2-1,0.4-2,0.4-3c0-4.5-2.7-9.1-8.2-9.1
		c-0.2,0-0.5,0-0.8,0c-4.4,0.3-7.5,4.3-7.5,8.8c0,2.3,0.8,4.7,2.5,6.9c-0.4,1-0.6,2.3-0.6,3.6c0,2.3,0.7,4.9,2.6,6.6
		c-0.4,0.9-0.5,1.9-0.5,3c0,2.7,1,5.7,3.2,7.4c-0.2,1.1-0.4,2.1-0.4,3.1c0,6.4,4.7,10,8.7,10.3c0.2,0,0.4,0,0.6,0
		c2.3,0,4.7-0.9,6.4-2.8c1.7-1.8,2.9-4.6,2.9-8.1c1.6-0.7,2.5-2.1,3-3.3c0.8,1.4,1.9,2.6,3.1,3.2c-0.1,0.5-0.1,1-0.1,1.5
		c-0.1,4.5,2.4,9.4,7.8,9.5h0.2h0c2.8,0,5.1-1,6.6-2.7c1.6-1.7,2.3-4.2,2.3-6.9c0-0.4,0-0.8,0-1.2c2.3-1.1,3.7-4.1,3.7-7.1
		c0-1.4-0.3-2.9-1.1-4.2c2.2-1.5,3.3-4.5,3.3-7.4c0-1.6-0.3-3.1-1-4.4c1.6-1.8,2.4-4.3,2.4-6.8C188.5,373,186.4,368.7,181.8,368.1
		 M182.2,394.5l-1.1,0.4l0.7,0.9c0.9,1.2,1.3,2.6,1.3,4c0,2.7-1.6,5.3-3.1,5.7l-0.7,0.2l0.1,0.8c0.1,0.6,0.1,1.1,0.1,1.6
		c-0.1,4.9-2.5,7.8-7.2,7.9h-0.2c-4.1-0.1-6-3.8-6.1-7.7c0-0.7,0.1-1.3,0.2-1.9l0.1-0.8l-0.8-0.2c-1.1-0.2-3.3-2.8-3.7-4.9l-1.5-6.5
		l-0.3,6.7c0,0,0,1-0.5,2.2c-0.4,1.2-1.2,2.2-2.5,2.6l-0.7,0.2l0,0.7c0,0.2,0,0.3,0,0.5c0,6.4-3.8,9.2-7.5,9.2c-0.2,0-0.3,0-0.5,0
		c-3.1-0.2-7-3.1-7-8.5c0-1,0.1-2.1,0.4-3.3l0.2-0.7l-0.6-0.3c-1.8-1-2.9-3.8-2.9-6.2c0-1.2,0.3-2.2,0.6-2.8l0.5-0.7l-0.7-0.5
		c-1.6-1-2.4-3.3-2.4-5.6c0-1.3,0.3-2.5,0.7-3.3l0.3-0.5l-0.4-0.4c-1.7-2-2.4-4.2-2.4-6.2c0-3.8,2.4-6.8,5.8-7c0.2,0,0.4,0,0.6,0
		c4.3,0,6.3,3.4,6.4,7.3c0,1.1-0.2,2.1-0.5,3.2l-0.2,0.7l0.7,0.3c1,0.4,1.8,1.8,2.2,3.2c0.4,1.4,0.5,2.6,0.5,2.6l1.8,0
		c0.1-1.8,0.9-2.9,1.5-3.6c0.3-0.4,0.7-0.6,0.9-0.8c0.2-0.2,0.3-0.2,0.3-0.2l0.8-0.3l-0.3-0.8c-0.4-1.1-0.7-2.6-0.7-4.1
		c0.1-3.9,1.5-7.6,5.6-7.6c4.3,0,6.3,4,6.4,8c0,1.3-0.2,2.6-0.7,3.6l-0.4,0.8l0.8,0.4c1.5,0.6,2.3,1.9,2.7,3.1
		c0.4,1.2,0.4,2.2,0.4,2.2l1.8,0c0-2.6,1.1-4.6,2.9-5.4l0.7-0.3l-0.2-0.8c-0.4-1.3-0.6-2.6-0.6-3.7c0-4.6,3-7.7,6.8-7.8
		c0.3,0,0.6,0,0.9,0.1c3.5,0.4,5.2,3.6,5.2,7.1c0,2.4-0.9,4.7-2.4,6l-0.6,0.5l0.5,0.7c0.7,1,1.1,2.5,1.1,4
		C185.4,391,184.1,393.8,182.2,394.5"/>
	<path class="st6" d="M231,390.8l-0.3-0.4l0.2-0.5c0.7-1.5,1-3,1-4.5c0-4-2.1-7.2-5.6-7.5l-0.7-0.1l-0.1-0.7
		c-0.6-4.8-3.4-6.9-6.4-6.9c-1.3,0-2.7,0.4-3.9,1.3l-0.6,0.4l-0.5-0.5c-1.4-1.3-3-1.8-4.6-1.8c-3.3,0-6.5,2.5-6.7,6.4l-0.1,1l-1-0.2
		c-0.4-0.1-0.7-0.1-1.1-0.1c-3.3,0-5.9,3.4-5.9,7.3c0,1.1,0.2,2.2,0.7,3.2l0.3,0.6l-0.5,0.4c-1.5,1.3-2.3,3.6-2.3,6
		c0,3,1.3,5.8,3.7,6.7l0.7,0.3L197,402c-0.2,0.9-0.3,1.7-0.3,2.5c0,4.6,3.3,7.9,6.5,7.9c0.8,0,1.6-0.2,2.5-0.6l0.7-0.4l0.4,0.7
		c1.8,2.8,4.1,3.9,6.4,3.9c2.5,0,4.9-1.4,6-3.5l0.4-0.8l0.8,0.4c0.9,0.5,1.7,0.7,2.4,0.7c2.9,0,5.5-3.2,5.5-6.9c0-0.5,0-1-0.1-1.5
		l-0.1-0.8l0.8-0.2c2.4-0.7,3.8-3.7,3.8-7C232.7,394.2,232.1,392.2,231,390.8 M222.6,392.2c0,0-0.6,0.4-1.3,1.2
		c-0.7,0.8-1.3,2.1-1.3,3.7c0,0.6,0.1,1.2,0.3,1.9l0.5,1.6l-1.6-0.5c0,0-0.5-0.2-1.3-0.2c-1.4,0.1-3.4,0.4-4.5,3.7l-0.9,2.7
		l-0.8-2.8c0,0-0.3-1.2-1.2-2.4c-0.9-1.2-2.1-2.3-4.1-2.3c-0.2,0-0.3,0-0.5,0l-1.7,0.2l0.9-1.5c0,0,0.2-0.3,0.4-0.8
		c0.2-0.6,0.4-1.3,0.4-2.3c0-1.3-0.4-2.9-1.8-4.6l-1.1-1.3l1.7-0.1c0,0,0.2,0,0.7-0.1c0.4-0.1,1-0.3,1.6-0.7
		c1.2-0.8,2.3-2.1,2.5-4.8l0.1-2.1l1.4,1.5c0,0,0.3,0.3,0.9,0.7c0.6,0.4,1.5,0.7,2.5,0.7c0.8,0,1.8-0.2,2.9-1l1.7-1.2l-0.3,2
		c0,0-0.1,0.3-0.1,0.9c0,1.8,0.4,5.1,3.8,6.1l1.8,0.6L222.6,392.2z"/>
	<path class="st7" d="M233.6,385.4c0-4.3-2.3-8.4-6.5-9.2c-0.8-5.1-4.3-7.8-8-7.8c-1.5,0-3,0.4-4.4,1.3c-1.6-1.3-3.4-1.8-5.2-1.8
		c-3.9,0-7.7,2.8-8.4,7.1c-0.2,0-0.3,0-0.5,0c-4.7,0-7.7,4.5-7.7,9.1c0,1.1,0.2,2.3,0.6,3.4c-1.7,1.8-2.5,4.3-2.5,6.9
		c0,3.2,1.3,6.5,4.1,8c-0.1,0.7-0.2,1.5-0.2,2.2c0,5.5,3.8,9.7,8.3,9.7c0.9,0,1.7-0.2,2.6-0.5c2,2.8,4.8,4.1,7.4,4.1h0
		c2.9,0,5.6-1.4,7.1-3.7c0.9,0.3,1.7,0.5,2.5,0.5c4.3,0,7.3-4.2,7.3-8.7c0-0.4,0-0.7-0.1-1.1c3-1.4,4.3-5,4.3-8.4
		c0-2.2-0.6-4.4-1.8-6.1C233.3,388.6,233.6,387,233.6,385.4 M228.8,403.3l-0.8,0.2l0.1,0.8c0.1,0.5,0.1,1,0.1,1.5
		c0,3.7-2.6,6.9-5.5,6.9c-0.8,0-1.6-0.2-2.4-0.7l-0.8-0.4l-0.4,0.8c-1.1,2.1-3.5,3.5-6,3.5c-2.3,0-4.6-1.1-6.3-3.9l-0.4-0.7
		l-0.7,0.4c-0.8,0.4-1.7,0.6-2.5,0.6c-3.3,0-6.5-3.3-6.5-7.9c0-0.8,0.1-1.6,0.3-2.5l0.2-0.7l-0.7-0.3c-2.4-0.9-3.7-3.7-3.7-6.7
		c0-2.4,0.8-4.7,2.3-6l0.5-0.4l-0.3-0.6c-0.5-1-0.7-2.2-0.7-3.2c0-3.9,2.6-7.3,5.9-7.3c0.3,0,0.7,0,1.1,0.1l1,0.2l0.1-1
		c0.2-3.9,3.4-6.4,6.7-6.4c1.6,0,3.2,0.6,4.6,1.8l0.5,0.5l0.6-0.4c1.2-0.9,2.6-1.3,3.9-1.3c2.9,0,5.8,2.1,6.4,6.9l0.1,0.7l0.7,0.1
		c3.5,0.3,5.6,3.5,5.6,7.5c0,1.5-0.3,3.1-1,4.5l-0.2,0.5l0.3,0.4c1.1,1.4,1.7,3.4,1.7,5.5C232.7,399.5,231.2,402.6,228.8,403.3"/>
	<path class="st7" d="M218.6,384.5c0-0.6,0.1-0.9,0.1-0.9l0.3-2l-1.7,1.2c-1.1,0.8-2,1-2.9,1c-1,0-1.9-0.4-2.5-0.7
		c-0.6-0.4-0.9-0.7-0.9-0.7l-1.4-1.5l-0.1,2.1c-0.2,2.8-1.4,4.1-2.5,4.8c-0.6,0.4-1.2,0.6-1.6,0.7c-0.4,0.1-0.7,0.1-0.7,0.1
		l-1.7,0.1l1.1,1.3c1.4,1.7,1.8,3.3,1.8,4.6c0,0.9-0.2,1.7-0.4,2.3c-0.2,0.6-0.4,0.8-0.4,0.8l-0.9,1.5l1.7-0.2c0.2,0,0.3,0,0.5,0
		c2,0,3.2,1.1,4.1,2.3c0.9,1.2,1.2,2.4,1.2,2.4l0.8,2.8l0.9-2.7c1.2-3.3,3.1-3.7,4.5-3.7c0.8,0,1.3,0.2,1.3,0.2l1.6,0.5l-0.5-1.6
		c-0.2-0.7-0.3-1.3-0.3-1.9c0-1.6,0.6-2.8,1.3-3.7c0.7-0.8,1.3-1.2,1.3-1.2l1.6-1l-1.8-0.6C219.1,389.6,218.6,386.2,218.6,384.5
		 M218.3,397.1c0,0.3,0,0.7,0.1,1.1c-0.1,0-0.3,0-0.4,0c-1.5,0-3.8,0.6-5.3,3c-0.9-1.6-2.5-3.6-5.4-4c0.2-0.7,0.4-1.6,0.4-2.7
		c0-1.4-0.3-3-1.4-4.6c1.6-0.5,4-1.9,4.8-5.4c0.8,0.5,2,1,3.4,1c0.8,0,1.6-0.2,2.4-0.5c0.1,1.9,0.7,5,3.7,6.7
		C219.5,392.7,218.3,394.5,218.3,397.1"/>
	<path class="st6" d="M270.4,374.4c-1.3-2-3.3-3.1-5.2-3.1c-1,0-1.9,0.3-2.7,0.9l-0.9,0.6l-0.4-1c-0.5-1.2-2.5-2.3-4.6-2.3
		c-1.6,0-3.2,0.6-4.2,2l-0.5,0.7l-0.7-0.5c-1.6-1-3.1-1.5-4.3-1.5c-3.6,0-6.1,3.5-6.1,7.4c0,1.6,0.4,3.3,1.4,4.7l0.5,0.7l-0.7,0.5
		c-1.2,0.9-1.8,2.3-1.8,4c0,1.5,0.5,3,1.3,4.2l0.6,0.7l-0.8,0.5c-0.9,0.6-1.6,2.4-1.6,4.4c0,2,0.7,3.9,1.9,4.8l0.6,0.5l-0.4,0.7
		c-1.2,1.9-1.7,3.7-1.7,5.3c0,4,2.9,7,6.4,7h0.1c3,0,5.5-3.5,5.5-7.4c0-1.6-0.4-3.1-1.2-4.5l-0.5-0.8l0.9-0.4c0.8-0.3,1.1-1.6,1-2.4
		c0-0.1,0-0.2,0-0.3l1.8-0.1c0.2,2,1,2.8,1.8,3.3c0.8,0.5,1.5,0.5,1.5,0.5l1.2,0l-0.3,1.1c-0.3,0.9-0.4,1.8-0.4,2.7
		c0,4.6,3.2,8.6,7,8.6c0.9,0,1.9-0.2,2.9-0.7c2.5-1.2,3.7-4,3.7-6.9c0-3.3-1.6-6.3-3.9-6.9l-0.7-0.2l0-0.7c0-0.2,0-0.3,0-0.5
		c0-2.4-1.1-3.3-1.5-3.7c-0.2-0.1-0.2-0.1-0.2-0.1l-3.1-1.4l3.4-0.3c2.8-0.3,3.9-2.7,3.9-5.3c0-1-0.2-2-0.5-2.7l-0.2-0.6l0.6-0.4
		c1.6-1.1,2.4-3.4,2.4-5.9C271.8,377.7,271.3,375.8,270.4,374.4 M260.2,388.4l1,2.7l-2.4-1.7c-0.6-0.4-1.8-0.9-3.1-0.9
		c-1.1,0-2.2,0.3-3.3,1.1l-2.7,2.1l1.4-3.1c0,0,0.5-1.2,0.5-3c0-1.1-0.2-2.4-0.9-3.6l-2.4-4.2l3.7,3c1.2,1,2.6,1.3,3.9,1.3
		c1.2,0,2.3-0.3,3.1-0.6c0.8-0.3,1.3-0.5,1.3-0.5l1,1.5c-0.8,0.6-1.5,1.8-1.5,3.4C259.8,386.7,259.9,387.5,260.2,388.4"/>
	<path class="st7" d="M271.9,373.4c-1.6-2.5-4.1-3.9-6.7-3.9c-1,0-2,0.2-3,0.7c-1.2-1.6-3.5-2.5-5.7-2.5c-1.8,0-3.7,0.6-5.1,2.1
		c-1.6-0.9-3.1-1.3-4.6-1.3c-4.9,0-7.9,4.6-7.9,9.2c0,1.7,0.4,3.4,1.3,5c-1.3,1.3-1.9,3.1-1.9,4.9c0,1.6,0.4,3.2,1.2,4.6
		c-1.2,1.3-1.7,3.2-1.7,5.2c0,2.1,0.6,4.2,2,5.7c-1.1,1.9-1.6,3.8-1.6,5.6c0,4.9,3.7,8.8,8.2,8.8l0,0c4.5-0.1,7.3-4.7,7.3-9.2
		c0-1.6-0.3-3.2-1.1-4.7c0.2-0.2,0.4-0.4,0.5-0.6c0.5,0.7,1.1,1.3,1.7,1.6c0.5,0.3,0.9,0.4,1.3,0.6c-0.1,0.7-0.2,1.5-0.2,2.2
		c0,5.3,3.7,10.3,8.8,10.4c1.2,0,2.5-0.3,3.7-0.9c3.3-1.7,4.7-5.2,4.7-8.5c0-3.5-1.5-7.1-4.5-8.4c0-1.9-0.6-3.2-1.3-4.1
		c2.7-1.1,3.8-4.1,3.7-6.6c0-0.9-0.1-1.9-0.4-2.7c1.9-1.7,2.6-4.3,2.7-6.9C273.6,377.4,273,375.2,271.9,373.4 M269.4,385.5l-0.6,0.4
		l0.2,0.6c0.3,0.7,0.5,1.7,0.5,2.7c0,2.6-1.1,5-3.9,5.3l-3.4,0.3l3.1,1.4c0,0,0,0,0.2,0.1c0.5,0.4,1.5,1.3,1.5,3.7
		c0,0.2,0,0.3,0,0.5l0,0.7l0.7,0.2c2.3,0.6,3.9,3.6,3.9,6.9c0,2.9-1.2,5.7-3.7,6.9c-1,0.5-2,0.7-2.9,0.7c-3.8,0-7-4-7-8.6
		c0-0.9,0.1-1.8,0.4-2.7l0.3-1.1l-1.2,0c0,0-0.7,0-1.5-0.5c-0.8-0.5-1.6-1.3-1.8-3.3l-1.8,0.1c0,0.1,0,0.2,0,0.3
		c0,0.8-0.2,2.1-1,2.4l-0.9,0.4l0.5,0.8c0.8,1.4,1.2,2.9,1.2,4.5c0,3.9-2.4,7.4-5.5,7.4l-0.1,0c-3.5,0-6.4-3-6.4-7
		c0-1.6,0.5-3.4,1.7-5.3l0.4-0.7l-0.6-0.5c-1.2-0.9-1.9-2.9-1.9-4.8c0-1.9,0.7-3.8,1.6-4.3l0.8-0.5l-0.6-0.7
		c-0.9-1.2-1.4-2.7-1.3-4.2c0-1.6,0.6-3.1,1.8-4l0.7-0.5l-0.5-0.7c-1-1.4-1.4-3.1-1.4-4.7c0-3.9,2.6-7.4,6.1-7.4
		c1.2,0,2.7,0.4,4.3,1.5l0.7,0.5l0.5-0.7c1-1.4,2.5-2,4.2-2c2.1,0,4.1,1.1,4.6,2.3l0.4,1l0.9-0.6c0.8-0.6,1.8-0.9,2.7-0.9
		c1.9,0,3.9,1.1,5.2,3.1c0.9,1.4,1.4,3.4,1.4,5.3C271.8,382.1,271,384.4,269.4,385.5"/>
	<path class="st7" d="M261.3,382.5l-1-1.5c0,0-0.5,0.3-1.3,0.5c-0.8,0.3-1.9,0.6-3.1,0.5c-1.3,0-2.7-0.3-3.9-1.3l-3.7-3l2.4,4.2
		c0.7,1.3,0.9,2.5,0.9,3.6c0,1.7-0.6,3-0.5,3l-1.4,3.1l2.7-2.1c1-0.8,2.1-1.1,3.3-1.1c1.3,0,2.5,0.4,3.1,0.9l2.4,1.7l-1-2.7
		c-0.3-0.9-0.5-1.7-0.5-2.4C259.8,384.3,260.5,383.1,261.3,382.5 M253.3,387.2c0.1-0.5,0.1-1,0.1-1.6c0-0.7-0.1-1.4-0.2-2.1
		c0.9,0.3,1.8,0.4,2.7,0.4c0.9,0,1.8-0.1,2.5-0.3c-0.3,0.7-0.4,1.5-0.4,2.4c0,0.4,0,0.8,0.1,1.2c-0.7-0.2-1.5-0.3-2.4-0.3
		C255,386.8,254.1,386.9,253.3,387.2"/>
	<path class="st6" d="M305,409.1c-0.3-3.6-2.3-5.9-5-5.9c-0.9,0-2,0.3-3.1,0.9l-0.7,0.4l-0.4-0.6c-0.8-1.1-1.6-1.3-2.3-1.3
		c-0.5,0-1,0.2-1.3,0.3c-0.4,0.2-0.5,0.3-0.5,0.3l-7.1,5.2l5.9-6.5c1-1.1,1.5-2.7,1.5-4.4c0-2-0.7-3.9-1.8-4.9l-0.7-0.6l0.6-0.7
		c1-1.1,1.5-2.7,1.5-4.4c0-2.1-0.8-4.2-1.8-4.9l-0.5-0.4l0.2-0.6c0.6-1.5,0.9-3.1,0.9-4.6c-0.1-3.7-1.7-6.4-5.9-6.5h-0.2
		c-4,0.1-5.8,3.4-5.9,7.2c0,1.8,0.5,3.6,1.4,5l0.4,0.7l-0.6,0.5c-0.9,0.7-1.6,2.5-1.6,4.4c0,1.7,0.5,3.4,1.5,4.3l0.7,0.6l-0.7,0.7
		c-0.9,0.8-1.6,2.7-1.6,4.5c0,1.8,0.6,3.5,2,4.6l0.7,0.5l-0.5,0.7c-1.3,1.8-1.9,3.8-1.9,5.6c0,4,2.7,7.1,6,7.1c1.4,0,3-0.5,4.7-2
		l0.7-0.6l0.6,0.8c0.8,1.2,1.8,1.5,2.9,1.6c1.1,0,2.3-0.6,3-1.2l0.5-0.5l0.6,0.5c1.2,0.9,2.3,1.2,3.2,1.2c2.5,0,4.5-2.7,4.6-6.2
		C305,409.5,305,409.3,305,409.1"/>
	<path class="st7" d="M300,401.4c-1,0-2.2,0.2-3.3,0.8c-1-1-2.2-1.4-3.2-1.4c-0.1,0-0.2,0-0.4,0c0.4-1.1,0.6-2.2,0.6-3.4
		c0-2.1-0.6-4.1-1.8-5.6c1-1.4,1.5-3.2,1.5-4.9c0-2.3-0.7-4.5-2-5.9c0.5-1.5,0.8-3.1,0.8-4.7c0-2.1-0.6-4.2-1.8-5.7
		c-1.3-1.6-3.3-2.5-5.9-2.5c-0.1,0-0.2,0-0.3,0c-5.2,0.1-7.6,4.7-7.6,9c0,1.9,0.4,3.7,1.3,5.3c-1.2,1.3-1.7,3.3-1.7,5.2
		c0,1.8,0.4,3.6,1.5,4.9c-1,1.3-1.5,3.2-1.5,5.2c0,1.9,0.6,4,2,5.4c-1.2,1.9-1.7,4-1.7,5.9c0,4.7,3.2,8.9,7.8,8.9
		c1.6,0,3.4-0.6,5.1-1.8c1.1,1.1,2.4,1.6,3.7,1.6c1.4,0,2.7-0.5,3.7-1.3c1.3,0.8,2.5,1.2,3.7,1.2c3.9,0,6.3-3.9,6.3-8
		c0-0.2,0-0.5,0-0.7C306.5,404.8,303.9,401.4,300,401.4 M300.5,415.8c-0.9,0-2-0.3-3.2-1.2l-0.6-0.5l-0.5,0.5
		c-0.6,0.7-1.8,1.2-3,1.2c-1,0-2-0.4-2.9-1.6l-0.6-0.8l-0.7,0.6c-1.7,1.4-3.3,2-4.7,2c-3.3,0-6-3.1-6-7.1c0-1.8,0.5-3.7,1.9-5.6
		l0.5-0.7l-0.7-0.5c-1.4-1-2-2.8-2-4.6c0-1.9,0.7-3.8,1.6-4.5l0.7-0.7l-0.7-0.6c-1-0.9-1.5-2.6-1.5-4.3c0-1.9,0.7-3.7,1.6-4.4
		l0.6-0.5l-0.4-0.7c-0.9-1.4-1.4-3.2-1.4-5c0.1-3.8,1.9-7.1,5.9-7.2l0.2,0c4.2,0.1,5.8,2.7,5.9,6.5c0,1.5-0.3,3.1-0.9,4.6l-0.2,0.6
		l0.5,0.4c1,0.8,1.8,2.9,1.8,4.9c0,1.7-0.5,3.3-1.5,4.4l-0.6,0.6l0.7,0.6c1.1,1,1.8,3,1.8,4.9c0,1.7-0.5,3.4-1.5,4.4l-6,6.5l7.1-5.2
		c0,0,0.2-0.1,0.5-0.3c0.4-0.2,0.8-0.3,1.3-0.3c0.7,0,1.4,0.2,2.3,1.3l0.5,0.6l0.7-0.4c1.2-0.6,2.2-0.9,3.1-0.9c2.8,0,4.8,2.3,5,5.9
		c0,0.2,0,0.4,0,0.6C305,413.1,303,415.8,300.5,415.8"/>
	<path class="st6" d="M343.8,392.3l-0.3-0.5l0.3-0.5c1.2-2.2,1.8-4.5,1.8-6.6c0-5.5-3.6-9.8-9-9.8c-0.3,0-0.7,0-1,0l-0.7,0.1
		l-0.2-0.7c-1-3.2-3.5-4.6-6.3-4.6c-1.8,0-3.6,0.6-5.1,1.9l-0.5,0.4l-0.6-0.4c-2-1.5-3.9-2.1-5.5-2.1c-4,0-6.9,3.7-6.9,7.7
		c0,1.4,0.4,2.7,1.1,4l0.4,0.6l-0.6,0.5c-0.9,0.7-1.5,2.4-1.5,4.2c0,1.7,0.6,3.5,1.7,4.4l0.7,0.6l-0.7,0.7c-1,1-1.6,2.8-1.6,4.5
		c0,1.9,0.7,3.5,1.8,4.2l0.9,0.5l-0.7,0.8c-1.4,1.7-2,3.6-2,5.5c0,4.2,3,7.8,6.2,7.8c1.5,0,3.1-0.7,4.8-2.6l0.7-0.8l0.7,0.9
		c1.5,2,3.5,2.8,5.5,2.8c3.5,0,7.1-2.6,7.8-6.3l0.2-0.9l0.9,0.2c0.7,0.1,1.4,0.2,2,0.2c5.2,0,8-4.7,8-9.8
		C346.1,396.9,345.3,394.3,343.8,392.3 M336.2,395.1c-2.3,0.4-3.9,3.2-3.9,6.7c0,0.3,0,0.5,0,0.8l0.3,3l-1.8-2.4
		c-0.8-1-2-1.7-3.4-1.7c-1.1,0-2.2,0.4-3.4,1.5l-4,3.6l2.6-4.7c0.8-1.4,1.1-3,1.1-4.4c0-2.3-0.9-4.4-1.8-5.2l-0.5-0.5l0.4-0.6
		c1-1.5,1.3-2.8,1.3-3.9c0-1.8-0.8-3.2-1.2-3.7l0,0l0,0v0c-0.1-0.1-0.1-0.2-0.2-0.2l1.4-1.1c0,0,0.1,0.1,0.3,0.3
		c1.3,1.6,2.9,2.3,4.5,2.3c1.4,0,2.6-0.5,3.5-1.5l1.8-1.9l-0.3,2.6c-0.1,0.5-0.1,1-0.1,1.5c0,3.7,1.7,6.7,3.8,8.1l1.8,1.2
		L336.2,395.1z"/>
	<path class="st7" d="M347.3,384.8c0-6.2-4.3-11.5-10.7-11.6c-0.2,0-0.3,0-0.5,0c-1.4-3.5-4.5-5.2-7.7-5.2c-2,0-4,0.6-5.7,1.9
		c-2.1-1.4-4.1-2-6-2c-5.2,0-8.7,4.7-8.7,9.5c0,1.4,0.3,2.9,1,4.3c-1.1,1.3-1.6,3.1-1.6,5c0,1.8,0.5,3.7,1.7,5.1
		c-1.1,1.4-1.6,3.3-1.6,5.1c0,1.9,0.6,3.9,1.9,5.1c-1.3,1.9-1.9,3.9-1.9,5.9c0,4.9,3.4,9.5,8,9.6c1.8,0,3.7-0.8,5.4-2.4
		c1.8,1.9,4,2.7,6.2,2.7h0c4.1,0,8-2.7,9.3-6.9c0.5,0.1,1,0.1,1.5,0.1c6.5,0,9.8-5.9,9.8-11.6c0-2.8-0.7-5.5-2.2-7.8
		C346.8,389.4,347.3,387.1,347.3,384.8 M338.1,409.4c-0.6,0-1.3-0.1-2-0.2l-0.9-0.2l-0.2,0.9c-0.8,3.7-4.3,6.3-7.8,6.3
		c-2,0-4-0.8-5.5-2.8l-0.7-0.9l-0.7,0.8c-1.7,1.9-3.3,2.6-4.8,2.6c-3.2,0-6.2-3.6-6.2-7.8c0-1.9,0.6-3.8,2-5.5l0.7-0.8l-0.9-0.5
		c-1.2-0.7-1.8-2.4-1.8-4.2c0-1.8,0.6-3.6,1.6-4.5l0.7-0.7l-0.7-0.6c-1.1-0.9-1.7-2.7-1.7-4.4c0-1.8,0.6-3.5,1.5-4.2l0.6-0.5
		l-0.4-0.6c-0.8-1.3-1.1-2.6-1.1-4c0-4,2.9-7.7,6.9-7.7c1.6,0,3.5,0.6,5.5,2.1l0.6,0.4l0.5-0.4c1.5-1.2,3.3-1.9,5.1-1.9
		c2.8,0,5.3,1.4,6.3,4.6l0.2,0.7l0.7-0.1c0.3,0,0.7-0.1,1-0.1c5.4,0,8.9,4.3,9,9.8c0,2.1-0.5,4.4-1.8,6.6l-0.3,0.5l0.3,0.5
		c1.5,2,2.2,4.6,2.2,7.2C346,404.7,343.3,409.4,338.1,409.4"/>
	<path class="st7" d="M332.7,385.4c0-0.5,0-1,0.1-1.5l0.3-2.6l-1.8,1.9c-0.9,0.9-2.2,1.5-3.5,1.5c-1.6,0-3.2-0.7-4.5-2.3
		c-0.1-0.2-0.2-0.3-0.3-0.3l-1.4,1.1c0.1,0.1,0.1,0.2,0.2,0.3v0l0,0l0,0c0.4,0.5,1.2,1.9,1.2,3.7c0,1.1-0.3,2.4-1.3,3.9l-0.4,0.6
		l0.5,0.5c0.9,0.8,1.8,2.9,1.8,5.2c0,1.4-0.3,3-1.1,4.4l-2.6,4.7l4-3.6c1.2-1.1,2.4-1.5,3.4-1.5c1.4,0,2.6,0.7,3.4,1.7l1.8,2.4
		l-0.3-3c0-0.2,0-0.5,0-0.8c0-3.5,1.6-6.2,3.9-6.7l2.1-0.4l-1.8-1.2C334.4,392.1,332.7,389.1,332.7,385.4 M330.6,400.6
		c-0.9-0.6-2-0.9-3.2-0.9h0c-0.7,0-1.5,0.1-2.2,0.4c0.2-0.9,0.3-1.8,0.3-2.7c0-2.4-0.8-4.6-1.9-6c0.9-1.5,1.2-3,1.2-4.3
		c0-0.5-0.1-1-0.1-1.4c1,0.5,2,0.7,3.1,0.7c1.1,0,2.2-0.3,3.2-0.8c0.1,3.4,1.4,6.4,3.3,8.3C332.1,395.2,330.9,397.8,330.6,400.6"/>
	<path class="st6" d="M403.8,390.8l-0.3-0.4l0.2-0.5c0.7-1.5,1-3,1-4.5c0-4-2.1-7.2-5.6-7.5l-0.7-0.1l-0.1-0.7
		c-0.6-4.8-3.4-6.9-6.4-6.9c-1.3,0-2.7,0.4-3.9,1.3l-0.6,0.4l-0.5-0.5c-1.4-1.3-3-1.8-4.6-1.8c-3.3,0-6.5,2.5-6.7,6.4l-0.1,1l-1-0.2
		c-0.4-0.1-0.7-0.1-1.1-0.1c-3.3,0-5.9,3.4-5.9,7.3c0,1.1,0.2,2.2,0.7,3.2l0.3,0.6l-0.5,0.4c-1.5,1.3-2.3,3.6-2.3,6
		c0,3,1.3,5.8,3.7,6.7l0.7,0.3l-0.2,0.7c-0.2,0.9-0.3,1.7-0.3,2.5c0,4.6,3.2,7.9,6.5,7.9c0.8,0,1.7-0.2,2.5-0.6l0.7-0.4l0.4,0.7
		c1.7,2.8,4.1,3.9,6.3,3.9c2.5,0,4.9-1.4,6-3.5l0.4-0.8l0.8,0.4c0.9,0.5,1.7,0.7,2.4,0.7c2.9,0,5.5-3.2,5.5-6.9c0-0.5-0.1-1-0.1-1.5
		l-0.1-0.8l0.8-0.2c2.3-0.7,3.8-3.7,3.8-7C405.5,394.2,404.9,392.2,403.8,390.8 M395.5,392.2c0,0-0.6,0.4-1.3,1.2
		c-0.7,0.8-1.3,2.1-1.3,3.7c0,0.6,0.1,1.2,0.3,1.9l0.5,1.6l-1.6-0.5c0,0-0.5-0.2-1.3-0.2c-1.4,0.1-3.4,0.4-4.5,3.7l-0.9,2.7
		l-0.8-2.8c0,0-0.3-1.2-1.2-2.4c-0.9-1.2-2.1-2.3-4.1-2.3c-0.2,0-0.3,0-0.5,0l-1.8,0.2l0.9-1.5c0,0,0.2-0.3,0.4-0.8
		c0.2-0.6,0.4-1.3,0.4-2.3c0-1.3-0.4-2.9-1.8-4.6l-1.1-1.3l1.7-0.2c0,0,0.2,0,0.7-0.1c0.4-0.1,1-0.3,1.6-0.7
		c1.2-0.8,2.3-2.1,2.5-4.8l0.1-2.1l1.4,1.5c0,0,0.3,0.3,0.9,0.7c0.6,0.4,1.5,0.7,2.5,0.7c0.8,0,1.8-0.2,2.9-1l1.7-1.2l-0.3,2
		c0,0,0,0.3,0,0.9c0,1.8,0.4,5.1,3.8,6.1l1.8,0.6L395.5,392.2z"/>
	<path class="st7" d="M406.4,385.4c0-4.3-2.3-8.4-6.5-9.2c-0.8-5.1-4.3-7.8-8-7.8c-1.5,0-3,0.4-4.4,1.3c-1.6-1.3-3.4-1.8-5.2-1.8
		c-3.9,0-7.7,2.8-8.4,7.1c-0.2,0-0.3,0-0.5,0c-4.6,0-7.7,4.5-7.7,9.1c0,1.1,0.2,2.3,0.6,3.4c-1.7,1.8-2.5,4.3-2.5,6.9
		c0,3.2,1.3,6.5,4.1,8c-0.1,0.7-0.2,1.5-0.2,2.2c0,5.5,3.8,9.7,8.3,9.7c0.9,0,1.7-0.2,2.6-0.5c2,2.8,4.8,4.1,7.4,4.1h0
		c2.9,0,5.6-1.4,7.1-3.7c0.9,0.4,1.7,0.5,2.5,0.5c4.3-0.1,7.3-4.2,7.3-8.7c0-0.4,0-0.7-0.1-1.1c3-1.4,4.3-5,4.4-8.4
		c0-2.2-0.6-4.4-1.8-6.1C406.1,388.6,406.4,387,406.4,385.4 M401.7,403.3l-0.8,0.2l0.1,0.8c0.1,0.5,0.1,1,0.1,1.5
		c0,3.7-2.6,6.9-5.5,6.9c-0.8,0-1.6-0.2-2.4-0.7l-0.8-0.4l-0.4,0.8c-1.1,2.1-3.5,3.5-6,3.5c-2.2,0-4.6-1.1-6.3-3.9l-0.4-0.7
		l-0.7,0.4c-0.8,0.4-1.7,0.6-2.5,0.6c-3.3,0-6.5-3.3-6.5-7.9c0-0.8,0.1-1.6,0.3-2.5l0.2-0.7l-0.7-0.3c-2.4-0.9-3.7-3.7-3.7-6.7
		c0-2.4,0.8-4.7,2.3-6l0.5-0.4l-0.3-0.6c-0.5-1-0.7-2.1-0.7-3.2c0-3.9,2.6-7.3,5.9-7.3c0.3,0,0.7,0,1.1,0.1l1,0.2l0.1-1
		c0.2-3.9,3.4-6.4,6.7-6.4c1.6,0,3.2,0.6,4.6,1.8l0.5,0.5l0.6-0.4c1.2-0.9,2.6-1.3,3.9-1.3c2.9,0,5.8,2.1,6.4,6.9l0.1,0.7l0.7,0.1
		c3.5,0.3,5.6,3.5,5.6,7.5c0,1.5-0.3,3.1-0.9,4.5l-0.2,0.5l0.3,0.4c1.1,1.4,1.7,3.4,1.7,5.5C405.5,399.5,404,402.6,401.7,403.3"/>
	<path class="st7" d="M391.5,384.5c0-0.5,0-0.9,0-0.9l0.3-2l-1.7,1.2c-1.1,0.8-2,1-2.9,1c-1,0-1.9-0.4-2.5-0.7
		c-0.6-0.4-0.9-0.7-0.9-0.7l-1.4-1.5l-0.1,2.1c-0.2,2.8-1.4,4.1-2.5,4.8c-0.6,0.4-1.2,0.6-1.6,0.7c-0.4,0.1-0.7,0.1-0.7,0.1
		l-1.7,0.1l1.1,1.3c1.4,1.7,1.8,3.3,1.8,4.6c0,0.9-0.2,1.7-0.4,2.3c-0.2,0.6-0.4,0.8-0.4,0.8l-0.9,1.5l1.8-0.2c0.1,0,0.3,0,0.5,0
		c2,0,3.2,1.1,4.1,2.3c0.9,1.2,1.2,2.4,1.2,2.4l0.8,2.8l0.9-2.7c1.2-3.3,3.1-3.7,4.5-3.7c0.8,0,1.3,0.2,1.3,0.2l1.6,0.5l-0.5-1.6
		c-0.2-0.7-0.3-1.3-0.3-1.9c0-1.6,0.7-2.8,1.3-3.7c0.7-0.8,1.3-1.2,1.3-1.2l1.6-1l-1.8-0.6C391.9,389.6,391.5,386.2,391.5,384.5
		 M391.1,397.1c0,0.3,0,0.7,0.1,1.1c-0.1,0-0.3,0-0.4,0c-1.5,0-3.8,0.6-5.3,3c-0.9-1.6-2.5-3.6-5.4-4c0.2-0.7,0.4-1.6,0.4-2.7
		c0-1.4-0.3-3-1.4-4.6c1.6-0.5,4-1.9,4.8-5.4c0.8,0.5,2,1,3.4,1c0.8,0,1.6-0.1,2.4-0.5c0.1,1.9,0.7,5,3.7,6.7
		C392.4,392.7,391.1,394.5,391.1,397.1"/>
	<path class="st6" d="M439.3,377.1c0-0.1,0-0.3,0-0.4c-0.3-5.3-3.1-6.9-6.4-7c-2.4,0-5,1-6.8,2.6l-0.6,0.5l-0.6-0.5
		c-2.5-2.1-4.7-2.8-6.5-2.8c-4,0-6.6,3.8-6.7,7.6c0,1.8,0.6,3.5,1.9,4.8l0.7,0.7l-0.8,0.6c-1,0.7-1.6,2.3-1.6,4
		c0,1.7,0.6,3.4,1.4,4.2l0.7,0.6l-0.6,0.6c-1,1-1.6,2.9-1.6,4.8c0,2.1,0.8,4.2,1.9,5.1l0.7,0.5l-0.5,0.7c-1.1,1.5-1.6,3.2-1.6,4.9
		c0,3.8,2.5,7.1,6.3,7.1c0.3,0,0.6,0,0.9-0.1c4.4-0.5,5.9-4.3,5.9-8.4c0-2.3-0.5-4.5-1.3-5.9l-1.4-2.6l2.6,1.4
		c1.7,0.9,3.3,1.3,4.6,1.3c3.1,0,5-2.2,5-5.9c0-0.2,0-0.5,0-0.7c-0.3-3.5-2.7-5.3-5.7-5.3c-0.8,0-1.7,0.1-2.6,0.4l-2.2,0.8l1.2-2.1
		c0.6-1,0.8-1.8,0.8-2.5c0-0.9-0.3-1.6-0.6-2.1c-0.3-0.4-0.5-0.7-0.6-0.7l0,0l0,0l1.2-1.3c1.9,1.6,4,2.3,6,2.3
		C436,384.3,439.3,381.7,439.3,377.1"/>
	<path class="st7" d="M441.1,377.1c0-0.2,0-0.3,0-0.5l-0.9,0l0.9,0c-0.2-6.1-4.2-8.8-8.2-8.7c-2.6,0-5.3,1-7.4,2.5
		c-2.5-1.9-4.9-2.8-7.1-2.8c-5.2,0-8.4,4.8-8.4,9.4c0,1.9,0.5,3.8,1.8,5.4c-1.2,1.3-1.6,3.1-1.6,4.8c0,1.8,0.5,3.5,1.4,4.8
		c-1.1,1.5-1.6,3.5-1.6,5.4c0,2.2,0.6,4.4,2,5.9c-1,1.7-1.5,3.5-1.5,5.3c0,4.5,3.1,8.9,8.1,8.9c0.4,0,0.7,0,1.1-0.1
		c5.6-0.7,7.5-5.7,7.5-10.1c0-1.6-0.2-3.2-0.7-4.6c1.2,0.4,2.3,0.6,3.4,0.6c2,0,3.8-0.8,5-2.2c1.2-1.4,1.8-3.3,1.8-5.4
		c0-0.3,0-0.5,0-0.8c-0.3-4.4-3.7-7-7.5-7c-0.5,0-0.9,0-1.4,0.1c0.2-0.6,0.2-1.2,0.2-1.7c0-0.4,0-0.7-0.1-1c1.4,0.6,2.9,0.9,4.3,0.9
		C436.8,386.1,441.1,382.7,441.1,377.1 M424.9,383.4L424.9,383.4L424.9,383.4c0.1,0.1,0.3,0.3,0.6,0.7c0.3,0.5,0.6,1.2,0.6,2.1
		c0,0.7-0.2,1.6-0.8,2.5l-1.2,2.1l2.2-0.8c0.9-0.3,1.8-0.4,2.6-0.4c3,0,5.4,1.8,5.7,5.3c0,0.2,0,0.5,0,0.7c-0.1,3.6-1.9,5.8-5,5.9
		c-1.3,0-2.8-0.4-4.6-1.3l-2.6-1.4l1.4,2.6c0.7,1.4,1.3,3.7,1.3,5.9c-0.1,4.1-1.5,7.8-5.9,8.4c-0.3,0-0.6,0.1-0.9,0.1
		c-3.8,0-6.3-3.3-6.3-7.1c0-1.7,0.5-3.4,1.6-4.9l0.5-0.7l-0.7-0.5c-1.1-0.8-1.9-2.9-1.9-5.1c0-1.9,0.6-3.7,1.6-4.8l0.6-0.6l-0.7-0.6
		c-0.8-0.7-1.4-2.5-1.4-4.2c0-1.7,0.6-3.2,1.6-4l0.8-0.6l-0.7-0.7c-1.3-1.3-1.9-3-1.9-4.8c0-3.8,2.7-7.6,6.7-7.6
		c1.8,0,4,0.8,6.5,2.8l0.6,0.5l0.6-0.5c1.8-1.6,4.4-2.6,6.8-2.6c3.4,0.1,6.1,1.7,6.5,7c0,0.2,0,0.3,0,0.4c0,4.6-3.3,7.2-7.2,7.2
		c-2,0-4.1-0.7-6-2.3L424.9,383.4z"/>
	<polygon class="st8" points="-16.6,498.1 -24,498.1 -24,490.7 -75.1,490.7 -75.1,498.1 -82.4,498.1 -82.4,512.6 -75.1,512.6 
		-75.1,520 -67.8,520 -67.8,534.3 -89.8,534.3 -89.8,476.1 -31.1,476.1 -31.1,468.7 -23.9,468.7 -23.9,446.7 -31.1,446.7 
		-31.1,439.5 -126.3,439.5 -126.3,446.7 -133.6,446.7 -133.6,454.1 -140.8,454.1 -140.8,556.5 -133.6,556.5 -133.6,563.9 
		-126.3,563.9 -126.3,571.5 -31.3,571.5 -31.3,563.9 -23.9,563.9 -23.9,556.5 -16.6,556.5 	"/>
	<polygon class="st9" points="108,446.7 108,439.5 71.4,439.5 71.4,446.7 64,446.7 64,534.5 49.4,534.5 49.4,446.7 42,446.7 
		42,439.5 5.4,439.5 5.4,446.7 -2,446.7 -2,556.5 5.4,556.5 5.4,563.9 12.9,563.9 12.9,571.5 100.5,571.5 100.5,563.9 108,563.9 
		108,556.5 115.4,556.5 115.4,446.7 	"/>
	<polygon class="st10" points="254.5,446.7 254.5,439.5 217.9,439.5 217.9,446.7 210.6,446.7 210.6,468.7 203.2,468.7 203.2,490.7 
		188.6,490.7 188.6,468.7 181.3,468.7 181.3,446.7 173.9,446.7 173.9,439.5 137.4,439.5 137.4,446.7 130,446.7 130,563.9 
		137.4,563.9 137.4,571.5 173.9,571.5 173.9,563.9 181.3,563.9 181.3,534.6 188.6,534.6 188.6,542 203.2,542 203.2,534.6 
		210.6,534.6 210.6,563.9 217.9,563.9 217.9,571.5 254.5,571.5 254.5,563.9 261.8,563.9 261.8,446.7 	"/>
	<path class="st11" d="M386.3,498.1v-7.3h7.4v-36.6h-7.4v-7.5H379v-7.1h-95.1v7.1h-7.3v117.3h7.3v7.6H379v-7.6h7.3v-7.4h7.4v-43.9
		h-7.4v-7.3H379v-7.3H386.3z M342.1,534.7h-14.6V520h14.6V534.7z M342.1,490.7h-14.6v-14.5h14.6V490.7z"/>
	<path class="st12" d="M525.5,454.1h-7.2v-7.5h-7.4v-7.1h-87.8v7.1h-7.5v7.5h-7.1v109.8h7.1v7.6h36.7v-7.6h7.3V520h14.9v43.9h7.2
		v7.6h36.7v-7.6h7.1V454.1z M459.5,476.1h14.9v14.6h-14.9V476.1z"/>
	<polygon class="st13" points="635.5,534.4 628.1,534.4 628.1,527.3 598.9,527.3 598.9,446.7 591.5,446.7 591.5,439.5 547.6,439.5 
		547.6,446.7 540.2,446.7 540.2,563.9 547.6,563.9 547.6,571.5 628.2,571.5 628.2,563.9 635.5,563.9 	"/>
	<polygon class="st14" points="745.6,534.4 738.2,534.4 738.2,527.3 708.9,527.3 708.9,446.7 701.5,446.7 701.5,439.5 657.7,439.5 
		657.7,446.7 650.3,446.7 650.3,563.9 657.7,563.9 657.7,571.5 738.3,571.5 738.3,563.9 745.6,563.9 	"/>
	<rect x="-133.6" y="461.2" class="st6" width="7.2" height="73.2"/>
	<rect x="-126.3" y="454" class="st6" width="7.2" height="7.2"/>
	<rect x="-133.6" y="542.2" class="st6" width="7.2" height="7.2"/>
	<rect x="-45.9" y="446.7" class="st6" width="7.2" height="7.2"/>
	<rect x="-119.1" y="446.7" class="st6" width="66" height="7.2"/>
	<rect x="415.8" y="461.2" class="st6" width="7.3" height="73.2"/>
	<rect x="423" y="454" class="st6" width="7.2" height="7.2"/>
	<rect x="415.8" y="542.2" class="st6" width="7.2" height="7.2"/>
	<rect x="496.5" y="446.7" class="st6" width="7.2" height="7.2"/>
	<rect x="430.2" y="446.7" class="st6" width="59" height="7.2"/>
	<rect x="5.5" y="454.1" class="st6" width="7.2" height="80.2"/>
	<rect x="12.7" y="446.9" class="st6" width="22" height="7.2"/>
	<rect x="5.1" y="542.2" class="st6" width="7.2" height="7.2"/>
	<rect x="547.7" y="454.1" class="st6" width="7.2" height="80.2"/>
	<rect x="555" y="446.9" class="st6" width="22" height="7.2"/>
	<rect x="547.4" y="542.2" class="st6" width="7.2" height="7.2"/>
	<rect x="657.6" y="454.1" class="st6" width="7.2" height="80.2"/>
	<rect x="664.9" y="446.9" class="st6" width="22" height="7.2"/>
	<rect x="657.3" y="542.2" class="st6" width="7.2" height="7.2"/>
	<rect x="137.4" y="454.1" class="st6" width="7.2" height="80.2"/>
	<rect x="144.6" y="446.9" class="st6" width="22" height="7.2"/>
	<rect x="225.2" y="446.8" class="st6" width="22" height="7.2"/>
	<rect x="137" y="542.2" class="st6" width="7.2" height="7.2"/>
	<rect x="283.9" y="454.1" class="st6" width="7.2" height="80.2"/>
	<rect x="291.1" y="446.9" class="st6" width="65.8" height="7.2"/>
	<rect x="283.6" y="542.2" class="st6" width="7.2" height="7.2"/>
	<rect x="364.4" y="446.9" class="st6" width="7.2" height="7.2"/>
	<rect x="210.4" y="476.1" class="st6" width="7.2" height="14.7"/>
	<rect x="218" y="454" class="st6" width="7.2" height="14.7"/>
	<rect x="71.5" y="454.1" class="st6" width="7.2" height="65.9"/>
	<rect x="78.7" y="446.9" class="st6" width="22" height="7.2"/>
	<rect x="71.1" y="527.8" class="st6" width="7.2" height="7.2"/>
	<polygon class="st7" points="766.1,562.6 763.1,562.6 763.1,561.5 770.4,561.5 770.4,562.6 767.4,562.6 767.4,571.5 766.1,571.5 	
		"/>
	<path class="st7" d="M779.9,567.1c-0.1-1.4-0.2-3.1-0.2-4.3h0c-0.4,1.2-0.8,2.4-1.3,3.8l-1.8,4.8h-1l-1.6-4.7
		c-0.5-1.4-0.9-2.7-1.1-3.9h0c0,1.2-0.1,2.9-0.2,4.4l-0.3,4.3h-1.2l0.7-10h1.6l1.7,4.8c0.4,1.2,0.7,2.3,1,3.4h0
		c0.3-1,0.6-2.1,1.1-3.4l1.8-4.8h1.6l0.6,10h-1.3L779.9,567.1z"/>
</g>
</svg>
